<svg width="30" height="30" xmlns="http://www.w3.org/2000/svg"><g fill="none" fill-rule="evenodd"><rect fill="#666666" x="3" y="7" width="24" height="15" rx="2.5"/><path d="M14.7143555,15.3764648 C14.7143555,16.1586953 14.4689966,16.8068822 13.9782715,17.3210449 C13.4875464,17.8352076 12.8510781,18.0922852 12.0688477,18.0922852 C11.3012657,18.0922852 10.6779809,17.8352076 10.1989746,17.3210449 C9.71996831,16.8068822 9.48046875,16.1586953 9.48046875,15.3764648 L9.48046875,14.2250977 C9.48046875,13.4457969 9.71996831,12.7983424 10.1989746,12.2827148 C10.6779809,11.7670873 11.2998009,11.5092773 12.0644531,11.5092773 C12.8466836,11.5092773 13.4838843,11.7670873 13.9760742,12.2827148 C14.4682642,12.7983424 14.7143555,13.4457969 14.7143555,14.2250977 L14.7143555,15.3764648 Z M13.6508789,14.2163086 C13.6508789,13.6831028 13.5080581,13.2451189 13.2224121,12.9023438 C12.9367661,12.5595686 12.5507837,12.3881836 12.0644531,12.3881836 C11.5957008,12.3881836 11.225099,12.5595686 10.9526367,12.9023438 C10.6801744,13.2451189 10.5439453,13.6831028 10.5439453,14.2163086 L10.5439453,15.3764648 C10.5439453,15.91553 10.6801744,16.357176 10.9526367,16.701416 C11.225099,17.045656 11.5971656,17.2177734 12.0688477,17.2177734 C12.5581079,17.2177734 12.9440904,17.0463884 13.2268066,16.7036133 C13.5095229,16.3608381 13.6508789,15.9184597 13.6508789,15.3764648 L13.6508789,14.2163086 Z M17.6762695,15.2314453 L16.9379883,15.2314453 L16.9379883,18 L15.8701172,18 L15.8701172,11.6015625 L16.9379883,11.6015625 L16.9379883,14.3129883 L17.5488281,14.3129883 L19.5571289,11.6015625 L20.8227539,11.6015625 L18.4936523,14.6557617 L21.0029297,18 L19.6977539,18 L17.6762695,15.2314453 Z" fill="#FFFFFF"/></g></svg>