<svg width="24" height="24" xmlns="http://www.w3.org/2000/svg"><path d="M12,22 C17.5228475,22 22,17.5228475 22,12 C22,6.4771525 17.5228475,2 12,2 C6.4771525,2 2,6.4771525 2,12 C2,17.5228475 6.4771525,22 12,22 Z M12,24 C5.372583,24 0,18.627417 0,12 C0,5.372583 5.372583,0 12,0 C18.627417,0 24,5.372583 24,12 C24,18.627417 18.627417,24 12,24 Z M13.4166666,16 L13,18.4999995 L15.0275875,18.4999995 L15.4442541,16 L17.6621313,16 L17.9954646,14 L15.7775874,14 L16.4442541,10 L18.6621313,10 L18.9954646,8 L16.7775874,8 L17.2775874,5 L15.2499999,5 L14.7499999,8 L10.7775874,8 L11.2775874,5 L9.24999992,5 L8.74999992,8 L6.33333333,8 L6,10 L8.41666659,10 L7.74999992,14 L5.33333333,14 L5,16 L7.41666659,16 L7,18.4999995 L9.02758751,18.4999995 L9.4442541,16 L13.4166666,16 Z M13.7499999,14 L13.7499999,14 L9.77758743,14 L10.4442541,10 L14.4166666,10 L13.7499999,14 Z" fill-rule="nonzero" fill="#32CEB0"/></svg>