<svg width="90" height="90" xmlns="http://www.w3.org/2000/svg"><defs><filter x="-29.1%" y="-11.2%" width="158.1%" height="122.4%" filterUnits="objectBoundingBox" id="a"><feOffset dy="16" in="SourceAlpha" result="shadowOffsetOuter1"/><feGaussianBlur stdDeviation="16" in="shadowOffsetOuter1" result="shadowBlurOuter1"/><feColorMatrix values="0 0 0 0 0 0 0 0 0 0 0 0 0 0 0 0 0 0 0.4 0" in="shadowBlurOuter1" result="shadowMatrixOuter1"/><feMerge><feMergeNode in="shadowMatrixOuter1"/><feMergeNode in="SourceGraphic"/></feMerge></filter></defs><path d="M160 377a2 2 0 0 1 2 2v1.43A13.723 13.723 0 0 1 173.57 392H175a2 2 0 1 1 0 4h-1.43A13.723 13.723 0 0 1 162 407.57V409a2 2 0 1 1-4 0v-1.43A13.723 13.723 0 0 1 146.43 396H145a2 2 0 1 1 0-4h1.43A13.723 13.723 0 0 1 158 380.43V379a2 2 0 0 1 2-2zm2 5.456V384a2 2 0 1 1-4 0v-1.544a11.725 11.725 0 0 0-9.544 9.544H150a2 2 0 1 1 0 4h-1.544a11.725 11.725 0 0 0 9.544 9.544V404a2 2 0 1 1 4 0v1.544a11.725 11.725 0 0 0 9.544-9.544H170a2 2 0 1 1 0-4h1.544a11.725 11.725 0 0 0-9.544-9.544z" transform="translate(-115 -365)" filter="url(#a)" fill="#DDD" fill-rule="evenodd"/></svg>