<svg width="36" height="32" xmlns="http://www.w3.org/2000/svg"><path d="M18.8682431,2.55055437 C18.7796538,2.3955231 18.6511702,2.26703947 18.4961389,2.17845017 C18.0166215,1.9044402 17.4057668,2.07103693 17.1317569,2.55055437 L2.30129589,28.5038611 C2.21495435,28.6549588 2.16953903,28.8259731 2.16953903,29 C2.16953903,29.5522847 2.61725429,30 3.16953903,30 L32.830461,30 C33.0044879,30 33.1755022,29.9545847 33.3265999,29.8682431 C33.8061173,29.5942332 33.9727141,28.9833785 33.6987041,28.5038611 L18.8682431,2.55055437 Z M20.6047294,1.5582765 L35.4351904,27.5115832 C36.2572203,28.9501355 35.7574301,30.7826995 34.3188778,31.6047294 C33.8655847,31.863754 33.3525418,32 32.830461,32 L3.16953903,32 C1.51268479,32 0.169539035,30.6568542 0.169539035,29 C0.169539035,28.4779192 0.305784987,27.9648763 0.564809609,27.5115832 L15.3952706,1.5582765 C16.2173005,0.119724157 18.0498645,-0.380066024 19.4884168,0.441963885 C19.9535106,0.707731788 20.3389615,1.09318267 20.6047294,1.5582765 Z M18,9 L18,9 L18,9 C19.1045695,9 20,9.8954305 20,11 L20,19 L20,19 C20,20.1045695 19.1045695,21 18,21 L18,21 L18,21 C16.8954305,21 16,20.1045695 16,19 L16,11 L16,11 C16,9.8954305 16.8954305,9 18,9 Z M18,27 C19.1045695,27 20,26.1045695 20,25 C20,23.8954305 19.1045695,23 18,23 C16.8954305,23 16,23.8954305 16,25 C16,26.1045695 16.8954305,27 18,27 Z" fill="#F3BB43" fill-rule="nonzero"/></svg>