<svg width="96" height="96" fill="none" xmlns="http://www.w3.org/2000/svg"><path d="M39.1094 72.6094L34.4297 71.4609C34.1719 70.6406 33.8438 69.8438 33.4453 69.0703L35.8359 65.0859C36.1172 64.6172 36.0469 64.0312 35.6719 63.6562L32.3438 60.3281C31.9688 59.9531 31.3828 59.8828 30.9141 60.1641L26.9297 62.5547C26.1562 62.1562 25.3594 61.8281 24.5391 61.5703L23.4141 56.8906C23.2734 56.375 22.8047 56 22.2656 56H17.5781C17.0391 56 16.5703 56.375 16.4297 56.8906L15.3047 61.5703C14.4844 61.8281 13.6875 62.1562 12.9141 62.5547L8.92969 60.1641C8.46094 59.8828 7.875 59.9531 7.5 60.3281L4.17188 63.6562C3.79688 64.0312 3.72656 64.6172 4.00781 65.0859L6.39844 69.0703C6 69.8438 5.67188 70.6406 5.41406 71.4609L0.890625 72.6094C0.375 72.7266 0 73.1953 0 73.7344V78.4219C0 78.9609 0.375 79.4297 0.890625 79.5469L5.41406 80.6953C5.67188 81.5156 6 82.3125 6.39844 83.0859L4.00781 87.0703C3.72656 87.5391 3.79688 88.125 4.17188 88.5L7.5 91.8281C7.875 92.2031 8.46094 92.2734 8.92969 91.9922L12.9141 89.6016C13.6875 90 14.4844 90.3281 15.3047 90.5859L16.4297 95.1094C16.5703 95.625 17.0391 96 17.5781 96H22.2656C22.8047 96 23.2734 95.625 23.4141 95.1094L24.5391 90.5859C25.3594 90.3281 26.1562 90 26.9297 89.6016L30.9141 91.9922C31.3828 92.2734 31.9688 92.2031 32.3438 91.8281L35.6719 88.5C36.0469 88.125 36.1172 87.5391 35.8359 87.0703L33.4453 83.0859C33.8438 82.3125 34.1719 81.5156 34.4297 80.6953L39.1094 79.5469C39.625 79.4297 40 78.9609 40 78.4219V73.7344C40 73.1953 39.625 72.7266 39.1094 72.6094ZM19.9219 81.9375C16.6875 81.9375 14.0625 79.3125 14.0625 76.0781C14.0625 72.8438 16.6875 70.2188 19.9219 70.2188C23.1562 70.2188 25.7812 72.8438 25.7812 76.0781C25.7812 79.3125 23.1562 81.9375 19.9219 81.9375Z" fill="#000" fill-opacity=".1"/><path d="M52 0H80V8H52V0zM88 0H96V8H88V0zM52 16H80V24H52V16z" fill="#D8D8D8"/><path d="M52 32H96V40H52V32zM49.2721 49.6152L60.5858 60.9289 54.9289 66.5858 43.6152 55.2721 49.2721 49.6152z" fill="#EFEFEF"/><path d="M88 16H96V24H88V16Z" fill="#D8D8D8"/><path d="M82 78C86.4183 78 90 74.4183 90 70C90 65.5817 86.4183 62 82 62C77.5817 62 74 65.5817 74 70C74 74.4183 77.5817 78 82 78Z" fill="#EFEFEF"/><path fill-rule="evenodd" clip-rule="evenodd" d="M96 96C96 88.268 89.732 82 82 82C74.268 82 68 88.268 68 96" fill="#D8D8D8"/><path d="M22 44C34.1503 44 44 34.1503 44 22C44 9.84974 34.1503 0 22 0C9.84974 0 0 9.84974 0 22C0 34.1503 9.84974 44 22 44Z" fill="#30BCED"/><path fill-rule="evenodd" clip-rule="evenodd" d="M13.5147 12.6863C9.21897 16.9821 9.21896 23.9469 13.5147 28.2426C17.5307 32.2586 23.8793 32.5202 28.1992 29.0274L32.4853 33.3137L35.3137 30.4853L30.8119 25.9825C33.2555 21.7734 32.6752 16.2904 29.0711 12.6863C24.7753 8.39052 17.8105 8.39052 13.5147 12.6863ZM16.3432 15.5147C19.0768 12.781 23.509 12.781 26.2427 15.5147C28.9763 18.2484 28.9763 22.6805 26.2427 25.4142C23.509 28.1479 19.0768 28.1479 16.3432 25.4142C13.6095 22.6805 13.6095 18.2484 16.3432 15.5147Z" fill="#fff"/></svg>