<svg width="24" height="24" xmlns="http://www.w3.org/2000/svg"><g fill="#4A79E2" fill-rule="evenodd"><path d="M12,22 C17.5228475,22 22,17.5228475 22,12 C22,6.4771525 17.5228475,2 12,2 C6.4771525,2 2,6.4771525 2,12 C2,17.5228475 6.4771525,22 12,22 Z M12,24 C5.372583,24 0,18.627417 0,12 C0,5.372583 5.372583,0 12,0 C18.627417,0 24,5.372583 24,12 C24,18.627417 18.627417,24 12,24 Z" fill-rule="nonzero"/><path d="M14,17 L9,17 L9,15 L14,15 L14,13 L11,13 L11,11 L14,11 L14,9 L9,9 L9,7 L14,7 C15.1045695,7 16,7.8954305 16,9 L16,15 C16,16.1045695 15.1045695,17 14,17 Z"/></g></svg>