<svg width="45" height="45" xmlns="http://www.w3.org/2000/svg"><path d="M18,0 C27.9411256,0 36,8.05887454 36,18 C36,22.1597032 34.5889971,25.9898489 32.2195045,29.0379238 L44.0419807,40.8600002 L40.8600002,44.0419807 L29.0379238,32.2195045 C25.9898489,34.5889971 22.1597032,36 18,36 C8.05887454,36 0,27.9411256 0,18 C0,8.05887454 8.05887454,0 18,0 Z M18,4.5 C10.5441559,4.5 4.5,10.5441559 4.5,18 C4.5,25.4558441 10.5441559,31.5 18,31.5 C25.4558441,31.5 31.5,25.4558441 31.5,18 C31.5,10.5441559 25.4558441,4.5 18,4.5 Z M18,7.5 C23.6781776,7.5 28.303648,12.0071751 28.4939115,17.6390254 L28.5,18 L25.5,18 C25.5,13.9668679 22.3165399,10.6772728 18.3253344,10.5069293 L18,10.5 L18,7.5 Z" fill="#F6CE69" fill-rule="nonzero"/></svg>