<svg width="15" height="15" xmlns="http://www.w3.org/2000/svg"><path d="M11.1237341,9.1237341 L11.1237341,9.1237341 L15,13 L13,15 L9.1237341,11.1237341 C8.21383771,11.6796483 7.14432993,12 6,12 C2.6862915,12 0,9.3137085 0,6 C0,2.6862915 2.6862915,0 6,0 C9.3137085,0 12,2.6862915 12,6 C12,7.14432993 11.6796483,8.21383771 11.1237341,9.1237341 Z M6,10 C8.209139,10 10,8.209139 10,6 C10,3.790861 8.209139,2 6,2 C3.790861,2 2,3.790861 2,6 C2,8.209139 3.790861,10 6,10 Z" fill="#000000" fill-rule="nonzero"/></svg>