<svg width="32" height="24" xmlns="http://www.w3.org/2000/svg"><path d="M19.0000542,17.9999458 L28,17.9999458 C29.1045695,17.9999458 30,17.1045153 30,15.9999458 L30,4.00000516 C30,2.89543567 29.1045695,2.00000516 28,2.00000516 L4,2.00000516 C2.8954305,2.00000516 2,2.89543567 2,4.00000516 L2,15.9999458 C2,17.1045153 2.8954305,17.9999458 4,17.9999458 L12.9999458,17.9999458 L16,21 L19.0000542,17.9999458 Z M16,23.8284271 L12.1715186,19.9999458 L4,19.9999458 C1.790861,19.9999458 0,18.2090848 0,15.9999458 L0,4.00000516 C0,1.79086617 1.790861,5.16474961e-06 4,5.16474961e-06 L28,5.16474961e-06 C30.209139,5.16474961e-06 32,1.79086617 32,4.00000516 L32,15.9999458 C32,18.2090848 30.209139,19.9999458 28,19.9999458 L19.8284814,19.9999458 L16,23.8284271 Z" fill="#FF4001" fill-rule="nonzero"/></svg>