<svg width="20" height="20" fill="none" xmlns="http://www.w3.org/2000/svg"><path d="M10.8 17.6H9.19999C8.97968 17.6 8.79999 17.4219 8.79999 17.2V12.0891L4.35781 14.6281C4.16874 14.7375 3.92656 14.6719 3.81562 14.4828L3.01562 13.1235C2.96093 13.0313 2.94531 12.9219 2.97343 12.8188C2.99999 12.7156 3.06718 12.6281 3.15937 12.575L7.60156 10L3.15937 7.42659C3.06718 7.37346 2.99999 7.2844 2.97343 7.18127C2.94531 7.07815 2.96093 6.96877 3.01406 6.87659L3.81406 5.51721C3.92499 5.32815 4.16874 5.26409 4.35781 5.37346L8.79999 7.91096V2.80002C8.79999 2.57971 8.97968 2.40002 9.19999 2.40002H10.8C11.0219 2.40002 11.2 2.57971 11.2 2.80002V7.91096L15.6422 5.37346C15.8312 5.26409 16.0734 5.32815 16.1844 5.51721L16.9844 6.87659C17.0391 6.96877 17.0547 7.07815 17.0266 7.18127C17 7.2844 16.9328 7.37346 16.8406 7.42659L12.3984 10L16.8406 12.5735C16.9312 12.6281 16.9984 12.7156 17.0266 12.8188C17.0531 12.9219 17.0391 13.0313 16.9844 13.1235L16.1844 14.4828C16.0734 14.6719 15.8312 14.7375 15.6422 14.6266L11.2 12.0891V17.2C11.2 17.4219 11.0219 17.6 10.8 17.6Z" fill="#000"/></svg>