<svg width="20" height="15" xmlns="http://www.w3.org/2000/svg"><g fill-rule="nonzero" fill="none"><path d="M18,0 C19.1045695,0 20,0.8954305 20,2 L20,13 C20,14.1045695 19.1045695,15 18,15 L2,15 C0.8954305,15 0,14.1045695 0,13 L0,2 C0,0.8954305 0.8954305,0 2,0 L18,0 Z" fill="#FFFFFF"/><path d="M18,0 C19.1045695,0 20,0.8954305 20,2 L20,13 C20,14.1045695 19.1045695,15 18,15 L2,15 C0.8954305,15 0,14.1045695 0,13 L0,2 C0,0.8954305 0.8954305,0 2,0 L18,0 Z M18,6 L2,6 L2,13 L18,13 L18,6 Z M12,10 L12,11 L4,11 L4,10 L12,10 Z M16,8 L16,9 L4,9 L4,8 L16,8 Z" fill="#000000"/></g></svg>