<svg width="20" height="20" xmlns="http://www.w3.org/2000/svg"><path d="M13.5797052,4 C12.9375423,4 12.3314555,4.25240431 11.8804982,4.70673077 L10.2101516,6.37259662 C9.61127959,6.97115385 9.39842836,7.81129785 9.57159603,8.590144 L10.4951569,7.67067354 C10.5600943,7.43269231 10.6791469,7.20913508 10.8631377,7.02524062 L12.5334844,5.35576923 C12.8148814,5.07812523 13.1864706,4.92307692 13.5797052,4.92307692 C13.9765483,4.92307692 14.3481375,5.07812523 14.6439651,5.37379785 C14.925363,5.65504831 15.0804917,6.02644277 15.0804917,6.42307692 C15.0804917,6.81610554 14.925363,7.19110554 14.6439651,7.46875046 L12.9772268,9.13822092 C12.8004508,9.31490431 12.5767763,9.43389446 12.3422787,9.49879785 L11.4078946,10.4326923 C11.5774548,10.472356 11.7506225,10.4939902 11.931005,10.4939902 C12.5731689,10.4939902 13.1756474,10.2451923 13.6302129,9.79086585 L15.2969513,8.125 C16.2349428,7.18389446 16.2385511,5.65865385 15.2825206,4.70673077 C14.827956,4.25240431 14.2254766,4 13.5797052,4 Z M11.8372063,7.68870215 C11.7181528,7.69230769 11.6063161,7.74278892 11.5197323,7.82932738 L7.82548874,11.5216351 C7.64510529,11.6983175 7.64510529,11.9939902 7.82548874,12.1742791 C8.00587126,12.3545671 8.29809147,12.3545671 8.48208234,12.1742791 L12.1763259,8.48197138 C12.3134174,8.34855815 12.353101,8.14663508 12.2773403,7.96995169 C12.2051871,7.79326923 12.028412,7.68149015 11.8372063,7.68870215 Z M8.0708096,9.50600985 C7.42864571,9.50600985 6.82616631,9.75480769 6.37160165,10.2091351 L4.70125499,11.8786055 C3.76326347,12.8161055 3.76326347,14.3413462 4.71929305,15.2968748 C5.18828928,15.7656252 5.80519931,16 6.418501,16 C7.03541104,16 7.65232107,15.7656252 8.12131637,15.2968748 L9.78805561,13.6310098 C10.3905341,13.0288462 10.6033862,12.1887022 10.4302186,11.4134615 L9.50665769,12.3329329 C9.44172028,12.5673077 9.32266682,12.7908658 9.13867687,12.9747594 L7.4683302,14.6442308 C6.89110465,15.2211538 5.94589735,15.2211538 5.35424116,14.6262022 C5.07284417,14.3449517 4.921322,13.9735582 4.921322,13.5769231 C4.921322,13.1838945 5.07284417,12.8125 5.35424116,12.5312505 L7.02458783,10.8617791 C7.20497127,10.6814902 7.42864571,10.5588945 7.66675171,10.4903846 L8.59392002,9.56730769 C8.42435979,9.53125046 8.25119212,9.50600985 8.0708096,9.50600985 Z" fill="#999999" fill-rule="nonzero"/></svg>