<svg width="82" height="81" xmlns="http://www.w3.org/2000/svg"><g fill="none" fill-rule="evenodd"><circle cx="7" cy="7" r="7" transform="translate(6 7)" fill="#EFEFEF"/><circle cx="7" cy="7" r="7" transform="translate(62 7)" fill="#EFEFEF"/><circle cx="7" cy="7" r="7" transform="translate(6 58)" fill="#EFEFEF"/><circle cx="7" cy="7" r="7" transform="translate(62 58)" fill="#EFEFEF"/><path fill="#EFEFEF" d="M35 8H61V16H35zM7 36H15V59H7zM81 36H89V59H81zM35 81H61V89H35z" transform="translate(-7 -8)"/><circle cx="22" cy="22" r="22" fill="#30BCED" transform="translate(20 18)"/><path d="M22,8 C29.7319865,8 36,14.2680135 36,22 C36,29.7319865 29.7319865,36 22,36 C14.2680135,36 8,29.7319865 8,22 C8,14.2680135 14.2680135,8 22,8 Z M22,12 C16.4771525,12 12,16.4771525 12,22 C12,27.5228475 16.4771525,32 22,32 C27.5228475,32 32,27.5228475 32,22 C32,16.4771525 27.5228475,12 22,12 Z" fill="#FFFFFF" transform="matrix(-1 0 0 1 64 18)"/><path fill="#FFFFFF" d="M20 6H24V16H20zM6 20H16V24H6zM28 20H38V24H28zM20 28H24V38H20z" transform="translate(20 18)"/></g></svg>