<svg width="142" height="30" fill="none" xmlns="http://www.w3.org/2000/svg"><path fill-rule="evenodd" clip-rule="evenodd" d="M49.7481 5.76595L53.6096 17.8617L57.4037 5.76595H61.552L55.2286 23.5716C54.3068 26.0996 53.306 27.8031 52.2268 28.682C51.1476 29.5605 50.0288 30 48.8712 30C48.017 30 47.1452 29.8388 46.2575 29.5171V25.9874C46.9209 26.2706 47.5727 26.4116 48.2136 26.4116C49.4048 26.4116 50.5126 25.009 51.5354 22.2043L45.3468 5.76595H49.7481ZM24.2193 5.48578C24.79 5.48578 25.3581 5.53119 25.9229 5.62182C26.4885 5.71299 27.1536 5.95133 27.9205 6.33701C28.6868 6.72323 29.3443 7.22252 29.893 7.83542C30.441 8.44849 30.9163 9.34835 31.3193 10.5343C31.7222 11.7208 31.9236 13.0914 31.9236 14.6465C31.9236 17.4953 31.2357 19.6832 29.8592 21.2103C28.482 22.7376 26.5129 23.5009 23.9496 23.5009C22.9828 23.5009 22.0389 23.3979 21.1174 23.1909V29.5797H16.9703V11.3432C16.9703 9.74247 17.5628 8.36629 18.7489 7.21391C19.9349 6.06206 21.758 5.48578 24.2193 5.48578ZM7.077 5.55582C9.53634 5.55582 11.4179 6.18823 12.7209 7.45268C14.0239 8.71749 14.6751 10.5462 14.6751 12.939V17.6343C14.6751 19.2333 14.0822 20.6087 12.8972 21.7595C11.7121 22.9108 9.8896 23.4862 7.43027 23.4862C4.88577 23.4862 3.01101 22.9078 1.8065 21.7511C0.602166 20.5942 0 19.1883 0 17.5321C0 17.1808 0.0337796 16.8206 0.10205 16.4519C0.169431 16.0835 0.347396 15.6212 0.635945 15.0654C0.924316 14.5099 1.3174 14.0222 1.81503 13.6024C2.31266 13.1831 3.04799 12.8228 4.02031 12.5221C4.9928 12.222 6.14077 12.0714 7.46405 12.0714C8.40596 12.0714 9.41562 12.1508 10.4918 12.3095C10.4918 10.098 9.27481 8.99218 6.84161 8.99218C4.8984 8.99218 3.20995 9.28732 1.7761 9.87687V6.44051C3.36783 5.85096 5.1345 5.55582 7.077 5.55582ZM39.7364 0.723022V5.86643H43.8167V9.44811H39.7364V18.0034C39.7364 18.7504 39.8906 19.254 40.2002 19.5142C40.5096 19.7747 41.0575 19.9045 41.844 19.9045C42.5858 19.9045 43.2435 19.7802 43.8167 19.5311V22.977C43.0073 23.3164 42.1248 23.4862 41.1696 23.4862H41.0852C39.3765 23.4862 38.0335 22.977 37.0556 21.9585C36.0776 20.9399 35.5885 19.5371 35.5885 17.7488V9.44811H32.6886V5.86643H35.5885V0.723022H39.7364ZM24.2193 9.07843C22.1516 9.07843 21.1174 9.70299 21.1174 10.9516V20.0272C22.0725 20.1634 22.9213 20.2316 23.663 20.2316C25.0006 20.2316 26.0207 19.8374 26.7229 19.048C27.4249 18.2593 27.7766 16.866 27.7766 14.8678C27.7766 12.8245 27.5125 11.3491 26.9843 10.4406C26.4556 9.53267 25.5342 9.07843 24.2193 9.07843ZM8.0527 14.7421C5.46181 14.7421 4.16058 15.4966 4.14956 17.0047C4.14956 18.865 5.23157 19.7947 7.39667 19.7947H7.43027C9.4942 19.7947 10.5255 18.9161 10.5255 17.1579V14.9634C9.56087 14.8273 8.73683 14.7538 8.0527 14.7421Z" fill="#FF4001"/><path d="M63.2625 11.3446C63.2625 9.95199 63.757 8.7632 64.7459 7.77818C65.7349 6.79317 67.246 6.30067 69.2792 6.30067C70.7268 6.30067 72.1743 6.6573 73.6219 7.37059V9.88406C72.329 9.09152 70.9699 8.69526 69.5444 8.69526C66.9918 8.69526 65.7156 9.57836 65.7156 11.3446C65.7156 11.9447 66.025 12.4287 66.6438 12.7966C67.1938 13.1237 67.853 13.4016 68.6213 13.6303L68.9146 13.7137C69.8096 13.9571 70.7047 14.2487 71.5997 14.5883C72.4948 14.928 73.2544 15.5026 73.8788 16.3121C74.5031 17.1216 74.8153 18.1547 74.8153 19.4115C74.8153 20.9173 74.2655 22.0976 73.166 22.9524C72.0666 23.8072 70.5444 24.2346 68.5996 24.2346C66.7211 24.2346 65.0139 23.7987 63.478 22.927V20.2776C65.1023 21.2966 66.7764 21.8061 68.5002 21.8061C71.0748 21.8061 72.3622 21.0079 72.3622 19.4115C72.3622 18.551 72.0528 17.8774 71.434 17.3905C70.8152 16.9037 70.0582 16.5385 69.1632 16.2951C68.2681 16.0517 67.3731 15.7856 66.478 15.4969C65.583 15.2082 64.8233 14.7214 64.199 14.0364C63.5746 13.3514 63.2625 12.4542 63.2625 11.3446ZM75.1812 8.89905V6.60636H78.1315V1.69829H80.5846V6.60636H84.9604V8.89905H80.5846V19.4794C80.5846 20.3625 80.7642 20.9824 81.1233 21.3391C81.4824 21.6957 82.115 21.874 83.0211 21.874C83.7173 21.874 84.3637 21.7382 84.9604 21.4664V23.827C84.2422 24.0988 83.5239 24.2346 82.8057 24.2346H82.7228C82.2697 24.2346 81.8277 24.1837 81.3968 24.0818C80.9658 23.9799 80.4796 23.7789 79.9382 23.4789C79.3967 23.1789 78.9603 22.675 78.6288 21.9674C78.2973 21.2598 78.1315 20.3852 78.1315 19.3436V8.89905H75.1812ZM86.7352 16.6603V6.60636H89.1717V16.7961C89.1717 18.5624 89.5474 19.8559 90.2988 20.6767C91.0502 21.4976 92.227 21.908 93.8293 21.908C95.4094 21.908 96.5807 21.4976 97.3432 20.6767C98.1056 19.8559 98.4869 18.5624 98.4869 16.7961V6.60636H100.923V16.6603C100.923 19.0718 100.307 20.9371 99.0753 22.2561C97.8432 23.5751 96.0945 24.2346 93.8293 24.2346C91.564 24.2346 89.8154 23.5751 88.5833 22.2561C87.3512 20.9371 86.7352 19.0718 86.7352 16.6603ZM103.61 15.0639C103.61 13.3429 103.836 11.8796 104.289 10.6738C104.742 9.46798 105.369 8.56506 106.171 7.96499C106.972 7.36493 107.787 6.94319 108.615 6.69977C109.444 6.45634 110.356 6.33463 111.35 6.33463C112.842 6.33463 114.245 6.55541 115.56 6.99697V0H117.997V18.7831C117.997 19.2473 117.931 19.7228 117.798 20.2097C117.665 20.6965 117.389 21.2768 116.969 21.9504C116.549 22.6241 115.831 23.1732 114.814 23.5978C113.798 24.0224 112.544 24.2346 111.052 24.2346C110.422 24.2346 109.806 24.178 109.204 24.0648C108.602 23.9516 107.95 23.6968 107.248 23.3006C106.546 22.9043 105.941 22.3892 105.433 21.7551C104.925 21.1211 104.494 20.2295 104.14 19.0803C103.787 17.9311 103.61 16.5923 103.61 15.0639ZM106.046 15.0639C106.046 16.5244 106.201 17.7472 106.51 18.7322C106.82 19.7172 107.245 20.4248 107.787 20.855C108.328 21.2853 108.847 21.574 109.345 21.7212C109.842 21.8684 110.411 21.9419 111.052 21.9419C114.058 21.9419 115.56 20.923 115.56 18.885V9.49346C114.179 8.91603 112.776 8.62733 111.35 8.62733C109.494 8.62733 108.146 9.13681 107.306 10.1558C106.466 11.1748 106.046 12.8108 106.046 15.0639ZM121.098 3.51547V0.764232H123.799V3.51547H121.098ZM121.23 6.60636H123.667V23.9629H121.23V6.60636ZM134.019 6.30067C135.041 6.30067 135.981 6.42804 136.837 6.68278C137.693 6.93753 138.53 7.37059 139.348 7.98198C140.166 8.59337 140.812 9.51893 141.287 10.7587C141.762 11.9984 142 13.5014 142 15.2677C142 17.0339 141.762 18.5369 141.287 19.7766C140.812 21.0164 140.166 21.9419 139.348 22.5533C138.53 23.1647 137.693 23.5978 136.837 23.8525C135.981 24.1073 135.041 24.2346 134.019 24.2346C132.997 24.2346 132.063 24.1073 131.218 23.8525C130.373 23.5978 129.541 23.1647 128.723 22.5533C127.906 21.9419 127.259 21.0192 126.784 19.7851C126.309 18.5397 126.071 17.0339 126.071 15.2677C126.071 13.5014 126.309 11.9984 126.784 10.7587C127.259 9.51893 127.906 8.59337 128.723 7.98198C129.541 7.37059 130.373 6.93753 131.218 6.68278C132.063 6.42804 132.997 6.30067 134.019 6.30067ZM134.027 8.59336C132.105 8.59336 130.707 9.12549 129.834 10.1898C128.961 11.254 128.525 12.9466 128.525 15.2677C128.525 17.5887 128.961 19.2813 129.834 20.3455C130.707 21.4098 132.105 21.9419 134.027 21.9419C135.95 21.9419 137.351 21.4155 138.229 20.3625C139.108 19.3096 139.547 17.6113 139.547 15.2677C139.547 12.924 139.108 11.2257 138.229 10.1728C137.351 9.11983 135.95 8.59336 134.027 8.59336Z" fill="#333333"/></svg>