<svg width="30" height="30" xmlns="http://www.w3.org/2000/svg"><path d="M12.7335189,1.03453223 C13.9296991,-0.344844076 16.0703009,-0.344844076 17.2664811,1.03453223 C19.2414887,3.31201419 21.5003399,4.39130245 25.699977,5.39899943 C27.1020854,5.73543334 28.0665201,7.02176498 27.9964563,8.46196864 C27.5525734,17.5862456 23.4181969,25.0033009 16.6615704,29.4978358 C15.6550337,30.1673881 14.3449663,30.1673881 13.3384296,29.4978358 C6.58180313,25.0033009 2.44742662,17.5862456 2.00354373,8.46196864 C1.93347991,7.02176498 2.89791464,5.73543334 4.30002296,5.39899943 C8.49966006,4.39130245 10.7585113,3.31201419 12.7335189,1.03453223 Z M15,3 C12.4178273,5.97763496 9.31671309,7.19784062 6.08247911,8.04552956 L5.72259156,8.13825459 L5,8.31619537 C5.4178273,16.9048843 9.37325905,23.2570694 15,27 C20.6267409,23.2570694 24.5821727,16.9048843 25,8.31619537 L24.2774084,8.13825459 C20.9137109,7.28581548 17.6778087,6.08791774 15,3 Z M19.3598156,11.2317787 L20.6401844,12.7682213 L13.9386335,18.352847 L10.2928932,14.7071068 L11.7071068,13.2928932 L14.061,15.646 L19.3598156,11.2317787 Z" fill="#32CEB0" fill-rule="nonzero"/></svg>