<svg width="40" height="33" xmlns="http://www.w3.org/2000/svg"><g fill="none" fill-rule="evenodd"><path d="M6,6 L27,6 C30.3137085,6 33,8.6862915 33,12 L33,27 C33,30.3137085 30.3137085,33 27,33 L6,33 C2.6862915,33 4.4408921e-16,30.3137085 0,27 L0,12 C-4.4408921e-16,8.6862915 2.6862915,6 6,6 Z" fill="#000000" fill-rule="nonzero" opacity=".5"/><path d="M6,9 C4.34314575,9 3,10.3431458 3,12 L3,27 C3,28.6568542 4.34314575,30 6,30 L27,30 C28.6568542,30 30,28.6568542 30,27 L30,12 C30,10.3431458 28.6568542,9 27,9 L6,9 Z" fill="#FFFFFF"/><path fill="#000000" opacity=".2" d="M11 17L11 30 9 30 9 17 3 17 3 15 30 15 30 17z"/><rect fill="#D93535" x="23" width="17" height="17" rx="8.5"/><path d="M33,3 L32.5,10 L30.5,10 L30,3 L33,3 Z M33,11 L33,14 L30,14 L30,11 L33,11 Z" fill="#FFFFFF" fill-rule="nonzero"/></g></svg>