<svg width="12" height="12" xmlns="http://www.w3.org/2000/svg"><path d="M304.414214,27 L308.707107,31.2928932 C309.097631,31.6834175 309.097631,32.3165825 308.707107,32.7071068 C308.316582,33.0976311 307.683418,33.0976311 307.292893,32.7071068 L303,28.4142136 L298.707107,32.7071068 C298.316582,33.0976311 297.683418,33.0976311 297.292893,32.7071068 C296.902369,32.3165825 296.902369,31.6834175 297.292893,31.2928932 L301.585786,27 L297.292893,22.7071068 C296.902369,22.3165825 296.902369,21.6834175 297.292893,21.2928932 C297.683418,20.9023689 298.316582,20.9023689 298.707107,21.2928932 L303,25.5857864 L307.292893,21.2928932 C307.683418,20.9023689 308.316582,20.9023689 308.707107,21.2928932 C309.097631,21.6834175 309.097631,22.3165825 308.707107,22.7071068 L304.414214,27 Z" transform="translate(-297 -21)" fill="#000000" fill-rule="nonzero" opacity=".5"/></svg>