<svg width="23" height="21" xmlns="http://www.w3.org/2000/svg"><path d="M132.726057,61 C131.339854,60.6065387 130.353531,59.9805868 129.767061,59.1221257 C129.18059,58.2636646 128.887359,57.2227961 128.887359,55.999489 L128.887359,53.8211548 C128.887359,53.1129244 128.732747,52.5620868 128.423517,52.1686254 C128.114287,51.7751641 127.639786,51.5784364 127,51.5784364 L127,49.4215636 C127.639786,49.4215636 128.114287,49.2266243 128.423517,48.8367399 C128.732747,48.4468555 128.887359,47.8906526 128.887359,47.1681145 L128.887359,44.9897803 C128.887359,43.7664732 129.18059,42.7273931 129.767061,41.8725089 C130.353531,41.0176247 131.339854,40.3934613 132.726057,40 L133.323187,41.6847215 C132.718945,41.9064906 132.292427,42.3017345 132.043622,42.870465 C131.794816,43.4391955 131.670415,44.1456268 131.670415,44.9897803 L131.670415,47.1681145 C131.670415,47.9121141 131.512248,48.5720462 131.195909,49.1479305 C130.879571,49.7238148 130.401515,50.1727117 129.761729,50.4946346 C130.401515,50.8308652 130.879571,51.2869159 131.195909,51.8628002 C131.512248,52.4386845 131.670415,53.0914629 131.670415,53.8211548 L131.670415,55.999489 C131.670415,56.8436424 131.794816,57.5500738 132.043622,58.1188043 C132.292427,58.6875348 132.718945,59.0827787 133.323187,59.3045478 L132.726057,61 Z M143.66615,59.3045478 C144.270392,59.0827787 144.69691,58.6875348 144.945715,58.1188043 C145.194521,57.5500738 145.318922,56.8436424 145.318922,55.999489 L145.318922,53.8211548 C145.318922,53.0771552 145.48242,52.4190115 145.809422,51.8467041 C146.136424,51.2743967 146.634028,50.8272883 147.302249,50.5053654 C146.634028,50.1834424 146.136424,49.7345455 145.809422,49.1586612 C145.48242,48.5827769 145.318922,47.9192679 145.318922,47.1681145 L145.318922,44.9897803 C145.318922,44.1456268 145.194521,43.4391955 144.945715,42.870465 C144.69691,42.3017345 144.270392,41.9064906 143.66615,41.6847215 L144.26328,40 C145.642375,40.3934613 146.62692,41.0176247 147.216945,41.8725089 C147.806969,42.7273931 148.101977,43.7664732 148.101977,44.9897803 L148.101977,47.1681145 C148.101977,47.8906526 148.254813,48.4468555 148.560489,48.8367399 C148.866164,49.2266243 149.345996,49.4215636 150,49.4215636 L150,51.5784364 C149.345996,51.5784364 148.866164,51.7751641 148.560489,52.1686254 C148.254813,52.5620868 148.101977,53.1129244 148.101977,53.8211548 L148.101977,55.999489 C148.101977,57.2227961 147.806969,58.2636646 147.216945,59.1221257 C146.62692,59.9805868 145.642375,60.6065387 144.26328,61 L143.66615,59.3045478 Z" transform="translate(-127 -40)" fill="#F66969" fill-rule="evenodd"/></svg>