<svg width="31" height="33" xmlns="http://www.w3.org/2000/svg"><path d="M147.045942,41.2469517 C146.655417,40.8564274 146.655417,40.2232624 147.045942,39.8327381 C147.436466,39.4422138 148.069631,39.4422138 148.460155,39.8327381 C154.513282,45.8858646 154.513282,55.6999218 148.460155,61.7530483 C142.407029,67.8061748 132.592971,67.8061748 126.539845,61.7530483 C120.486718,55.6999218 120.486718,45.8858646 126.539845,39.8327381 C126.930369,39.4422138 127.563534,39.4422138 127.954058,39.8327381 C128.344583,40.2232624 128.344583,40.8564274 127.954058,41.2469517 C122.681981,46.5190296 122.681981,55.0667568 127.954058,60.3388348 C133.226136,65.6109127 141.773864,65.6109127 147.045942,60.3388348 C152.318019,55.0667568 152.318019,46.5190296 147.045942,41.2469517 Z M139,47.8786797 L141.93934,44.9393398 C142.525126,44.3535534 143.474874,44.3535534 144.06066,44.9393398 C144.646447,45.5251263 144.646447,46.4748737 144.06066,47.0606602 L138.56066,52.5606602 C137.974874,53.1464466 137.025126,53.1464466 136.43934,52.5606602 L130.93934,47.0606602 C130.353553,46.4748737 130.353553,45.5251263 130.93934,44.9393398 C131.525126,44.3535534 132.474874,44.3535534 133.06066,44.9393398 L136,47.8786797 L136,35.5 C136,34.6715729 136.671573,34 137.5,34 C138.328427,34 139,34.6715729 139,35.5 L139,47.8786797 Z" transform="translate(-122 -34)" fill="#35D982" fill-rule="nonzero"/></svg>