<svg width="34" height="34" xmlns="http://www.w3.org/2000/svg"><path d="M30.5695004,19 C29.6967214,24.9733503 24.9733503,29.6967214 19,30.5695004 L19,32 C19,33.1045695 18.1045695,34 17,34 C15.8954305,34 15,33.1045695 15,32 L15,30.5695004 C9.02664968,29.6967214 4.30327864,24.9733503 3.4304996,19 L2,19 C0.8954305,19 0,18.1045695 0,17 C0,15.8954305 0.8954305,15 2,15 L3.4304996,15 C4.30327864,9.02664968 9.02664968,4.30327864 15,3.4304996 L15,2 C15,0.8954305 15.8954305,0 17,0 C18.1045695,0 19,0.8954305 19,2 L19,3.4304996 C24.9733503,4.30327864 29.6967214,9.02664968 30.5695004,15 L32,15 C33.1045695,15 34,15.8954305 34,17 C34,18.1045695 33.1045695,19 32,19 L30.5695004,19 Z M28.544229,19 L27,19 C25.8954305,19 25,18.1045695 25,17 C25,15.8954305 25.8954305,15 27,15 L28.544229,15 C27.7069995,10.1330735 23.8669265,6.29300052 19,5.45577102 L19,7 C19,8.1045695 18.1045695,9 17,9 C15.8954305,9 15,8.1045695 15,7 L15,5.45577102 C10.1330735,6.29300052 6.29300052,10.1330735 5.45577102,15 L7,15 C8.1045695,15 9,15.8954305 9,17 C9,18.1045695 8.1045695,19 7,19 L5.45577102,19 C6.29300052,23.8669265 10.1330735,27.7069995 15,28.544229 L15,27 C15,25.8954305 15.8954305,25 17,25 C18.1045695,25 19,25.8954305 19,27 L19,28.544229 C23.8669265,27.7069995 27.7069995,23.8669265 28.544229,19 Z" fill="#F3BB43" fill-rule="evenodd"/></svg>