<svg width="30" height="30" xmlns="http://www.w3.org/2000/svg"><g fill="none" fill-rule="evenodd"><rect fill="#666666" x="2" y="7" width="26" height="15" rx="2.5"/><path d="M10.769043,18 L9.70556641,18 L6.86669922,13.3286133 L6.84033203,13.3374023 L6.84033203,18 L5.77246094,18 L5.77246094,11.6015625 L6.84033203,11.6015625 L9.67919922,16.2685547 L9.70556641,16.2597656 L9.70556641,11.6015625 L10.769043,11.6015625 L10.769043,18 Z M14.0737305,18.0922852 C13.399899,18.0922852 12.8630391,17.8718284 12.4631348,17.4309082 C12.0632304,16.989988 11.8632812,16.4238316 11.8632812,15.7324219 L11.8632812,15.5566406 C11.8632812,14.8652309 12.0617656,14.2917503 12.4587402,13.8361816 C12.8557149,13.380613 13.3530244,13.1542969 13.9506836,13.1572266 C14.5922884,13.1572266 15.0837385,13.3513164 15.4250488,13.739502 C15.7663591,14.1276875 15.9370117,14.6484342 15.9370117,15.3017578 L15.9370117,15.9301758 L12.9707031,15.9301758 L12.9619141,15.9521484 C12.9794923,16.33008 13.0900869,16.639159 13.2937012,16.8793945 C13.4973155,17.1196301 13.7792951,17.2397461 14.1396484,17.2397461 C14.4267592,17.2397461 14.6728505,17.2045902 14.8779297,17.1342773 C15.0830088,17.0639645 15.2807608,16.9628913 15.4711914,16.8310547 L15.8139648,17.5297852 C15.635253,17.6879891 15.3979507,17.8212885 15.1020508,17.9296875 C14.8061509,18.0380865 14.4633809,18.0922852 14.0737305,18.0922852 Z M13.9506836,14.0141602 C13.6870104,14.0141602 13.4702157,14.1188954 13.300293,14.3283691 C13.1303702,14.5378428 13.0249025,14.8037093 12.9838867,15.1259766 L12.9926758,15.1479492 L14.8779297,15.1479492 L14.8779297,15.0380859 C14.8779297,14.7363266 14.8010262,14.4902353 14.6472168,14.2998047 C14.4934074,14.109374 14.261232,14.0141602 13.9506836,14.0141602 Z M18.503418,14.8754883 L19.3823242,13.2451172 L20.6083984,13.2451172 L19.1142578,15.5961914 L20.6523438,18 L19.4394531,18 L18.5209961,16.3300781 L17.6025391,18 L16.3808594,18 L17.9189453,15.5961914 L16.4248047,13.2451172 L17.6376953,13.2451172 L18.503418,14.8754883 Z M22.6870117,12.0893555 L22.6870117,13.2451172 L23.5395508,13.2451172 L23.5395508,14.0361328 L22.6870117,14.0361328 L22.6870117,16.6640625 C22.6870117,16.8603525 22.7294918,17.0002437 22.8144531,17.0837402 C22.8994145,17.1672367 23.0122063,17.2089844 23.152832,17.2089844 C23.2114261,17.2089844 23.2685544,17.2038575 23.3242188,17.1936035 C23.3798831,17.1833496 23.4326169,17.1694337 23.4824219,17.1518555 L23.5966797,17.934082 C23.5058589,17.983887 23.3974616,18.0227049 23.2714844,18.0505371 C23.1455072,18.0783693 23.0151374,18.0922852 22.8803711,18.0922852 C22.487791,18.0922852 22.1801769,17.9772961 21.9575195,17.7473145 C21.7348622,17.5173328 21.6235352,17.1562525 21.6235352,16.6640625 L21.6235352,14.0361328 L20.8984375,14.0361328 L20.8984375,13.2451172 L21.6235352,13.2451172 L21.6235352,12.0893555 L22.6870117,12.0893555 Z" fill="#FFFFFF"/></g></svg>