<svg width="16" height="16" xmlns="http://www.w3.org/2000/svg"><path d="M8.64001 14.08H7.36001C7.18376 14.08 7.04001 13.9375 7.04001 13.76V9.67123L3.48626 11.7025C3.33501 11.79 3.14126 11.7375 3.05251 11.5862L2.41251 10.4987C2.36876 10.425 2.35626 10.3375 2.37876 10.255C2.40001 10.1725 2.45376 10.1025 2.52751 10.06L6.08126 7.99998L2.52751 5.94123C2.45376 5.89873 2.40001 5.82748 2.37876 5.74498C2.35626 5.66248 2.36876 5.57498 2.41126 5.50123L3.05126 4.41373C3.14001 4.26248 3.33501 4.21123 3.48626 4.29873L7.04001 6.32873V2.23998C7.04001 2.06373 7.18376 1.91998 7.36001 1.91998H8.64001C8.81751 1.91998 8.96001 2.06373 8.96001 2.23998V6.32873L12.5138 4.29873C12.665 4.21123 12.8588 4.26248 12.9475 4.41373L13.5875 5.50123C13.6313 5.57498 13.6438 5.66248 13.6213 5.74498C13.6 5.82748 13.5463 5.89873 13.4725 5.94123L9.91876 7.99998L13.4725 10.0587C13.545 10.1025 13.5988 10.1725 13.6213 10.255C13.6425 10.3375 13.6313 10.425 13.5875 10.4987L12.9475 11.5862C12.8588 11.7375 12.665 11.79 12.5138 11.7012L8.96001 9.67123V13.76C8.96001 13.9375 8.81751 14.08 8.64001 14.08Z" fill="#828282"/></svg>