<svg width="24" height="24" xmlns="http://www.w3.org/2000/svg"><path d="M17.5142861,9.21042816 C18.419968,10.7443337 18.2140257,12.7531343 16.8964593,14.0710678 L14.0688199,16.8994949 C12.7512535,18.2174284 10.7430123,18.4234281 9.20953401,17.5174939 L7.70663132,19.0208153 C7.3162158,19.4113396 6.68322717,19.4113396 6.29281164,19.0208153 C5.90239612,18.630291 5.90239612,17.997126 6.29281164,17.6066017 L7.79571433,16.1032803 C6.89003245,14.5693748 7.09597473,12.5605742 8.41354117,11.2426407 L11.2411805,8.41421356 C12.558747,7.09628006 14.5669881,6.89028041 16.1004664,7.7962146 L17.6033691,6.29289322 C17.9937846,5.90236893 18.6267733,5.90236893 19.0171888,6.29289322 C19.4076043,6.68341751 19.4076043,7.31658249 19.0171888,7.70710678 L17.5142861,9.21042816 Z M16.0004055,10.7247305 L15.4826396,11.2426407 C15.092224,11.633165 14.4592354,11.633165 14.0688199,11.2426407 C13.6784044,10.8521164 13.6784044,10.2189514 14.0688199,9.82842712 L14.5865858,9.31051694 C13.9195381,9.13233172 13.1783131,9.30496845 12.6550002,9.82842712 L9.82736085,12.6568542 C9.30404796,13.1803129 9.13145932,13.9217444 9.30959491,14.588978 L9.82736085,14.0710678 C10.2177764,13.6805435 10.850765,13.6805435 11.2411805,14.0710678 C11.6315961,14.4615921 11.6315961,15.0947571 11.2411805,15.4852814 L10.7234146,16.0031916 C11.3904623,16.1813768 12.1316873,16.00874 12.6550002,15.4852814 L15.4826396,12.6568542 C16.0059525,12.1333956 16.1785411,11.3919641 16.0004055,10.7247305 Z" fill="#000000" fill-rule="nonzero"/></svg>