<svg width="24" height="24" xmlns="http://www.w3.org/2000/svg"><path d="M12,22 C17.5228475,22 22,17.5228475 22,12 C22,6.4771525 17.5228475,2 12,2 C6.4771525,2 2,6.4771525 2,12 C2,17.5228475 6.4771525,22 12,22 Z M12,24 C5.372583,24 0,18.627417 0,12 C0,5.372583 5.372583,0 12,0 C18.627417,0 24,5.372583 24,12 C24,18.627417 18.627417,24 12,24 Z M12.3173828,10.4399414 L10,9.59912109 L10.5742188,7.8046875 L13.065918,8.54296875 L13.1479492,6 L15.0141602,6 L15.1679688,8.64550781 L17.5161133,7.89697266 L18.090332,9.71191406 L15.7319336,10.5834961 L17.0751953,12.6855469 L15.5473633,13.8032227 L13.9785156,11.7114258 L12.4301758,13.7109375 L10.8920898,12.6342773 L12.3173828,10.4399414 Z M8.5,18 C9.32842712,18 10,17.3284271 10,16.5 C10,15.6715729 9.32842712,15 8.5,15 C7.67157288,15 7,15.6715729 7,16.5 C7,17.3284271 7.67157288,18 8.5,18 Z" fill-rule="nonzero" fill="#32CEB0"/></svg>