<svg width="29" height="29" fill="none" xmlns="http://www.w3.org/2000/svg"><path d="M14.5 29C22.5081 29 29 22.5081 29 14.5C29 6.49187 22.5081 0 14.5 0C6.49187 0 0 6.49187 0 14.5C0 22.5081 6.49187 29 14.5 29Z" fill="#F6AA69"/><path fill-rule="evenodd" clip-rule="evenodd" d="M13 13H10C9.44772 13 9 13.4477 9 14V15C9 15.5523 9.44772 16 10 16H13V19C13 19.5523 13.4477 20 14 20H15C15.5523 20 16 19.5523 16 19V16H19C19.5523 16 20 15.5523 20 15V14C20 13.4477 19.5523 13 19 13H16V10C16 9.44772 15.5523 9 15 9H14C13.4477 9 13 9.44772 13 10V13Z" fill="#fff"/></svg>