<svg width="30" height="30" xmlns="http://www.w3.org/2000/svg"><g fill="none" fill-rule="evenodd"><path d="M17.4991462,11.521964 C17.8375373,11.3998779 18.2024745,11.333333 18.582954,11.333333 C19.3054357,11.333333 19.971876,11.5732747 20.5069354,11.9778187 C20.7103616,11.9323203 20.9213924,11.9071273 21.1377605,11.9044508 C22.824824,11.9042222 24.1624994,13.2418976 24.1624994,14.8920039 L24.1620595,15.4586167 C24.1016645,18.3374635 24.0151077,19.9807587 23.8620105,20.6918103 C23.8358654,20.8132396 23.798465,20.9319692 23.750294,21.0464603 L22.2635481,24.580105 C21.7953346,25.6929382 20.705653,26.4166681 19.498333,26.4166681 L13.6325616,26.4166681 C12.7393191,26.4166681 11.8925353,26.0186271 11.3225952,25.3308404 L6.77382335,19.8415175 C6.75078965,19.8135096 6.75078965,19.8135096 6.72817551,19.7851618 C5.614999,18.3790428 5.85247582,16.3367502 7.25859482,15.2235737 C8.06104657,14.5883 9.06891634,14.3840207 10,14.5815058 L10,8 C10,6.34314575 11.3431458,5 13,5 C14.6568542,5 16,6.34314575 16,8 L16,10.9922936 C16.5496432,11.0490716 17.0596599,11.2362138 17.4991462,11.521964 Z" fill="#666666" fill-rule="nonzero"/><path d="M12,8 L12,19 L10.3165137,16.9798165 C9.86228829,16.4347459 9.05629859,16.3512633 8.5,16.7916659 C7.95991441,17.2192333 7.86870036,18.003671 8.29626772,18.5437566 C8.30011015,18.5486102 9.82221183,20.3855998 12.8625728,24.0547256 C13.0525528,24.2839878 13.3348141,24.4166681 13.6325616,24.4166681 L19.498333,24.4166681 C19.900773,24.4166681 20.2640002,24.1754248 20.4200713,23.8044804 L21.9068173,20.2708357 C22.0204543,19.7430548 22.1056817,18.1249989 22.1624994,15.4166681 L22.1624994,14.8920039 C22.1624994,14.3464671 21.7202545,13.9042222 21.1747177,13.9042222 C20.6023141,13.9112275 20.145965,14.3562056 20.1249053,14.9160378 L20.1170446,15.1250017 L19.7761358,15.1250017 L19.7761358,14.5265148 C19.7761358,13.8675387 19.2419301,13.333333 18.582954,13.333333 C17.9239779,13.333333 17.3897722,13.8675387 17.3897722,14.5265148 L17.3897722,15.1250017 L17.0488635,15.1250017 L17.0488635,14.3758606 C17.0488635,13.6165369 16.44427,12.9952662 15.6852273,12.9746098 C14.9523282,12.9546648 14.3420275,13.5326283 14.3220825,14.2655274 C14.3218641,14.2735508 14.3217003,14.5600422 14.3215912,15.1250017 L14,14.5 L14,8 C14,7.44771525 13.5522847,7 13,7 C12.4477153,7 12,7.44771525 12,8 Z" fill="#FFFFFF"/></g></svg>