<svg width="13" height="19" xmlns="http://www.w3.org/2000/svg"><path d="M2,7.66318442 C0.817526333,7.10145245 0,5.89619798 0,4.5 C0,2.56700338 1.56700338,1 3.5,1 C5.43299662,1 7,2.56700338 7,4.5 C7,5.89619798 6.18247367,7.10145245 5,7.66318442 L5,13.1842105 C5,13.5466134 5.57428965,14 6.43333333,14 L8,14 L8,11 L13,15.5 L8,20 L8,17 L6.43333333,17 C4.05230648,17 2,15.379758 2,13.1842105 L2,7.66318442 Z M3.5,6 C4.32842712,6 5,5.32842712 5,4.5 C5,3.67157288 4.32842712,3 3.5,3 C2.67157288,3 2,3.67157288 2,4.5 C2,5.32842712 2.67157288,6 3.5,6 Z" transform="translate(0 -1)" fill="#000000" fill-rule="nonzero"/></svg>