<svg width="36" height="20" xmlns="http://www.w3.org/2000/svg"><path d="M6,15.9999406 C6,17.1045101 6.8954305,17.9999406 8,17.9999406 L32,17.9999406 C33.1045695,17.9999406 34,17.1045101 34,15.9999406 L34,4 C34,2.8954305 33.1045695,2 32,2 L8,2 C6.8954305,2 6,2.8954305 6,4 L6,9.99999484 L3,12.9999948 L6,15.9999406 Z M0.171560092,13.0000076 L4,9.17156771 L4,4 C4,1.790861 5.790861,0 8,0 L32,0 C34.209139,0 36,1.790861 36,4 L36,15.9999406 C36,18.2090796 34.209139,19.9999406 32,19.9999406 L8,19.9999406 C6.11438596,19.9999406 4.53350847,18.6952083 4.11091542,16.9392917 L0.171560092,13.0000076 Z" fill="#FF4001" fill-rule="nonzero"/></svg>