<svg width="30" height="30" xmlns="http://www.w3.org/2000/svg"><path d="M15,21 C16.2727331,21 17.4166604,20.6515185 18.4318196,19.9545455 C19.446976,19.2575709 20.1666647,18.3333382 20.5909091,17.1818182 L22.6818182,17.1818182 C22.1969687,18.8787956 21.2500073,20.2727217 19.8409076,21.3636364 C18.4318109,22.454551 16.8181905,23 15,23 C12.7878691,23 10.9015244,22.2197047 9.34090909,20.6590909 C7.78029527,19.0984756 7,17.2121309 7,15 C7,12.7878691 7.78029527,10.9015244 9.34090909,9.34091055 C10.9015244,7.78029382 12.7878691,7 15,7 C17.1818298,7 19.0605993,7.787872 20.6363636,9.36363636 L23,7 L23,14 L16,14 L19.1818182,10.8181818 C18.0302982,9.60605382 16.6363724,9 15,9 C13.3333236,9 11.916672,9.583328 10.7499985,10.7499985 C9.58332742,11.916672 9,13.3333236 9,15 C9,16.6666764 9.58332742,18.083328 10.7499985,19.2500015 C11.916672,20.4166726 13.3333236,21 15,21 Z" fill="#666666" fill-rule="evenodd"/></svg>