<svg width="16" height="16" fill="none" xmlns="http://www.w3.org/2000/svg"><path d="M6.5 12.5V11.298L6.167 11.18C3.974 10.404 2.5 8.322 2.5 6C2.5 2.968 4.968 0.5 8 0.5C11.032 0.5 13.5 2.968 13.5 6C13.5 8.322 12.026 10.404 9.833 11.18L9.5 11.298V12.5H6.5Z" fill="#FFEEA3"/><path d="M8 1C10.757 1 13 3.243 13 6C13 8.11 11.66 10.003 9.666 10.709L9 10.944V11.651V12H7V11.651V10.944L6.334 10.708C4.34 10.003 3 8.11 3 6C3 3.243 5.243 1 8 1ZM8 0C4.686 0 2 2.686 2 6C2 8.611 3.671 10.827 6 11.651V13H10V11.651C12.329 10.826 14 8.611 14 6C14 2.686 11.314 0 8 0Z" fill="#BA9B48"/><path d="M8.724 5.07098L8.733 5.07498L8.742 5.08398L8.371 5.45398L8.224 5.60098V5.80798V13.291H7.776V5.80798V5.60098L7.629 5.45398L7.267 5.09198L7.284 5.07498L7.646 5.43698L8 5.79098L8.354 5.43698L8.716 5.07498C8.717 5.07398 8.719 5.07098 8.724 5.07098ZM8.724 4.57098C8.593 4.57098 8.462 4.62098 8.362 4.72098L8 5.08298L7.638 4.72098C7.538 4.62098 7.407 4.57098 7.276 4.57098C7.145 4.57098 7.014 4.62098 6.914 4.72098L6.552 5.08298L7.276 5.80698V13.79H8.724V5.80798L9.448 5.08398L9.086 4.72098C8.986 4.62098 8.855 4.57098 8.724 4.57098Z" fill="#fff"/><path d="M8 14C7.73478 14 7.48043 14.1054 7.29289 14.2929C7.10536 14.4804 7 14.7348 7 15C7 15.2652 7.10536 15.5196 7.29289 15.7071C7.48043 15.8946 7.73478 16 8 16C8.26522 16 8.51957 15.8946 8.70711 15.7071C8.89464 15.5196 9 15.2652 9 15C9 14.7348 8.89464 14.4804 8.70711 14.2929C8.51957 14.1054 8.26522 14 8 14V14Z" fill="#2D3540"/><path d="M7 14.5C6.725 14.5 6.5 14.275 6.5 14V12.5H9.5V14C9.5 14.275 9.275 14.5 9 14.5H7Z" fill="#DCD5F2"/><path d="M9 13V14H7V13H9ZM10 12H6V14C6 14.552 6.448 15 7 15H9C9.552 15 10 14.552 10 14V12Z" fill="#8B75A1"/></svg>