<svg width="14" height="14" xmlns="http://www.w3.org/2000/svg"><path d="M13,23.9921875 L13,22 L18,22 L18,27 L16.0078125,27 L16.0078125,23.9921875 L13,23.9921875 Z M16.0078125,16.0078125 L16.0078125,13 L18,13 L18,18 L13,18 L13,16.0078125 L16.0078125,16.0078125 Z M22,27 L22,22 L27,22 L27,23.9921875 L23.9921875,23.9921875 L23.9921875,27 L22,27 Z M23.9921875,16.0078125 L27,16.0078125 L27,18 L22,18 L22,13 L23.9921875,13 L23.9921875,16.0078125 Z" transform="translate(-13 -13)" fill="#000000" fill-rule="evenodd"/></svg>