<svg width="30" height="30" xmlns="http://www.w3.org/2000/svg"><path d="M9,25 L8.99994078,22.3945794 C5.41316522,20.3197144 3,16.4416697 3,12 C3,5.372583 8.372583,0 15,0 C21.627417,0 27,5.372583 27,12 C27,16.4412569 24.5872833,20.3189936 21.0010592,22.3940009 L21,25 C21,26.5976809 19.75108,27.9036609 18.1762728,27.9949073 L18,28 C18,29.1045695 17.1045695,30 16,30 L14,30 C12.8954305,30 12,29.1045695 12,28 C10.3431458,28 9,26.6568542 9,25 Z M15,3 C10.0294373,3 6,7.02943725 6,12 C6,15.1502533 7.62975978,18.0135455 10.2459009,19.6438771 L10.5021335,19.7977704 L11.9999014,20.6641938 L12,25 L18,25 L18.0017624,20.6634238 L19.4986163,19.7973366 C22.2637311,18.1974273 24,15.2515663 24,12 C24,7.02943725 19.9705627,3 15,3 Z M19.4,9.2 L20.6,10.8 L15.9061637,14.3203772 L13.906,12.321 L10.6,14.8 L9.4,13.2 L14.0938363,9.67962276 L16.094,11.679 L19.4,9.2 Z" fill="#F66969" fill-rule="nonzero"/></svg>