<svg width="30" height="30" xmlns="http://www.w3.org/2000/svg"><path d="M17.4778828,12.0187968 L17.4778828,12.0187968 C17.4925269,11.8478113 17.5,11.6747784 17.5,11.5 C17.5,8.1862915 14.8137085,5.5 11.5,5.5 C8.1862915,5.5 5.5,8.1862915 5.5,11.5 C5.5,14.5664886 7.8004205,17.0956851 10.7696716,17.4559997 L11.0455207,18.4854828 C7.39134522,18.2513083 4.5,15.2133091 4.5,11.5 C4.5,7.63400675 7.63400675,4.5 11.5,4.5 C15.3659932,4.5 18.5,7.63400675 18.5,11.5 C18.5,11.8612611 18.4726335,12.2161303 18.4198604,12.5626477 L17.4778828,12.0187968 Z M14.1537845,10.0996277 L14.1537845,10.0996277 C13.6507232,9.14827021 12.6510674,8.5 11.5,8.5 C11.2304422,8.5 10.969188,8.53555153 10.7206702,8.60222153 C10.2466567,8.67135091 9.81255644,8.91285245 9.49847841,9.26525628 C8.88561232,9.8145339 8.5,10.6122347 8.5,11.5 C8.5,12.5448126 9.03411079,13.464877 9.84418828,14.002049 L10.186432,15.2793198 C8.62252613,14.7358242 7.5,13.2490021 7.5,11.5 C7.5,9.290861 9.290861,7.5 11.5,7.5 C13.4864764,7.5 15.1347433,8.94804682 15.4468257,10.8461654 L14.1537845,10.0996277 Z M20.5727751,20.4464873 L23.339715,24.6570874 L20.9756827,26.5040719 L17.9243243,21.9294327 L15.2705142,26.5259666 L11,10.5881905 L25.6969385,19.0734718 L20.5727751,20.4464873 Z" fill-rule="nonzero" fill="#666666"/></svg>