<svg width="130" height="130" xmlns="http://www.w3.org/2000/svg"><g fill="none" fill-rule="evenodd"><g><circle fill="#FFFFFF" opacity=".5" cx="65" cy="65" r="65"/><path d="M46,22.6956522 C46,15.1317523 39.9558441,9 32.5,9 C25.0441559,9 19,15.1317523 19,22.6956522 L19,26 L46,26 L46,22.6956522 Z M10,26.0072971 L10,22.5842697 C10,10.1113219 20.0735931,0 32.5,0 C44.9264069,0 55,10.1113219 55,22.5842697 L55,26.0072971 C57.7858956,26.1528575 60,28.4578629 60,31.28 L60,67.72 C60,70.6360635 57.6360635,73 54.72,73 L10.28,73 C7.36393652,73 5,70.6360635 5,67.72 L5,31.28 C5,28.4578629 7.21410438,26.1528575 10,26.0072971 Z" fill="#EA1100" opacity=".2" transform="translate(38 22)"/><path d="M42,27.6956522 L42,32 L13,32 L13,27.6956522 C13,19.5826628 19.4886247,13 27.5,13 C35.5113753,13 42,19.5826628 42,27.6956522 Z M6,27.5842697 L6,31.9564121 L5.05217788,32.0059349 C2.7865309,32.1243128 1,34.0008881 1,36.28 L1,72.72 C1,75.0837787 2.91622127,77 5.28,77 L49.72,77 C52.0837787,77 54,75.0837787 54,72.72 L54,36.28 C54,34.0008881 52.2134691,32.1243128 49.9478221,32.0059349 L49,31.9564121 L49,27.5842697 C49,15.6627716 39.3732835,6 27.5,6 C15.6267165,6 6,15.6627716 6,27.5842697 Z" stroke="#EA1100" stroke-width="2" fill="#FFFFFF" transform="translate(38 22)"/><path d="M30,62.5 L30,55.4310208 L30.4608108,55.1359974 C32.0311871,54.1306005 33,52.3988437 33,50.5 C33,47.4624339 30.5375661,45 27.5,45 C24.4624339,45 22,47.4624339 22,50.5 C22,52.3988437 22.9688129,54.1306005 24.5391892,55.1359974 L25,55.4310208 L25,62.5 C25,63.8807119 26.1192881,65 27.5,65 C28.8807119,65 30,63.8807119 30,62.5 Z" stroke="#EA1100" stroke-width="2" fill-opacity=".2" fill="#EA1100" transform="translate(38 22)"/></g></g></svg>