<svg width="34" height="18" xmlns="http://www.w3.org/2000/svg"><path d="M5,14.9999406 C5,16.1045101 5.8954305,16.9999406 7,16.9999406 L31,16.9999406 C32.1045695,16.9999406 33,16.1045101 33,14.9999406 L33,3 C33,1.8954305 32.1045695,1 31,1 L7,1 C5.8954305,1 5,1.8954305 5,3 L5,8.99999484 L2,11.9999948 L5,14.9999406 Z M0.585780046,12.0000012 L4,8.58578127 L4,3 C4,1.34314575 5.34314575,0 7,0 L31,0 C32.6568542,0 34,1.34314575 34,3 L34,14.9999406 C34,16.6567949 32.6568542,17.9999406 31,17.9999406 L7,17.9999406 C5.49516688,17.9999406 4.24911593,16.8919624 4.03312701,15.4472859 L0.585780046,12.0000012 Z" fill="#000000" fill-rule="nonzero"/></svg>