<svg width="22" height="14" fill="none" xmlns="http://www.w3.org/2000/svg"><rect width="22" height="14" rx="4" fill="#000"/><path d="M10.6758 6.95703C10.6758 7.79297 10.5312 8.52734 10.2422 9.16016C9.95312 9.78906 9.53906 10.2734 9 10.6133C8.46484 10.9492 7.84766 11.1172 7.14844 11.1172C6.45703 11.1172 5.83984 10.9492 5.29688 10.6133C4.75781 10.2734 4.33984 9.79102 4.04297 9.16602C3.75 8.54102 3.60156 7.82031 3.59766 7.00391V6.52344C3.59766 5.69141 3.74414 4.95703 4.03711 4.32031C4.33398 3.68359 4.75 3.19727 5.28516 2.86133C5.82422 2.52148 6.44141 2.35156 7.13672 2.35156C7.83203 2.35156 8.44727 2.51953 8.98242 2.85547C9.52148 3.1875 9.9375 3.66797 10.2305 4.29688C10.5234 4.92188 10.6719 5.65039 10.6758 6.48242V6.95703ZM9.19336 6.51172C9.19336 5.56641 9.01367 4.8418 8.6543 4.33789C8.29883 3.83398 7.79297 3.58203 7.13672 3.58203C6.49609 3.58203 5.99414 3.83398 5.63086 4.33789C5.27148 4.83789 5.08789 5.54688 5.08008 6.46484V6.95703C5.08008 7.89453 5.26172 8.61914 5.625 9.13086C5.99219 9.64258 6.5 9.89844 7.14844 9.89844C7.80469 9.89844 8.30859 9.64844 8.66016 9.14844C9.01562 8.64844 9.19336 7.91797 9.19336 6.95703V6.51172ZM14.6016 7.31445L13.6348 8.33984V11H12.1523V2.46875H13.6348V6.4707L14.4551 5.45703L16.9512 2.46875H18.7441L15.5742 6.24805L18.9258 11H17.168L14.6016 7.31445Z" fill="#fff"/></svg>