<svg width="14" height="14" xmlns="http://www.w3.org/2000/svg"><path d="M63,13 L68,13 L68,18 L66.0188679,18 L66.0188679,14.9811321 L63,14.9811321 L63,13 Z M66.0188679,25.0188679 L66.0188679,22 L68,22 L68,27 L63,27 L63,25.0188679 L66.0188679,25.0188679 Z M54,18 L54,13 L59,13 L59,14.9811321 L55.9811321,14.9811321 L55.9811321,18 L54,18 Z M55.9811321,22 L55.9811321,25.0188679 L59,25.0188679 L59,27 L54,27 L54,22 L55.9811321,22 Z" transform="translate(-54 -13)" fill="#000000" fill-rule="evenodd"/></svg>