<svg width="30" height="30" xmlns="http://www.w3.org/2000/svg"><g fill="none" fill-rule="evenodd"><path fill="#666666" d="M7 11H23V19H7z"/><path fill="#FFFFFF" d="M8 12H22V18H8z"/><path d="M7,10 C6.44771525,10 6,10.4477153 6,11 L6,19 C6,19.5522847 6.44771525,20 7,20 L23,20 C23.5522847,20 24,19.5522847 24,19 L24,11 C24,10.4477153 23.5522847,10 23,10 L7,10 Z M7,8 L23,8 C24.6568542,8 26,9.34314575 26,11 L26,19 C26,20.6568542 24.6568542,22 23,22 L7,22 C5.34314575,22 4,20.6568542 4,19 L4,11 C4,9.34314575 5.34314575,8 7,8 Z" fill="#666666" fill-rule="nonzero"/></g></svg>