<svg width="20" height="20" xmlns="http://www.w3.org/2000/svg">
  <path d="m9.349 9.214 4.17 4.259c.198.205.061.506-.22.492l-1.736-.096 1.354 3.158c.068.144.014.301-.116.349l-.732.3c-.13.049-.266-.013-.335-.156l-1.305-3.234-1.115 1.23c-.191.22-.52.096-.512-.198l.075-5.92c.014-.273.287-.376.472-.184zm-2.912 4.183a.607.607 0 0 1 0 .841l-1.409 1.408a.615.615 0 0 1-.847-.006.6.6 0 0 1 .006-.841l1.409-1.402c.232-.225.622-.225.84 0zm-1.84-3.575c.322 0 .595.274.595.595a.604.604 0 0 1-.594.595H2.595A.604.604 0 0 1 2 10.417c0-.321.273-.595.595-.595h2.003zm11.642 0c.322 0 .595.274.595.595a.604.604 0 0 1-.595.595h-1.996a.604.604 0 0 1-.595-.595c0-.321.274-.595.595-.595h1.996zm-1.593-4.634a.602.602 0 0 1 0 .847l-1.408 1.408a.602.602 0 0 1-.847 0 .607.607 0 0 1 0-.84l1.415-1.415a.607.607 0 0 1 .84 0zm-9.68-.062 1.402 1.408a.607.607 0 0 1 0 .841.594.594 0 0 1-.84 0L4.125 5.96a.607.607 0 0 1 0-.84.607.607 0 0 1 .84.006zM9.418 3c.321 0 .595.273.595.595V5.59a.604.604 0 0 1-.595.595.604.604 0 0 1-.595-.595V3.595c0-.322.274-.595.595-.595z" fill="#BDBDBD" fill-rule="nonzero"/>
</svg>
