<?xml version="1.0" encoding="UTF-8"?>
<svg width="16px" height="16px" viewBox="0 0 16 16" version="1.1" xmlns="http://www.w3.org/2000/svg" xmlns:xlink="http://www.w3.org/1999/xlink">
    <title>C59B1F82-97F0-4D8F-B10C-F174F151FF33</title>
    <g id="ACTIVITY-TRACKING" stroke="none" stroke-width="1" fill="none" fill-rule="evenodd">
        <g id="apty-studio-4.9__activity-tracking__specs--mouseover" transform="translate(-1672.000000, -72.000000)" fill="#828282" fill-rule="nonzero">
            <g id="Group" transform="translate(1180.000000, 40.000000)">
                <g id="studio/row/icon/cancel" transform="translate(492.000000, 32.000000)">
                    <path d="M8,0 C12.418278,0 16,3.581722 16,8 C16,12.418278 12.418278,16 8,16 C3.581722,16 0,12.418278 0,8 C0,3.581722 3.581722,0 8,0 Z M8,2 C4.6862915,2 2,4.6862915 2,8 C2,11.3137085 4.6862915,14 8,14 C11.3137085,14 14,11.3137085 14,8 C14,4.6862915 11.3137085,2 8,2 Z M10.1213203,4.46446609 L11.5355339,5.87867966 L9.414,8 L11.5355339,10.1213203 L10.1213203,11.5355339 L8,9.414 L5.87867966,11.5355339 L4.46446609,10.1213203 L6.586,8 L4.46446609,5.87867966 L5.87867966,4.46446609 L8,6.586 L10.1213203,4.46446609 Z" id="Combined-Shape"></path>
                </g>
            </g>
        </g>
    </g>
</svg>