<svg width="20" height="20" xmlns="http://www.w3.org/2000/svg">
  <path d="M15.872 3c.308 0 .472.137.472.39 0 .26-.164.403-.472.403h-1.538v12.64h1.538c.308 0 .472.136.472.396 0 .253-.164.403-.472.403H11.88c-.315 0-.472-.15-.472-.403 0-.26.157-.396.472-.396h1.531V3.793H11.88c-.315 0-.472-.144-.472-.403 0-.253.157-.39.472-.39h3.992zm-5.441 2.249c.341 0 .588.226.588.574 0 .349-.247.574-.588.574H7.655v8.142c0 .397-.26.643-.65.643-.389 0-.635-.246-.635-.643V6.397H3.595c-.349 0-.595-.225-.595-.574 0-.348.246-.574.595-.574h6.836z" fill="#BDBDBD" fill-rule="nonzero"/>
</svg>
