<?xml version="1.0" encoding="UTF-8"?>
<svg width="14px" height="14px" viewBox="0 0 14 14" version="1.1" xmlns="http://www.w3.org/2000/svg" xmlns:xlink="http://www.w3.org/1999/xlink">
    <title>B14CEFB6-D06F-4228-8498-B747246E7090</title>
    <g id="ACTIVITY-TRACKING" stroke="none" stroke-width="1" fill="none" fill-rule="evenodd">
        <g id="apty-studio-4.9__activity-tracking__specs--mouseover" transform="translate(-1253.000000, -73.000000)" fill="#828282" fill-rule="nonzero">
            <g id="Group" transform="translate(1180.000000, 40.000000)">
                <g id="studio/row/icon/optional-start" transform="translate(73.000000, 33.000000)">
                    <path d="M12,0 C13.1045695,0 14,0.8954305 14,2 L14,12 C14,13.1045695 13.1045695,14 12,14 L2,14 C0.8954305,14 0,13.1045695 0,12 L0,2 C0,0.8954305 0.8954305,0 2,0 L12,0 Z M12,2 L2,2 L2,12 L12,12 L12,2 Z M5,4 L10,7 L5,10 L5,4 Z" id="Combined-Shape"></path>
                </g>
            </g>
        </g>
    </g>
</svg>