<?xml version="1.0" encoding="UTF-8"?>
<svg width="30px" height="30px" viewBox="0 0 30 30" version="1.1" xmlns="http://www.w3.org/2000/svg" xmlns:xlink="http://www.w3.org/1999/xlink">
    <!-- Generator: Sketch 46.2 (44496) - http://www.bohemiancoding.com/sketch -->
    <title>sidebar/nextstep-selector/type-icon</title>
    <desc>Created with Sketch.</desc>
    <defs></defs>
    <g id="Symbols" stroke="none" stroke-width="1" fill="none" fill-rule="evenodd">
        <g id="sidebar/nextstep-selector/type-icon" fill="#666666">
            <path d="M15,7.281251 C13.975692,5.94599238 12.3090385,5.19690293 10,5.03396843 L10,7.03901046 C12.6666787,7.25933785 14.000001,8.41299318 14.000001,10.5000015 L14.000001,14.9999985 L11.9999995,14.9999985 L11.9999995,17 L14.000001,17 L14.000001,19.4999985 C14.000001,21.5870081 12.6666787,22.7406635 10,22.9609909 L10,24.9660316 C12.3090385,24.8030973 13.975692,24.0540087 15,22.7187501 C16.0243078,24.0540085 17.6909611,24.8030972 20,24.9660316 L20,22.9609909 C17.3333209,22.7406633 15.999999,21.5870079 15.999999,19.4999985 L15.9999989,17 L18.0000005,17 L18.0000005,14.9999985 L15.9999989,14.9999985 L15.9999989,10.5000015 C15.9999989,8.41299335 17.3333209,7.25933804 20,7.03901052 L20,5.03396847 C17.6909611,5.19690306 16.0243078,5.9459925 15,7.281251 Z" id="Combined-Shape"></path>
        </g>
    </g>
</svg>