
<?xml version="1.0" encoding="UTF-8"?>
<svg width="30px" height="30px" viewBox="0 0 30 30" version="1.1" xmlns="http://www.w3.org/2000/svg" xmlns:xlink="http://www.w3.org/1999/xlink">
    <!-- Generator: sketchtool 60 (101010) - https://sketch.com -->
    <title>23209FEA-85A9-440E-B7AB-1BB9F0288338</title>
    <desc>Created with sketchtool.</desc>
    <g id="Asset-Artboard-Page" stroke="none" stroke-width="1" fill="none" fill-rule="evenodd">
        <g id="tool-icon/md/Announcements" fill="#CF7CEF" fill-rule="nonzero">
            <path d="M26,2 C27.6568542,2 29,3.34314575 29,5 L29,20 C29,21.6568542 27.6568542,23 26,23 L25,23 L25,29 L23,29 L23,23 L7,23 L7,29 L5,29 L5,23 L4,23 C2.34314575,23 1,21.6568542 1,20 L1,5 C1,3.34314575 2.34314575,2 4,2 L26,2 Z M26,5 L4,5 L4,20 L26,20 L26,5 Z M14,7 L14,9 L8,9 L8,12 L6,12 L6,7 L14,7 Z" id="Shape"></path>
        </g>
    </g>
</svg>
