<?xml version="1.0" encoding="UTF-8"?>
<svg width="24px" height="24px" viewBox="0 0 24 24" version="1.1" xmlns="http://www.w3.org/2000/svg" xmlns:xlink="http://www.w3.org/1999/xlink">
    <!-- Generator: Sketch 48.2 (47327) - http://www.bohemiancoding.com/sketch -->
    <title>announcements--icon__decision-point</title>
    <desc>Created with Sketch.</desc>
    <defs></defs>
    <g id="Symbols" stroke="none" stroke-width="1" fill="none" fill-rule="evenodd">
        <g id="announcements--icon__decision-point" fill="#A86BE5" fill-rule="nonzero">
            <path d="M12,22 C17.5228475,22 22,17.5228475 22,12 C22,6.4771525 17.5228475,2 12,2 C6.4771525,2 2,6.4771525 2,12 C2,17.5228475 6.4771525,22 12,22 Z M12,24 C5.372583,24 0,18.627417 0,12 C0,5.372583 5.372583,0 12,0 C18.627417,0 24,5.372583 24,12 C24,18.627417 18.627417,24 12,24 Z" id="Combined-Shape"></path>
            <path d="M15,15 L15.8666667,15 C16.5375464,15 17,14.6349051 17,14.3157895 L17,9.68421053 C17,9.36509494 16.5375464,9 15.8666667,9 L10.8292943,9 C10.4174579,10.1651924 9.30621883,11 8,11 C6.34314575,11 5,9.65685425 5,8 C5,6.34314575 6.34314575,5 8,5 C9.30621883,5 10.4174579,5.83480763 10.8292943,7 L15.8666667,7 C17.5522019,7 19,8.14299854 19,9.68421053 L19,14.3157895 C19,15.8570015 17.5522019,17 15.8666667,17 L15,17 L15,19 L12,16 L15,13 L15,15 Z M8,9 C8.55228475,9 9,8.55228475 9,8 C9,7.44771525 8.55228475,7 8,7 C7.44771525,7 7,7.44771525 7,8 C7,8.55228475 7.44771525,9 8,9 Z M8,17 C8.55228475,17 9,16.5522847 9,16 C9,15.4477153 8.55228475,15 8,15 C7.44771525,15 7,15.4477153 7,16 C7,16.5522847 7.44771525,17 8,17 Z M8,19 C6.34314575,19 5,17.6568542 5,16 C5,14.3431458 6.34314575,13 8,13 C9.65685425,13 11,14.3431458 11,16 C11,17.6568542 9.65685425,19 8,19 Z" id="Combined-Shape"></path>
        </g>
    </g>
</svg>
