<?xml version="1.0" encoding="UTF-8"?>
<svg width="24px" height="24px" viewBox="0 0 24 24" version="1.1" xmlns="http://www.w3.org/2000/svg" xmlns:xlink="http://www.w3.org/1999/xlink">
    <!-- Generator: Sketch 48.2 (47327) - http://www.bohemiancoding.com/sketch -->
    <title>announcements--icon__compare</title>
    <desc>Created with Sketch.</desc>
    <defs></defs>
    <g id="Symbols" stroke="none" stroke-width="1" fill="none" fill-rule="evenodd">
        <g id="announcements--icon__compare" fill="#A86BE5">
            <path d="M12,22 C17.5228475,22 22,17.5228475 22,12 C22,6.4771525 17.5228475,2 12,2 C6.4771525,2 2,6.4771525 2,12 C2,17.5228475 6.4771525,22 12,22 Z M12,24 C5.372583,24 0,18.627417 0,12 C0,5.372583 5.372583,0 12,0 C18.627417,0 24,5.372583 24,12 C24,18.627417 18.627417,24 12,24 Z" id="Combined-Shape" fill-rule="nonzero"></path>
            <path d="M6.57142857,9 L5,9 L5,7 L19,7 L19,9 L17.4285714,9 L20,14.3333333 C20,15.8060927 18.6568542,17 17,17 C15.3431458,17 14,15.8060927 14,14.3333333 L16.5714286,9 L13,9 L13,19 L11,19 L11,9 L7.42857143,9 L10,14.3333333 C10,15.8060927 8.65685425,17 7,17 C5.34314575,17 4,15.8060927 4,14.3333333 L6.57142857,9 Z M15.2708772,14 L18.7291228,14 L17,10.4136713 L15.2708772,14 Z M5.27087722,14 L8.72912278,14 L7,10.4136713 L5.27087722,14 Z" id="Combined-Shape"></path>
        </g>
    </g>
</svg>
