<svg width="16" height="16" viewBox="0 0 16 16" fill="none" xmlns="http://www.w3.org/2000/svg">
<path fill-rule="evenodd" clip-rule="evenodd" d="M15.7188 8C15.7188 3.73705 12.2629 0.28125 8 0.28125C3.73705 0.28125 0.28125 3.73705 0.28125 8C0.28125 12.2629 3.73705 15.7188 8 15.7188C12.2629 15.7188 15.7188 12.2629 15.7188 8Z" fill="url(#paint0_linear)"/>
<path fill-rule="evenodd" clip-rule="evenodd" d="M4.14062 9.72832C4.14062 9.52668 4.15837 9.31993 4.19429 9.1083C4.22979 8.89689 4.32342 8.63154 4.47512 8.31247C4.62681 7.99368 4.83354 7.71367 5.09525 7.47274C5.357 7.23207 5.74383 7.02529 6.25531 6.85272C6.76676 6.68038 7.37055 6.59394 8.06654 6.59394C8.56206 6.59394 9.09303 6.63958 9.65909 6.73067C9.65909 5.46129 9.01897 4.82661 7.73914 4.82661C6.71708 4.82661 5.82897 4.99599 5.07489 5.33436V3.36193C5.91195 3.0236 6.84132 2.85419 7.86292 2.85419C9.15648 2.85419 10.1462 3.21717 10.8316 3.94293C11.5169 4.66892 11.8594 5.71856 11.8594 7.09192V9.78692C11.8594 10.7048 11.5475 11.4942 10.9242 12.1548C10.301 12.8156 9.34235 13.1459 8.04883 13.1459C6.71044 13.1459 5.7243 12.8139 5.09085 12.1499C4.45737 11.4859 4.14062 10.6789 4.14062 9.72832ZM6.32316 9.42563C6.32316 10.4934 6.89233 11.027 8.03108 11.027H8.04883C9.13429 11.027 9.67684 10.5226 9.67684 9.51349V8.25387C9.16934 8.17578 8.73597 8.13356 8.37619 8.12699C7.01342 8.12699 6.32893 8.56002 6.32316 9.42563Z" fill="white"/>
<defs>
<linearGradient id="paint0_linear" x1="8" y1="0.28125" x2="8" y2="15.7187" gradientUnits="userSpaceOnUse">
<stop stop-color="#FF511F"/>
<stop offset="1" stop-color="#E12900"/>
</linearGradient>
</defs>
</svg>
