<svg xmlns="http://www.w3.org/2000/svg" viewBox="0 0 228 94.2"><defs><style>.cls-1{fill:#fff;}</style></defs><title>Asset 1</title><g id="Layer_2" data-name="Layer 2"><g id="Layer_1-2" data-name="Layer 1"><path class="cls-1" d="M0,52.4C0,39.8,8.3,33.5,25,33.5a106.72,106.72,0,0,1,16,1.2V28.9c0-7.1-5.5-10.6-16.6-10.6A67,67,0,0,0,5,21.2V12.4A67.71,67.71,0,0,1,24.5,9.5C42.8,9.5,52,15.8,52,28.6V71H45.7L42,64.9A35.44,35.44,0,0,1,22,71C7.4,71,0,64.8,0,52.4ZM23,42.3c-9.4,0-14.1,3.3-14.1,10s3.7,10,11.1,10,13.8-2,19-6V43.4a122.9,122.9,0,0,0-16-1.1ZM78,58.4a31.73,31.73,0,0,0,14.2,3.2c12.8,0,19.2-7.7,19.2-23,0-13.4-6.3-20.1-19-20.1A63.93,63.93,0,0,0,78,19.9ZM67,11.7A130.92,130.92,0,0,1,92.7,9.2c20,0,30,9.7,30,29.2q0,32.25-30.2,32.3A37.9,37.9,0,0,1,78,67.8V93H67ZM134,0h6.9l2.4,10H160v8H145V53.4c0,5.8,2.5,8.6,7.4,8.6H160v9H149.6C139.2,71,134,65.3,134,54Zm35.4,10h11.7l17.4,48,18-48H228L202.4,73.3c-4.5,11.2-11.3,18.1-20.4,20.9l-4.2-7.7a28.37,28.37,0,0,0,15-14.7Z"/></g></g></svg>