<?xml version="1.0" encoding="UTF-8"?>
<svg width="30px" height="30px" viewBox="0 0 30 30" version="1.1" xmlns="http://www.w3.org/2000/svg" xmlns:xlink="http://www.w3.org/1999/xlink">
    <!-- Generator: sketchtool 60 (101010) - https://sketch.com -->
    <title>A9353851-2035-4F8F-B00E-941C7C37DE72</title>
    <desc>Created with sketchtool.</desc>
    <g id="Asset-Artboard-Page" stroke="none" stroke-width="1" fill="none" fill-rule="evenodd">
        <g id="tool-icon/md/Automation" fill="#F2739C">
            <path d="M16,26 L16,29 L14,29 L14,26 L16,26 Z M12,26 L12,29 L10,29 L10,26 L12,26 Z M20,26 L20,29 L18,29 L18,26 L20,26 Z M22,5 C23.6568542,5 25,6.34314575 25,8 L25,22 C25,23.6568542 23.6568542,25 22,25 L8,25 C6.34314575,25 5,23.6568542 5,22 L5,8 C5,6.34314575 6.34314575,5 8,5 L22,5 Z M22,8 L8,8 L8,22 L22,22 L22,8 Z M29,18 L29,20 L26,20 L26,18 L29,18 Z M4,18 L4,20 L1,20 L1,18 L4,18 Z M20,15 L20,20 L15,20 L15,18 L18,18 L18,15 L20,15 Z M29,14 L29,16 L26,16 L26,14 L29,14 Z M4,14 L4,16 L1,16 L1,14 L4,14 Z M29,10 L29,12 L26,12 L26,10 L29,10 Z M4,10 L4,12 L1,12 L1,10 L4,10 Z M16,1 L16,4 L14,4 L14,1 L16,1 Z M12,1 L12,4 L10,4 L10,1 L12,1 Z M20,1 L20,4 L18,4 L18,1 L20,1 Z" id="Shape"></path>
        </g>
    </g>
</svg>
