<?xml version="1.0" encoding="UTF-8"?>
<svg width="30px" height="22px" viewBox="0 0 30 22" version="1.1" xmlns="http://www.w3.org/2000/svg" xmlns:xlink="http://www.w3.org/1999/xlink">
    <!-- Generator: Sketch 47 (45396) - http://www.bohemiancoding.com/sketch -->
    <title>tooltip-vertical-center</title>
    <desc>Created with Sketch.</desc>
    <defs></defs>
    <g id="Editor-UI" stroke="none" stroke-width="1" fill="none" fill-rule="evenodd">
        <path d="M18.0000542,16.9999406 L27,16.9999406 C28.1045695,16.9999406 29,16.1045101 29,14.9999406 L29,3 C29,1.8954305 28.1045695,1 27,1 L3,1 C1.8954305,1 1,1.8954305 1,3 L1,14.9999406 C1,16.1045101 1.8954305,16.9999406 3,16.9999406 L11.9999458,16.9999406 L15,19.9999948 L18.0000542,16.9999406 Z M15,21.4142084 L11.5857322,17.9999406 L3,17.9999406 C1.34314575,17.9999406 0,16.6567949 0,14.9999406 L0,3 C0,1.34314575 1.34314575,0 3,0 L27,0 C28.6568542,0 30,1.34314575 30,3 L30,14.9999406 C30,16.6567949 28.6568542,17.9999406 27,17.9999406 L18.4142678,17.9999406 L15,21.4142084 Z" id="tooltip-vertical-center" fill="#000000" fill-rule="nonzero"></path>
    </g>
</svg>