<?xml version="1.0" encoding="UTF-8"?>
<svg width="15px" height="16px" viewBox="0 0 15 16" version="1.1" xmlns="http://www.w3.org/2000/svg" xmlns:xlink="http://www.w3.org/1999/xlink">
    <!-- Generator: sketchtool 57 (101010) - https://sketch.com -->
    <title>FD3D690F-4113-4070-9FDF-7634F979BF04</title>
    <desc>Created with sketchtool.</desc>
    <g id="apty-lens" stroke="none" stroke-width="1" fill="none" fill-rule="evenodd" opacity="0.5">
        <g id="apty-lens--activity" transform="translate(-1756.000000, -521.000000)" fill="#BDBDBD" fill-rule="nonzero">
            <g id="Group-16-Copy" transform="translate(1516.000000, 260.000000)">
                <g id="Group-20-Copy-2" transform="translate(0.000000, 44.000000)">
                    <g id="Group-10">
                        <g id="lens-usecase-row-copy-4" transform="translate(0.000000, 200.000000)">
                            <g id="chars" transform="translate(237.000000, 15.000000)">
                                <path d="M16.6152344,2.92773438 C16.9228516,2.92773438 17.0869141,3.06445312 17.0869141,3.31738281 C17.0869141,3.57714844 16.9228516,3.72070312 16.6152344,3.72070312 L15.0771484,3.72070312 L15.0771484,16.3603516 L16.6152344,16.3603516 C16.9228516,16.3603516 17.0869141,16.4970703 17.0869141,16.7568359 C17.0869141,17.0097656 16.9228516,17.1601562 16.6152344,17.1601562 L12.6230469,17.1601562 C12.3085938,17.1601562 12.1513672,17.0097656 12.1513672,16.7568359 C12.1513672,16.4970703 12.3085938,16.3603516 12.6230469,16.3603516 L14.1542969,16.3603516 L14.1542969,3.72070312 L12.6230469,3.72070312 C12.3085938,3.72070312 12.1513672,3.57714844 12.1513672,3.31738281 C12.1513672,3.06445312 12.3085938,2.92773438 12.6230469,2.92773438 L16.6152344,2.92773438 Z M11.1738281,5.17675781 C11.515625,5.17675781 11.7617188,5.40234375 11.7617188,5.75097656 C11.7617188,6.09960938 11.515625,6.32519531 11.1738281,6.32519531 L8.3984375,6.32519531 L8.3984375,14.4667969 C8.3984375,14.8632812 8.13867188,15.109375 7.74902344,15.109375 C7.359375,15.109375 7.11328125,14.8632812 7.11328125,14.4667969 L7.11328125,6.32519531 L4.33789062,6.32519531 C3.98925781,6.32519531 3.74316406,6.09960938 3.74316406,5.75097656 C3.74316406,5.40234375 3.98925781,5.17675781 4.33789062,5.17675781 L11.1738281,5.17675781 Z" id="Combined-Shape"></path>
                            </g>
                        </g>
                    </g>
                </g>
            </g>
        </g>
    </g>
</svg>