<?xml version="1.0" encoding="UTF-8"?>
<svg width="20px" height="20px" viewBox="0 0 20 20" version="1.1" xmlns="http://www.w3.org/2000/svg" xmlns:xlink="http://www.w3.org/1999/xlink">
    <!-- Generator: sketchtool 60 (101010) - https://sketch.com -->
    <title>95B96920-2EE1-482A-972A-78BFCB7C8BCF</title>
    <desc>Created with sketchtool.</desc>
    <g id="Asset-Artboard-Page" stroke="none" stroke-width="1" fill="none" fill-rule="evenodd">
        <g id="clicks-lens-usecase-row/icon/click" fill="#BDBDBD" fill-rule="nonzero">
            <path d="M9.57226563,8.83398437 L13.7421875,13.0927734 C13.9404297,13.2978516 13.8037109,13.5986328 13.5234375,13.5849609 L11.7871094,13.4892578 L13.140625,16.6474609 C13.2089844,16.7910156 13.1542969,16.9482422 13.0244141,16.9960937 L12.2929688,17.296875 C12.1630859,17.3447266 12.0263672,17.2832031 11.9580078,17.1396484 L10.6523438,13.90625 L9.53808594,15.1367187 C9.34667969,15.3554687 9.01855469,15.2324219 9.02539063,14.9384766 L9.10058594,9.01855469 C9.11425781,8.74511719 9.38769531,8.64257812 9.57226563,8.83398437 Z M6.66015625,13.0175781 C6.88574219,13.25 6.88574219,13.6328125 6.66015625,13.8583984 L5.25195313,15.2666016 C5.01953125,15.4921875 4.62988281,15.4853516 4.40429688,15.2597656 C4.17871094,15.0341797 4.17871094,14.6445312 4.41113281,14.4189453 L5.81933594,13.0175781 C6.05175781,12.7919922 6.44140625,12.7919922 6.66015625,13.0175781 Z M4.82128906,9.44238281 C5.14257812,9.44238281 5.41601562,9.71582031 5.41601562,10.0371094 C5.41601562,10.3583984 5.14257812,10.6318359 4.82128906,10.6318359 L2.81835938,10.6318359 C2.49707031,10.6318359 2.22363281,10.3583984 2.22363281,10.0371094 C2.22363281,9.71582031 2.49707031,9.44238281 2.81835938,9.44238281 L4.82128906,9.44238281 Z M16.4628906,9.44238281 C16.7841797,9.44238281 17.0576172,9.71582031 17.0576172,10.0371094 C17.0576172,10.3583984 16.7841797,10.6318359 16.4628906,10.6318359 L14.4667969,10.6318359 C14.1455078,10.6318359 13.8720703,10.3583984 13.8720703,10.0371094 C13.8720703,9.71582031 14.1455078,9.44238281 14.4667969,9.44238281 L16.4628906,9.44238281 Z M14.8701172,4.80761719 C15.1025391,5.04003906 15.1025391,5.42285156 14.8701172,5.65527344 L13.4619141,7.06347656 C13.2294922,7.29589844 12.8466797,7.29589844 12.6142578,7.06347656 C12.3886719,6.83789062 12.3886719,6.45507812 12.6142578,6.22265625 L14.0292969,4.80761719 C14.2617188,4.58203125 14.6445312,4.58203125 14.8701172,4.80761719 Z M5.19042969,4.74609375 L6.59179688,6.15429687 C6.81738281,6.38671875 6.81738281,6.76953125 6.59179688,6.99511719 C6.359375,7.22753906 5.9765625,7.22753906 5.75097656,6.99511719 L4.34960938,5.58007812 C4.12402344,5.34765625 4.12402344,4.96484375 4.34960938,4.73925781 C4.58203125,4.51367187 4.96484375,4.52050781 5.19042969,4.74609375 Z M9.640625,2.62011719 C9.96191406,2.62011719 10.2353516,2.89355469 10.2353516,3.21484375 L10.2353516,5.2109375 C10.2353516,5.53222656 9.96191406,5.80566406 9.640625,5.80566406 C9.31933594,5.80566406 9.04589844,5.53222656 9.04589844,5.2109375 L9.04589844,3.21484375 C9.04589844,2.89355469 9.31933594,2.62011719 9.640625,2.62011719 Z" id="Combined-Shape"></path>
        </g>
    </g>
</svg>