<?xml version="1.0" encoding="UTF-8"?>
<svg width="11px" height="14px" viewBox="0 0 11 14" version="1.1" xmlns="http://www.w3.org/2000/svg" xmlns:xlink="http://www.w3.org/1999/xlink">
    <title>clipboard-icon</title>
    <g id="assist-studio" stroke="none" stroke-width="1" fill="none" fill-rule="evenodd" opacity="0.800000012">
        <g id="apty-edit-frame-warning-msg" transform="translate(-701.000000, -456.000000)" fill="#000000" fill-rule="nonzero">
            <g id="Group-74" transform="translate(480.000000, 256.000000)">
                <g id="Group-77" transform="translate(20.000000, 188.000000)">
                    <g id="Group-76" transform="translate(193.000000, 6.000000)">
                        <path d="M12.500001,6 C11.8651018,6.00100158 11.299527,6.40140506 11.0878918,6.99998824 L10.500001,6.99998824 L10.500001,9 L14.500001,9 L14.500001,6.99998824 L13.9130886,6.99998824 C13.7013335,6.4010649 13.1352623,6.00047244 12.500001,6 L12.500001,6 Z M8,7.99999537 L8,18.00001 L11,18.00001 L11,20.0000054 L19,20.0000054 L19,19.5000113 L19,10.9999954 L17,10.9999954 L17,7.99999537 L15.5,7.99999537 L15.5,9.99999537 L9.5,9.99999537 L9.5,7.99999537 L8,7.99999537 Z M12.0000017,12.000005 L18.0000017,12.000005 L18.0000017,19.000005 L12.0000017,19.000005 L12.0000017,12.000005 Z M13.0000022,12.9999933 L13.0000022,14.0000004 L17.0000022,14.0000004 L17.0000022,12.9999933 L13.0000022,12.9999933 Z M13.0000022,15.0000075 L13.0000022,15.9999958 L17.0000022,15.9999958 L17.0000022,15.0000075 L13.0000022,15.0000075 Z M13.0000022,17.0000029 L13.0000022,18.00001 L17.0000022,18.00001 L17.0000022,17.0000029 L13.0000022,17.0000029 Z" id="clipboard-icon"></path>
                    </g>
                </g>
            </g>
        </g>
    </g>
</svg>