<svg width="20" height="20" viewBox="0 0 20 20" fill="none" xmlns="http://www.w3.org/2000/svg">
<path d="M19.6914 10C19.6914 4.64844 15.3516 0.308594 10 0.308594C4.64844 0.308594 0.308594 4.64844 0.308594 10C0.308594 15.3516 4.64844 19.6914 10 19.6914C15.3516 19.6914 19.6914 15.3516 19.6914 10Z" fill="black"/>
<path d="M11.1328 9.99995L13.9648 6.71089C14.2734 6.35151 14.2344 5.81245 13.875 5.49995C13.5156 5.19135 12.9766 5.23042 12.668 5.58979L9.99999 8.68745L7.33594 5.5937C7.02734 5.23432 6.48438 5.19526 6.125 5.50385C5.76563 5.81245 5.72656 6.35542 6.03516 6.71479L8.86718 9.99995L6.03516 13.289C5.72656 13.6484 5.76563 14.1874 6.125 14.4999C6.28516 14.6406 6.48438 14.707 6.68359 14.707C6.92578 14.707 7.16406 14.6054 7.33203 14.4101L9.99609 11.3164L12.6601 14.4101C12.8281 14.6054 13.0703 14.707 13.3086 14.707C13.5078 14.707 13.707 14.6406 13.8672 14.4999C14.2266 14.1914 14.2656 13.6484 13.957 13.289L11.1328 9.99995Z" fill="white"/>
</svg>
