<svg width="24" height="24" viewBox="0 0 30 30" fill="none" xmlns="http://www.w3.org/2000/svg">
  <path d="M15 6C13.8997 6 13 6.89974 13 8C13 9.10026 13.8997 10 15 10C16.1003 10 17 9.10026 17 8C17 6.89974 16.1003 6 15 6ZM15 13.3333C13.8997 13.3333 13 14.2331 13 15.3333C13 16.4336 13.8997 17.3333 15 17.3333C16.1003 17.3333 17 16.4336 17 15.3333C17 14.2331 16.1003 13.3333 15 13.3333ZM15 20.6667C13.8997 20.6667 13 21.5664 13 22.6667C13 23.7669 13.8997 24.6667 15 24.6667C16.1003 24.6667 17 23.7669 17 22.6667C17 21.5664 16.1003 20.6667 15 20.6667Z" fill="#828282"/>
</svg>
