<?xml version="1.0" encoding="UTF-8"?>
<svg width="127px" height="60px" viewBox="0 0 127 60" version="1.1" xmlns="http://www.w3.org/2000/svg" xmlns:xlink="http://www.w3.org/1999/xlink">
    <!-- Generator: sketchtool 54.1 (76490) - https://sketchapp.com -->
    <title>3001CF00-E037-4A61-8DA1-ADB15A71C941</title>
    <desc>Created with sketchtool.</desc>
    <g id="Page-1" stroke="none" stroke-width="1" fill="none" fill-rule="evenodd">
        <g id="apty-desktopeditor__home--rebrand" transform="translate(-196.000000, -261.000000)" fill="#FF4001">
            <path d="M204.561769,294.367625 C204.561769,298.180065 206.794285,300.085367 211.261518,300.085367 L211.330849,300.085367 C215.589357,300.085367 217.717327,298.284792 217.717327,294.681439 L217.717327,290.184046 C215.726917,289.905141 214.026669,289.75448 212.615114,289.730595 C207.269328,289.730595 204.584512,291.276884 204.561769,294.367625 Z M196,295.448337 C196,294.728475 196.069697,293.990239 196.210559,293.234733 C196.349587,292.479594 196.716782,291.532272 197.312144,290.393133 C197.90714,289.254729 198.718197,288.255227 199.744949,287.394993 C200.771701,286.535495 202.288902,285.797259 204.295085,285.181022 C206.301635,284.565887 208.670244,284.257217 211.400546,284.257217 C213.344002,284.257217 215.427219,284.420004 217.64763,284.74521 C217.64763,280.212907 215.136691,277.946756 210.116281,277.946756 C206.106849,277.946756 202.623082,278.551602 199.664613,279.759824 L199.664613,272.717374 C202.948826,271.509152 206.593997,270.904306 210.601961,270.904306 C215.676295,270.904306 219.558437,272.200352 222.246921,274.791709 C224.935405,277.383801 226.279096,281.131567 226.279096,286.035376 L226.279096,295.657791 C226.279096,298.934836 225.055724,301.753654 222.610815,304.112038 C220.165538,306.471525 216.405183,307.650718 211.330849,307.650718 C206.080804,307.650718 202.212602,306.465278 199.727341,304.094767 C197.242447,301.723889 196,298.842603 196,295.448337 Z M239.571554,300.5619 C241.542126,300.841065 243.29346,300.980831 244.823724,300.980831 C247.583625,300.980831 249.688379,300.172761 251.137253,298.555149 C252.585761,296.938641 253.311298,294.083361 253.311298,289.988206 C253.311298,285.800731 252.766504,282.776996 251.676548,280.915161 C250.58586,279.054429 248.684579,278.123511 245.971605,278.123511 C241.705271,278.123511 239.571554,279.403477 239.571554,281.962305 L239.571554,300.5619 Z M231.014689,320.138756 L231.014689,282.764858 C231.014689,279.484394 232.23736,276.664056 234.684536,274.302372 C237.131711,271.941791 240.893212,270.760766 245.971605,270.760766 C247.149182,270.760766 248.32126,270.853821 249.486739,271.039563 C250.653684,271.226408 252.025935,271.714855 253.608259,272.505271 C255.189482,273.29679 256.545969,274.320027 257.678086,275.576085 C258.808736,276.832511 259.789439,278.676692 260.620929,281.107156 C261.452418,283.538723 261.867797,286.347659 261.867797,289.5347 C261.867797,295.372889 260.448618,299.856815 257.608428,302.986479 C254.766772,306.11651 250.703911,307.68079 245.415079,307.68079 C243.42031,307.68079 241.472835,307.469669 239.571554,307.045589 L239.571554,320.138756 L231.014689,320.138756 Z M263.446328,278.881125 L263.446328,271.54087 L269.42973,271.54087 L269.42973,261 L277.987923,261 L277.987923,271.54087 L286.40678,271.54087 L286.40678,278.881125 L277.987923,278.881125 L277.987923,296.414286 C277.987923,297.94511 278.306197,298.97727 278.944944,299.5104 C279.583326,300.044264 280.713784,300.310462 282.336688,300.310462 C283.867189,300.310462 285.224253,300.05563 286.40678,299.545233 L286.40678,306.607191 C284.736942,307.302753 282.916034,307.650718 280.945156,307.650718 L280.770986,307.650718 C277.245406,307.650718 274.474443,306.607191 272.456631,304.51977 C270.438819,302.432349 269.42973,299.557333 269.42973,295.892522 L269.42973,278.881125 L263.446328,278.881125 Z M289.563842,271.334928 L298.645222,271.334928 L306.612516,296.123933 L314.440825,271.334928 L323,271.334928 L309.952942,307.825801 C308.051147,313.006509 305.986164,316.497784 303.759458,318.298891 C301.532752,320.099263 299.224268,321 296.83584,321 C295.073398,321 293.274651,320.669754 291.4429,320.010365 L291.4429,312.776549 C292.811854,313.356959 294.156606,313.646062 295.478987,313.646062 C297.936725,313.646062 300.222472,310.771564 302.332929,305.023672 L289.563842,271.334928 Z" id="editor-apty-logo"></path>
        </g>
    </g>
</svg>