<?xml version="1.0" encoding="UTF-8"?>
<svg width="20px" height="20px" viewBox="0 0 20 20" version="1.1" xmlns="http://www.w3.org/2000/svg" xmlns:xlink="http://www.w3.org/1999/xlink">
    <!-- Generator: sketchtool 60 (101010) - https://sketch.com -->
    <title>42B4F447-932E-41DC-BF7B-EE9B8BD878EC</title>
    <desc>Created with sketchtool.</desc>
    <g id="Asset-Artboard-Page" stroke="none" stroke-width="1" fill="none" fill-rule="evenodd" opacity="0.400000006">
        <g id="lens-usecase-row-element-selector-lens-usecase-row/icon/element-selector" fill="#000000" fill-rule="nonzero">
            <path d="M9.5,4 L9.5,5.515625 C7.3984375,5.7421875 5.7421875,7.3984375 5.515625,9.5 L4,9.5 L4,10.5 L5.515625,10.5 C5.7421875,12.6015625 7.3984375,14.2578125 9.5,14.484375 L9.5,16 L10.5,16 L10.5,14.484375 C12.6015625,14.2578125 14.2578125,12.6015625 14.484375,10.5 L16,10.5 L16,9.5 L14.484375,9.5 C14.2578125,7.3984375 12.6015625,5.7421875 10.5,5.515625 L10.5,4 L9.5,4 Z M10,6.25 C12.0507815,6.25 13.75,7.949219 13.75,10 C13.75,12.0507815 12.0507815,13.75 10,13.75 C7.949219,13.75 6.25,12.0507815 6.25,10 C6.25,7.949219 7.949219,6.25 10,6.25 Z" id="Shape"></path>
        </g>
    </g>
</svg>