<?xml version="1.0" encoding="UTF-8"?><svg version="1.1" width="11px" height="11px" viewBox="0 0 11.0 11.0" xmlns="http://www.w3.org/2000/svg" xmlns:xlink="http://www.w3.org/1999/xlink"><defs><clipPath id="i0"><path d="M1680,0 L1680,960 L0,960 L0,0 L1680,0 Z"></path></clipPath><clipPath id="i1"><path d="M4.5,0 C4.7761426,0 5,0.223857611 5,0.5 C5,0.776142359 4.7761426,1 4.5,1 L1,1 L1,10 L10,10 L10,6.5 C10,6.2238574 10.2238579,6 10.5,6 C10.7761421,6 11,6.2238574 11,6.5 L11,10 C11,10.5522852 10.5522852,11 10,11 L1,11 C0.447715521,11 0,10.5522852 0,10 L0,1 C0,0.447715521 0.447715104,0 1,0 Z M10.4999132,0 C10.567708,0 10.6324377,0.0134926215 10.691391,0.0379391238 C10.7503643,0.0623390153 10.8056154,0.0985081792 10.8535538,0.146446615 C10.9014921,0.194385007 10.9376612,0.249635905 10.9620609,0.308608711 C10.9861469,0.366691917 10.9995995,0.430298746 11,0.497000903 L11,3.5 C11,3.77614236 10.7761421,4 10.5,4 C10.2238579,4 10,3.77614236 10,3.5 L10,1.70710707 L4.8535533,6.8535533 C4.65829134,7.04881573 4.34170866,7.04881573 4.1464467,6.8535533 C3.95118451,6.65829134 3.95118451,6.34170866 4.1464467,6.1464467 L9.29289246,1 L7.5,1 C7.2238574,1 7,0.776142359 7,0.5 C7,0.223857611 7.2238574,0 7.5,0 L10.4999132,0 Z"></path></clipPath></defs><g transform="translate(-1436.0 -683.0)"><g clip-path="url(#i0)"><g transform="translate(1280.0 80.0)"><g transform="translate(30.0 173.0)"><g transform="translate(30.0 426.0)"><g transform="translate(96.0 4.0)"><g clip-path="url(#i1)"><polygon points="0,0 11,0 11,11 0,11 0,0" stroke="none" fill="#BDBDBD"></polygon></g></g></g></g></g></g></g></svg>