<?xml version="1.0" encoding="UTF-8"?>
<svg width="20px" height="15px" viewBox="0 0 20 15" version="1.1" xmlns="http://www.w3.org/2000/svg" xmlns:xlink="http://www.w3.org/1999/xlink">
    <title>Group 17</title>
    <g id="Page-1" stroke="none" stroke-width="1" fill="none" fill-rule="evenodd">
        <g id="Artboard" transform="translate(-4112.000000, -579.000000)" fill-rule="nonzero">
            <g id="Group-12" transform="translate(3519.000000, 486.000000)">
                <g id="Group-16" transform="translate(593.000000, 93.000000)">
                    <path d="M18,0 C19.1045695,0 20,0.8954305 20,2 L20,13 C20,14.1045695 19.1045695,15 18,15 L2,15 C0.8954305,15 0,14.1045695 0,13 L0,2 C0,0.8954305 0.8954305,0 2,0 L18,0 Z" id="Path" fill="#FFFFFF"></path>
                    <path d="M18,0 C19.1045695,0 20,0.8954305 20,2 L20,13 C20,14.1045695 19.1045695,15 18,15 L2,15 C0.8954305,15 0,14.1045695 0,13 L0,2 C0,0.8954305 0.8954305,0 2,0 L18,0 Z M18,6 L2,6 L2,13 L18,13 L18,6 Z M12,10 L12,11 L4,11 L4,10 L12,10 Z M16,8 L16,9 L4,9 L4,8 L16,8 Z" id="Combined-Shape" fill="#000000"></path>
                </g>
            </g>
        </g>
    </g>
</svg>