<?xml version="1.0" encoding="UTF-8"?>
<svg width="14px" height="14px" viewBox="0 0 14 14" version="1.1" xmlns="http://www.w3.org/2000/svg" xmlns:xlink="http://www.w3.org/1999/xlink">
    <!-- Generator: Sketch 47 (45396) - http://www.bohemiancoding.com/sketch -->
    <title>fullscreen-icon-expand</title>
    <desc>Created with Sketch.</desc>
    <defs></defs>
    <g id="Symbols" stroke="none" stroke-width="1" fill="none" fill-rule="evenodd">
        <g id="sidebar/element-selector" transform="translate(-263.000000, -13.000000)" fill="#000000">
            <g id="Group-2-Copy-3" transform="translate(209.000000, 0.000000)">
                <path d="M63,13 L68,13 L68,18 L66.0188679,18 L66.0188679,14.9811321 L63,14.9811321 L63,13 Z M66.0188679,25.0188679 L66.0188679,22 L68,22 L68,27 L63,27 L63,25.0188679 L66.0188679,25.0188679 Z M54,18 L54,13 L59,13 L59,14.9811321 L55.9811321,14.9811321 L55.9811321,18 L54,18 Z M55.9811321,22 L55.9811321,25.0188679 L59,25.0188679 L59,27 L54,27 L54,22 L55.9811321,22 Z" id="fullscreen-icon-expand"></path>
            </g>
        </g>
    </g>
</svg>