<?xml version="1.0" encoding="UTF-8"?>
<svg width="30px" height="30px" viewBox="0 0 30 30" version="1.1" xmlns="http://www.w3.org/2000/svg" xmlns:xlink="http://www.w3.org/1999/xlink">
    <!-- Generator: Sketch 52.4 (67378) - http://www.bohemiancoding.com/sketch -->
    <title>sidebar/highlight-selector/blink-icon</title>
    <desc>Created with Sketch.</desc>
    <g id="sidebar/highlight-selector/blink-icon" stroke="none" stroke-width="1" fill="none" fill-rule="evenodd">
        <path d="M15,5 C15.5522847,5 16,5.44771525 16,6 L16,9 C16,9.55228475 15.5522847,10 15,10 C14.4477153,10 14,9.55228475 14,9 L14,6 C14,5.44771525 14.4477153,5 15,5 Z M6,14 L9,14 C9.55228475,14 10,14.4477153 10,15 C10,15.5522847 9.55228475,16 9,16 L6,16 C5.44771525,16 5,15.5522847 5,15 C5,14.4477153 5.44771525,14 6,14 Z M21,14 L24,14 C24.5522847,14 25,14.4477153 25,15 C25,15.5522847 24.5522847,16 24,16 L21,16 C20.4477153,16 20,15.5522847 20,15 C20,14.4477153 20.4477153,14 21,14 Z M15,20 C15.5522847,20 16,20.4477153 16,21 L16,24 C16,24.5522847 15.5522847,25 15,25 C14.4477153,25 14,24.5522847 14,24 L14,21 C14,20.4477153 14.4477153,20 15,20 Z M22.0710678,7.92893219 C22.4615921,8.31945648 22.4615921,8.95262146 22.0710678,9.34314575 L19.9497475,11.4644661 C19.5592232,11.8549904 18.9260582,11.8549904 18.5355339,11.4644661 C18.1450096,11.0739418 18.1450096,10.4407768 18.5355339,10.0502525 L20.6568542,7.92893219 C21.0473785,7.5384079 21.6805435,7.5384079 22.0710678,7.92893219 Z M9.34314575,7.92893219 L11.4644661,10.0502525 C11.8549904,10.4407768 11.8549904,11.0739418 11.4644661,11.4644661 C11.0739418,11.8549904 10.4407768,11.8549904 10.0502525,11.4644661 L7.92893219,9.34314575 C7.5384079,8.95262146 7.5384079,8.31945648 7.92893219,7.92893219 C8.31945648,7.5384079 8.95262146,7.5384079 9.34314575,7.92893219 Z M19.9497475,18.5355339 L22.0710678,20.6568542 C22.4615921,21.0473785 22.4615921,21.6805435 22.0710678,22.0710678 C21.6805435,22.4615921 21.0473785,22.4615921 20.6568542,22.0710678 L18.5355339,19.9497475 C18.1450096,19.5592232 18.1450096,18.9260582 18.5355339,18.5355339 C18.9260582,18.1450096 19.5592232,18.1450096 19.9497475,18.5355339 Z M11.4644661,18.5355339 C11.8549904,18.9260582 11.8549904,19.5592232 11.4644661,19.9497475 L9.34314575,22.0710678 C8.95262146,22.4615921 8.31945648,22.4615921 7.92893219,22.0710678 C7.5384079,21.6805435 7.5384079,21.0473785 7.92893219,20.6568542 L10.0502525,18.5355339 C10.4407768,18.1450096 11.0739418,18.1450096 11.4644661,18.5355339 Z" id="Combined-Shape" fill="#666666"></path>
    </g>
</svg>