<?xml version="1.0" encoding="UTF-8"?>
<svg width="82px" height="81px" viewBox="0 0 82 81" version="1.1" xmlns="http://www.w3.org/2000/svg" xmlns:xlink="http://www.w3.org/1999/xlink">
    <title>UI-Icon/Empty-State-Icons/Icon/Select-element/md</title>
    <g id="Final-Design" stroke="none" stroke-width="1" fill="none" fill-rule="evenodd">
        <g id="Group" transform="translate(-7.000000, -8.000000)">
            <g id="Group-54-Copy" transform="translate(13.000000, 15.000000)" fill="#EFEFEF">
                <circle id="Oval-Copy-19" cx="7" cy="7" r="7"></circle>
            </g>
            <g id="Group-54-Copy-3" transform="translate(69.000000, 15.000000)" fill="#EFEFEF">
                <circle id="Oval-Copy-19" cx="7" cy="7" r="7"></circle>
            </g>
            <g id="Group-54-Copy-2" transform="translate(13.000000, 66.000000)" fill="#EFEFEF">
                <circle id="Oval-Copy-19" cx="7" cy="7" r="7"></circle>
            </g>
            <g id="Group-54-Copy-4" transform="translate(69.000000, 66.000000)" fill="#EFEFEF">
                <circle id="Oval-Copy-19" cx="7" cy="7" r="7"></circle>
            </g>
            <rect id="Rectangle-Copy-213" fill="#EFEFEF" x="35" y="8" width="26" height="8"></rect>
            <rect id="Rectangle-Copy-215" fill="#EFEFEF" x="7" y="36" width="8" height="23"></rect>
            <rect id="Rectangle-Copy-216" fill="#EFEFEF" x="81" y="36" width="8" height="23"></rect>
            <rect id="Rectangle-Copy-214" fill="#EFEFEF" x="35" y="81" width="26" height="8"></rect>
            <g transform="translate(27.000000, 26.000000)" id="Empty-State-Icons/base-icon/select">
                <g id="Group-18-Copy" fill="#30BCED">
                    <circle id="Oval" cx="22" cy="22" r="22"></circle>
                </g>
                <path d="M22,8 C29.7319865,8 36,14.2680135 36,22 C36,29.7319865 29.7319865,36 22,36 C14.2680135,36 8,29.7319865 8,22 C8,14.2680135 14.2680135,8 22,8 Z M22,12 C16.4771525,12 12,16.4771525 12,22 C12,27.5228475 16.4771525,32 22,32 C27.5228475,32 32,27.5228475 32,22 C32,16.4771525 27.5228475,12 22,12 Z" id="Combined-Shape" fill="#FFFFFF" transform="translate(22.000000, 22.000000) scale(-1, 1) translate(-22.000000, -22.000000) "></path>
                <rect id="Rectangle" fill="#FFFFFF" x="20" y="6" width="4" height="10"></rect>
                <rect id="Rectangle-Copy-2" fill="#FFFFFF" x="6" y="20" width="10" height="4"></rect>
                <rect id="Rectangle-Copy-3" fill="#FFFFFF" x="28" y="20" width="10" height="4"></rect>
                <rect id="Rectangle-Copy" fill="#FFFFFF" x="20" y="28" width="4" height="10"></rect>
            </g>
        </g>
    </g>
</svg>