<?xml version="1.0" encoding="UTF-8"?>
<svg width="66px" height="66px" viewBox="0 0 66 66" version="1.1" xmlns="http://www.w3.org/2000/svg" xmlns:xlink="http://www.w3.org/1999/xlink">
    <!-- Generator: Sketch 51.1 (57501) - http://www.bohemiancoding.com/sketch -->
    <title>icon-selector-bg</title>
    <desc>Created with Sketch.</desc>
    <defs></defs>
    <g id="Editor-UI:-W" stroke="none" stroke-width="1" fill="none" fill-rule="evenodd">
        <g id="icon-selector-bg">
            <polygon id="Path" fill="#EBEBEB" points="6 6 60 6 60 60 6 60"></polygon>
            <polygon id="Rectangle-20-Copy-5" fill="#F8F8F8" fill-rule="nonzero" points="7 59 59 59 59 7 7 7"></polygon>
            <polygon id="Rectangle-20-Copy-6" fill="#EBEBEB" fill-rule="nonzero" points="65 4 66 5 61 5 61 0 62 1 62 4"></polygon>
            <polygon id="Rectangle-20-Copy-7" fill="#EBEBEB" fill-rule="nonzero" points="1 4 0 5 5 5 5 0 4 1 4 4"></polygon>
            <polygon id="Rectangle-20-Copy-8" fill="#EBEBEB" fill-rule="nonzero" points="65 62 66 61 61 61 61 66 62 65 62 62"></polygon>
            <polygon id="Rectangle-20-Copy-9" fill="#EBEBEB" fill-rule="nonzero" points="4 65 5 66 5 61 0 61 1 62 4 62"></polygon>
        </g>
    </g>
</svg>