<?xml version="1.0" encoding="UTF-8"?>
<svg width="30px" height="30px" viewBox="0 0 30 30" version="1.1" xmlns="http://www.w3.org/2000/svg" xmlns:xlink="http://www.w3.org/1999/xlink">
    <!-- Generator: sketchtool 60 (101010) - https://sketch.com -->
    <title>800F9AA4-4669-4C5C-95AF-DCC7A5CC5B73</title>
    <desc>Created with sketchtool.</desc>
    <g id="Asset-Artboard-Page" stroke="none" stroke-width="1" fill="none" fill-rule="evenodd">
        <g id="tool-icon/md/Lens" fill="#F6CE69" fill-rule="nonzero">
            <path d="M12,0 C18.627417,0 24,5.372583 24,12 C24,14.7731354 23.0593313,17.3265659 21.4796695,19.3586158 L29.3613203,27.24 L27.24,29.3613203 L19.3586158,21.4796695 C17.3265659,23.0593313 14.7731354,24 12,24 C5.372583,24 0,18.627417 0,12 C0,5.372583 5.372583,0 12,0 Z M12,3 C7.02943725,3 3,7.02943725 3,12 C3,16.9705627 7.02943725,21 12,21 C16.9705627,21 21,16.9705627 21,12 C21,7.02943725 16.9705627,3 12,3 Z M12,5 C15.7854517,5 18.8690987,8.00478338 18.995941,11.7593502 L19,12 L17,12 C17,9.3112453 14.8776933,7.11818189 12.2168896,7.00461951 L12,7 L12,5 Z" id="Shape"></path>
        </g>
    </g>
</svg>