<?xml version="1.0" encoding="UTF-8"?>
<svg width="190px" height="51px" viewBox="0 0 190 51" version="1.1" xmlns="http://www.w3.org/2000/svg" xmlns:xlink="http://www.w3.org/1999/xlink">
    <!-- Generator: Sketch 51.1 (57501) - http://www.bohemiancoding.com/sketch -->
    <title>letznav-logo--white</title>
    <desc>Created with Sketch.</desc>
    <defs></defs>
    <g id="Editor-UI:-Home" stroke="none" stroke-width="1" fill="none" fill-rule="evenodd">
        <g id="letzNav-login_alt" transform="translate(-1190.000000, -141.000000)" fill="#FFFFFF">
            <path d="M1248.93433,190.156134 C1248.93433,189.920553 1248.85653,189.740094 1248.70094,189.614753 C1248.54534,189.489412 1248.26314,189.355767 1247.85433,189.213814 C1247.02754,188.94803 1246.41357,188.664884 1246.01238,188.364367 C1245.61119,188.06385 1245.4106,187.631203 1245.4106,187.066412 C1245.4106,186.513702 1245.64399,186.066709 1246.11077,185.725418 C1246.57755,185.384128 1247.17093,185.213485 1247.89094,185.213485 C1248.6506,185.213485 1249.26229,185.389413 1249.72602,185.741275 C1250.18975,186.093136 1250.41399,186.589208 1250.39873,187.229506 L1250.38958,187.256688 L1248.88856,187.256688 C1248.88856,186.9456 1248.80314,186.719838 1248.63229,186.579396 C1248.46145,186.438953 1248.20365,186.368733 1247.8589,186.368733 C1247.57822,186.368733 1247.35704,186.436688 1247.19534,186.5726 C1247.03365,186.708512 1246.9528,186.876135 1246.9528,187.075473 C1246.9528,187.26877 1247.03594,187.423557 1247.20221,187.539837 C1247.36848,187.656118 1247.6789,187.801843 1248.13348,187.977019 C1248.90535,188.203539 1249.48958,188.47989 1249.88619,188.806079 C1250.2828,189.132269 1250.48111,189.579262 1250.48111,190.147073 C1250.48111,190.726965 1250.2523,191.180754 1249.79467,191.508453 C1249.33704,191.836153 1248.72992,192 1247.97331,192 C1247.21975,192 1246.58136,191.824072 1246.05814,191.47221 C1245.53492,191.120349 1245.28094,190.566892 1245.29619,189.811825 L1245.30534,189.784642 L1246.81094,189.784642 C1246.81094,190.168217 1246.90628,190.440792 1247.09695,190.602377 C1247.28763,190.763961 1247.57975,190.844752 1247.97331,190.844752 C1248.2967,190.844752 1248.53772,190.781327 1248.69636,190.654476 C1248.85501,190.527625 1248.93433,190.361512 1248.93433,190.156134 Z M1255.25884,189.925084 L1255.28629,189.925084 L1256.79189,185.308623 L1258.83748,185.308623 L1258.83748,191.904862 L1257.2907,191.904862 L1257.2907,187.655362 L1257.26324,187.650832 L1255.79426,191.904862 L1254.75545,191.904862 L1253.31392,187.714257 L1253.28646,187.718787 L1253.28646,191.904862 L1251.73968,191.904862 L1251.73968,185.308623 L1253.76697,185.308623 L1255.25884,189.925084 Z M1263.88521,190.622763 L1261.90368,190.622763 L1261.51928,191.904862 L1259.89012,191.904862 L1262.06385,185.308623 L1262.89216,185.308623 L1263.72504,185.308623 L1265.90334,191.904862 L1264.27419,191.904862 L1263.88521,190.622763 Z M1262.26063,189.444864 L1263.52826,189.444864 L1262.90589,187.39713 L1262.87843,187.39713 L1262.26063,189.444864 Z M1268.3426,189.376908 L1268.3426,191.904862 L1266.79582,191.904862 L1266.79582,185.308623 L1269.11599,185.308623 C1269.88785,185.308623 1270.49954,185.485306 1270.95107,185.838678 C1271.4026,186.19205 1271.62836,186.675286 1271.62836,187.288401 C1271.62836,187.629691 1271.5376,187.922653 1271.35607,188.167295 C1271.17454,188.411937 1270.90684,188.611272 1270.55293,188.765306 C1270.96175,188.880076 1271.25539,189.071106 1271.43387,189.3384 C1271.61234,189.605693 1271.70158,189.938673 1271.70158,190.337349 L1271.70158,190.754144 C1271.70158,190.9263 1271.72751,191.122615 1271.77938,191.343094 C1271.83124,191.563574 1271.92124,191.720626 1272.04938,191.814254 L1272.04938,191.904862 L1270.45226,191.904862 C1270.33022,191.811234 1270.2509,191.646631 1270.21429,191.41105 C1270.17768,191.175469 1270.15938,190.953482 1270.15938,190.745084 L1270.15938,190.34641 C1270.15938,190.032302 1270.07548,189.792194 1269.90768,189.626079 C1269.73988,189.459964 1269.49429,189.376908 1269.1709,189.376908 L1268.3426,189.376908 Z M1268.3426,188.199008 L1269.12514,188.199008 C1269.43633,188.199008 1269.67429,188.128788 1269.83904,187.988345 C1270.00378,187.847903 1270.08616,187.646302 1270.08616,187.383539 C1270.08616,187.114735 1270.0015,186.898034 1269.83217,186.733429 C1269.66285,186.568824 1269.42412,186.486523 1269.11599,186.486523 L1268.3426,186.486523 L1268.3426,188.199008 Z M1277.59592,186.486523 L1275.83405,186.486523 L1275.83405,191.904862 L1274.28727,191.904862 L1274.28727,186.486523 L1272.55744,186.486523 L1272.55744,185.308623 L1277.59592,185.308623 L1277.59592,186.486523 Z M1282.93663,189.6442 L1282.93663,191.904862 L1281.38985,191.904862 L1281.38985,185.308623 L1283.93426,185.308623 C1284.72443,185.308623 1285.35137,185.507958 1285.8151,185.906634 C1286.27883,186.30531 1286.5107,186.829319 1286.5107,187.478677 C1286.5107,188.128035 1286.27883,188.651289 1285.8151,189.048455 C1285.35137,189.445621 1284.72443,189.6442 1283.93426,189.6442 L1282.93663,189.6442 Z M1282.93663,188.466301 L1283.93426,188.466301 C1284.26985,188.466301 1284.52612,188.374939 1284.70307,188.192212 C1284.88002,188.009486 1284.96849,187.774663 1284.96849,187.487738 C1284.96849,187.194771 1284.88078,186.954663 1284.70536,186.767407 C1284.52993,186.58015 1284.2729,186.486523 1283.93426,186.486523 L1282.93663,186.486523 L1282.93663,188.466301 Z M1289.32978,189.376908 L1289.32978,191.904862 L1287.783,191.904862 L1287.783,185.308623 L1290.10317,185.308623 C1290.87504,185.308623 1291.48673,185.485306 1291.93825,185.838678 C1292.38978,186.19205 1292.61554,186.675286 1292.61554,187.288401 C1292.61554,187.629691 1292.52478,187.922653 1292.34325,188.167295 C1292.16173,188.411937 1291.89402,188.611272 1291.54012,188.765306 C1291.94893,188.880076 1292.24258,189.071106 1292.42105,189.3384 C1292.59953,189.605693 1292.68876,189.938673 1292.68876,190.337349 L1292.68876,190.754144 C1292.68876,190.9263 1292.71469,191.122615 1292.76656,191.343094 C1292.81842,191.563574 1292.90842,191.720626 1293.03656,191.814254 L1293.03656,191.904862 L1291.43944,191.904862 C1291.31741,191.811234 1291.23809,191.646631 1291.20147,191.41105 C1291.16486,191.175469 1291.14656,190.953482 1291.14656,190.745084 L1291.14656,190.34641 C1291.14656,190.032302 1291.06266,189.792194 1290.89486,189.626079 C1290.72707,189.459964 1290.48148,189.376908 1290.15809,189.376908 L1289.32978,189.376908 Z M1289.32978,188.199008 L1290.11232,188.199008 C1290.42351,188.199008 1290.66147,188.128788 1290.82622,187.988345 C1290.99097,187.847903 1291.07334,187.646302 1291.07334,187.383539 C1291.07334,187.114735 1290.98868,186.898034 1290.81936,186.733429 C1290.65003,186.568824 1290.41131,186.486523 1290.10317,186.486523 L1289.32978,186.486523 L1289.32978,188.199008 Z M1299.71344,189.200223 C1299.71344,190.012676 1299.45336,190.682411 1298.93319,191.209448 C1298.41301,191.736485 1297.73344,192 1296.89446,192 C1296.04937,192 1295.36446,191.736485 1294.83971,191.209448 C1294.31496,190.682411 1294.05259,190.012676 1294.05259,189.200223 L1294.05259,188.013262 C1294.05259,187.20383 1294.3142,186.53485 1294.83742,186.006302 C1295.36065,185.477755 1296.04327,185.213485 1296.8853,185.213485 C1297.72124,185.213485 1298.40157,185.477755 1298.92632,186.006302 C1299.45107,186.53485 1299.71344,187.20383 1299.71344,188.013262 L1299.71344,189.200223 Z M1298.17124,188.004201 C1298.17124,187.533039 1298.05912,187.14645 1297.83488,186.844423 C1297.61064,186.542396 1297.29412,186.391385 1296.8853,186.391385 C1296.46734,186.391385 1296.14776,186.541641 1295.92658,186.842158 C1295.70539,187.142675 1295.5948,187.530019 1295.5948,188.004201 L1295.5948,189.200223 C1295.5948,189.677426 1295.70691,190.067035 1295.93115,190.369062 C1296.15539,190.671089 1296.47649,190.8221 1296.89446,190.8221 C1297.30022,190.8221 1297.61446,190.671089 1297.83717,190.369062 C1298.05988,190.067035 1298.17124,189.677426 1298.17124,189.200223 L1298.17124,188.004201 Z M1301.07269,191.904862 L1301.07269,185.308623 L1303.51185,185.308623 C1304.29592,185.308623 1304.95184,185.561567 1305.47964,186.067462 C1306.00744,186.573358 1306.27134,187.221951 1306.27134,188.013262 L1306.27134,189.200223 C1306.27134,189.994554 1306.00744,190.643903 1305.47964,191.148288 C1304.95184,191.652673 1304.29592,191.904862 1303.51185,191.904862 L1301.07269,191.904862 Z M1302.61947,186.486523 L1302.61947,190.726962 L1303.51185,190.726962 C1303.8627,190.726962 1304.15176,190.585012 1304.37905,190.301106 C1304.60634,190.017201 1304.71998,189.650243 1304.71998,189.200223 L1304.71998,188.004201 C1304.71998,187.560222 1304.60634,187.196284 1304.37905,186.912379 C1304.15176,186.628473 1303.8627,186.486523 1303.51185,186.486523 L1302.61947,186.486523 Z M1313.07178,185.308623 L1313.07178,189.585305 C1313.07178,190.340373 1312.81856,190.931582 1312.31212,191.358951 C1311.80567,191.786319 1311.14517,192 1310.33059,192 C1309.50991,192 1308.84483,191.786319 1308.33534,191.358951 C1307.82584,190.931582 1307.5711,190.340373 1307.5711,189.585305 L1307.5711,185.308623 L1309.12246,185.308623 L1309.12246,189.585305 C1309.12246,189.993042 1309.22923,190.301105 1309.44279,190.509504 C1309.65635,190.717902 1309.95228,190.8221 1310.33059,190.8221 C1310.70585,190.8221 1310.99796,190.718657 1311.20695,190.511769 C1311.41593,190.30488 1311.52042,189.996062 1311.52042,189.585305 L1311.52042,185.308623 L1313.07178,185.308623 Z M1319.62967,189.680443 L1319.63883,189.707626 C1319.65103,190.459673 1319.43671,191.029741 1318.99586,191.417846 C1318.55501,191.805951 1317.93036,192 1317.12188,192 C1316.29815,192 1315.63688,191.750831 1315.13807,191.252487 C1314.63925,190.754142 1314.38984,190.101773 1314.38984,189.295361 L1314.38984,187.918124 C1314.38984,187.114732 1314.6301,186.463118 1315.11061,185.963264 C1315.59112,185.463409 1316.22645,185.213485 1317.01662,185.213485 C1317.86171,185.213485 1318.51535,185.40829 1318.97756,185.797905 C1319.43976,186.18752 1319.66476,186.753812 1319.65256,187.496798 L1319.63883,187.523981 L1318.13323,187.523981 C1318.13323,187.119264 1318.04629,186.829323 1317.87239,186.654147 C1317.69849,186.478971 1317.41324,186.391385 1317.01662,186.391385 C1316.66883,186.391385 1316.40188,186.52956 1316.21578,186.805915 C1316.02967,187.08227 1315.93662,187.449982 1315.93662,187.909063 L1315.93662,189.295361 C1315.93662,189.757462 1316.03883,190.12744 1316.24323,190.405305 C1316.44764,190.68317 1316.74052,190.8221 1317.12188,190.8221 C1317.47578,190.8221 1317.73128,190.734514 1317.8884,190.559338 C1318.04552,190.384162 1318.12408,190.0912 1318.12408,189.680443 L1319.62967,189.680443 Z M1325.41418,186.486523 L1323.65232,186.486523 L1323.65232,191.904862 L1322.10554,191.904862 L1322.10554,186.486523 L1320.37571,186.486523 L1320.37571,185.308623 L1325.41418,185.308623 L1325.41418,186.486523 Z M1332.69523,190.622763 L1330.71371,190.622763 L1330.3293,191.904862 L1328.70015,191.904862 L1330.87388,185.308623 L1331.70218,185.308623 L1332.53506,185.308623 L1334.71337,191.904862 L1333.08422,191.904862 L1332.69523,190.622763 Z M1331.07066,189.444864 L1332.33828,189.444864 L1331.71591,187.39713 L1331.68845,187.39713 L1331.07066,189.444864 Z M1335.60584,191.904862 L1335.60584,185.308623 L1338.04499,185.308623 C1338.82907,185.308623 1339.48499,185.561567 1340.01279,186.067462 C1340.54059,186.573358 1340.80449,187.221951 1340.80449,188.013262 L1340.80449,189.200223 C1340.80449,189.994554 1340.54059,190.643903 1340.01279,191.148288 C1339.48499,191.652673 1338.82907,191.904862 1338.04499,191.904862 L1335.60584,191.904862 Z M1337.15262,186.486523 L1337.15262,190.726962 L1338.04499,190.726962 C1338.39584,190.726962 1338.68491,190.585012 1338.9122,190.301106 C1339.13949,190.017201 1339.25313,189.650243 1339.25313,189.200223 L1339.25313,188.004201 C1339.25313,187.560222 1339.13949,187.196284 1338.9122,186.912379 C1338.68491,186.628473 1338.39584,186.486523 1338.04499,186.486523 L1337.15262,186.486523 Z M1347.68272,189.200223 C1347.68272,190.012676 1347.42264,190.682411 1346.90247,191.209448 C1346.3823,191.736485 1345.70273,192 1344.86374,192 C1344.01865,192 1343.33374,191.736485 1342.80899,191.209448 C1342.28425,190.682411 1342.02188,190.012676 1342.02188,189.200223 L1342.02188,188.013262 C1342.02188,187.20383 1342.28348,186.53485 1342.80671,186.006302 C1343.32993,185.477755 1344.01255,185.213485 1344.85459,185.213485 C1345.69052,185.213485 1346.37086,185.477755 1346.8956,186.006302 C1347.42035,186.53485 1347.68272,187.20383 1347.68272,188.013262 L1347.68272,189.200223 Z M1346.14052,188.004201 C1346.14052,187.533039 1346.0284,187.14645 1345.80416,186.844423 C1345.57992,186.542396 1345.2634,186.391385 1344.85459,186.391385 C1344.43662,186.391385 1344.11705,186.541641 1343.89586,186.842158 C1343.67467,187.142675 1343.56408,187.530019 1343.56408,188.004201 L1343.56408,189.200223 C1343.56408,189.677426 1343.6762,190.067035 1343.90043,190.369062 C1344.12467,190.671089 1344.44577,190.8221 1344.86374,190.8221 C1345.2695,190.8221 1345.58374,190.671089 1345.80645,190.369062 C1346.02916,190.067035 1346.14052,189.677426 1346.14052,189.200223 L1346.14052,188.004201 Z M1350.58876,189.6442 L1350.58876,191.904862 L1349.04198,191.904862 L1349.04198,185.308623 L1351.58638,185.308623 C1352.37656,185.308623 1353.0035,185.507958 1353.46723,185.906634 C1353.93096,186.30531 1354.16282,186.829319 1354.16282,187.478677 C1354.16282,188.128035 1353.93096,188.651289 1353.46723,189.048455 C1353.0035,189.445621 1352.37656,189.6442 1351.58638,189.6442 L1350.58876,189.6442 Z M1350.58876,188.466301 L1351.58638,188.466301 C1351.92198,188.466301 1352.17825,188.374939 1352.3552,188.192212 C1352.53215,188.009486 1352.62062,187.774663 1352.62062,187.487738 C1352.62062,187.194771 1352.53291,186.954663 1352.35748,186.767407 C1352.18206,186.58015 1351.92503,186.486523 1351.58638,186.486523 L1350.58876,186.486523 L1350.58876,188.466301 Z M1360.07089,186.486523 L1358.30903,186.486523 L1358.30903,191.904862 L1356.76225,191.904862 L1356.76225,186.486523 L1355.03242,186.486523 L1355.03242,185.308623 L1360.07089,185.308623 L1360.07089,186.486523 Z M1362.75269,191.904862 L1361.21048,191.904862 L1361.21048,185.308623 L1362.75269,185.308623 L1362.75269,191.904862 Z M1369.86431,189.200223 C1369.86431,190.012676 1369.60423,190.682411 1369.08406,191.209448 C1368.56389,191.736485 1367.88432,192 1367.04533,192 C1366.20024,192 1365.51533,191.736485 1364.99058,191.209448 C1364.46584,190.682411 1364.20347,190.012676 1364.20347,189.200223 L1364.20347,188.013262 C1364.20347,187.20383 1364.46507,186.53485 1364.9883,186.006302 C1365.51152,185.477755 1366.19414,185.213485 1367.03618,185.213485 C1367.87211,185.213485 1368.55245,185.477755 1369.07719,186.006302 C1369.60194,186.53485 1369.86431,187.20383 1369.86431,188.013262 L1369.86431,189.200223 Z M1368.32211,188.004201 C1368.32211,187.533039 1368.20999,187.14645 1367.98575,186.844423 C1367.76152,186.542396 1367.44499,186.391385 1367.03618,186.391385 C1366.61821,186.391385 1366.29864,186.541641 1366.07745,186.842158 C1365.85626,187.142675 1365.74567,187.530019 1365.74567,188.004201 L1365.74567,189.200223 C1365.74567,189.677426 1365.85779,190.067035 1366.08202,190.369062 C1366.30626,190.671089 1366.62736,190.8221 1367.04533,190.8221 C1367.45109,190.8221 1367.76533,190.671089 1367.98804,190.369062 C1368.21075,190.067035 1368.32211,189.677426 1368.32211,189.200223 L1368.32211,188.004201 Z M1376.77916,191.904862 L1375.23696,191.904862 L1372.7978,187.75503 L1372.77035,187.764091 L1372.77035,191.904862 L1371.22357,191.904862 L1371.22357,185.308623 L1372.77035,185.308623 L1375.2095,189.453924 L1375.23696,189.444864 L1375.23696,185.308623 L1376.77916,185.308623 L1376.77916,191.904862 Z M1252.9114,179.115956 L1252.03452,179.115956 C1247.23746,179.115956 1245.22,175.787713 1245.22,172.503846 L1245.22,151.186226 C1245.22,149.576811 1246.52469,148.272123 1248.13411,148.272123 L1248.13411,148.272123 C1249.74352,148.272123 1251.04821,149.576811 1251.04821,151.186226 L1251.04821,172.148834 C1251.04821,173.524507 1251.63103,174.234533 1253.1105,174.234533 L1253.1105,174.234533 C1254.34851,174.234533 1255.35211,175.238139 1255.35211,176.47615 L1255.35211,176.675244 C1255.35211,178.023212 1254.25937,179.115956 1252.9114,179.115956 Z M1273.87931,170.17325 L1261.51484,170.17325 C1261.9176,173.004112 1264.29383,174.319865 1266.99226,174.319865 C1269.97262,174.319865 1272.02666,172.00733 1273.55711,172.00733 C1274.80564,172.00733 1275.93334,173.24334 1275.93334,174.47935 C1275.93334,176.951371 1270.77813,179.343648 1266.46869,179.343648 C1259.94411,179.343648 1255.5944,174.638836 1255.5944,168.299299 C1255.5944,162.47809 1259.86356,157.175208 1265.98538,157.175208 C1272.26831,157.175208 1276.41665,162.836932 1276.41665,167.621487 C1276.41665,169.335953 1275.65142,170.17325 1273.87931,170.17325 Z M1261.39402,166.345606 L1270.61703,166.345606 C1270.29482,163.833714 1268.68382,161.959763 1265.98538,161.959763 C1263.40778,161.959763 1261.67594,163.913457 1261.39402,166.345606 Z M1280.13361,175.914717 L1280.13361,162.677447 L1278.84481,162.677447 C1277.27408,162.677447 1276.30747,161.720536 1276.30747,160.165555 C1276.30747,158.730188 1277.3949,157.653664 1278.84481,157.653664 L1280.13361,157.653664 L1280.13361,154.224732 C1280.13361,152.31091 1281.34186,151.035028 1283.03342,151.035028 C1284.72498,151.035028 1285.93323,152.31091 1285.93323,154.224732 L1285.93323,157.653664 L1287.58451,157.653664 C1289.07469,157.653664 1290.3635,158.331476 1290.3635,160.165555 C1290.3635,161.959763 1289.07469,162.677447 1287.58451,162.677447 L1285.93323,162.677447 L1285.93323,175.914717 C1285.93323,177.828539 1284.72498,179.104421 1283.03342,179.104421 C1281.34186,179.104421 1280.13361,177.828539 1280.13361,175.914717 Z M1292.49377,175.356519 L1301.59595,162.677447 L1294.87001,162.677447 C1293.4201,162.677447 1292.25212,161.760407 1292.25212,160.165555 C1292.25212,158.570703 1293.4201,157.653664 1294.87001,157.653664 L1308.03998,157.653664 C1308.56355,157.653664 1309.93291,157.892891 1309.93291,159.447872 C1309.93291,160.205426 1309.77181,160.564268 1309.32878,161.162338 L1300.18632,173.84141 L1307.8386,173.84141 C1309.28851,173.84141 1310.45648,174.758449 1310.45648,176.353301 C1310.45648,177.948153 1309.28851,178.865193 1307.8386,178.865193 L1294.34643,178.865193 C1293.05762,178.865193 1291.9702,178.227252 1291.9702,176.911499 C1291.9702,176.273559 1292.2924,175.675489 1292.49377,175.356519 Z M1312.47024,175.99446 L1312.47024,153.347564 C1312.47024,151.353999 1313.75905,150.237602 1315.49088,150.237602 C1316.25611,150.237602 1317.50463,150.835672 1318.02821,151.553355 L1330.79543,168.418913 L1330.87598,168.418913 L1330.87598,153.347564 C1330.87598,151.353999 1332.16479,150.237602 1333.89662,150.237602 C1335.62845,150.237602 1336.91725,151.353999 1336.91725,153.347564 L1336.91725,175.99446 C1336.91725,177.988024 1335.62845,179.104421 1333.89662,179.104421 C1333.13139,179.104421 1331.92313,178.506351 1331.35928,177.788668 L1318.59206,161.122466 L1318.51151,161.122466 L1318.51151,175.99446 C1318.51151,177.988024 1317.22271,179.104421 1315.49088,179.104421 C1313.75905,179.104421 1312.47024,177.988024 1312.47024,175.99446 Z M1359.70133,161.162338 L1359.70133,175.356519 C1359.70133,176.831757 1359.70133,179.104421 1356.92234,179.104421 C1355.23079,179.104421 1354.54611,178.187381 1354.14336,176.672272 C1352.65318,178.426609 1350.8408,179.343648 1348.62567,179.343648 C1343.18852,179.343648 1339.04018,174.758449 1339.04018,168.299299 C1339.04018,161.999635 1343.30935,157.175208 1348.62567,157.175208 C1350.76025,157.175208 1352.85456,158.012505 1354.14336,159.806713 C1354.30446,158.411218 1355.51271,157.414436 1356.92234,157.414436 C1359.70133,157.414436 1359.70133,159.6871 1359.70133,161.162338 Z M1344.8398,168.299299 C1344.8398,171.050419 1346.28971,174.080637 1349.43117,174.080637 C1352.4518,174.080637 1353.90171,171.050419 1353.90171,168.299299 C1353.90171,165.54818 1352.49208,162.438219 1349.43117,162.438219 C1346.24943,162.438219 1344.8398,165.54818 1344.8398,168.299299 Z M1367.51471,176.712143 L1361.67481,161.880021 C1361.39289,161.162338 1361.31233,160.723753 1361.31233,160.205426 C1361.31233,158.371347 1362.76224,157.414436 1364.33297,157.414436 C1365.94398,157.414436 1366.62865,158.570703 1366.91058,159.447872 L1370.61589,170.77132 L1370.69644,170.77132 L1374.40176,159.447872 C1374.68368,158.570703 1375.36836,157.414436 1376.97936,157.414436 C1378.55009,157.414436 1380,158.371347 1380,160.205426 C1380,160.723753 1379.91945,161.162338 1379.63752,161.880021 L1373.79763,176.712143 C1373.23378,178.187381 1372.62965,179.104421 1370.65617,179.104421 C1368.68269,179.104421 1368.07856,178.187381 1367.51471,176.712143 Z M1201.64539,141.003846 C1206.27816,141.144212 1210.8851,141.49282 1215.46621,142.049669 C1220.04732,142.606519 1224.60261,143.37161 1229.13206,144.344943 C1232.99594,145.175251 1235.71157,148.616242 1235.59061,152.528623 C1235.44883,157.114937 1235.09669,161.675682 1234.5342,166.210858 C1233.97171,170.746034 1233.19887,175.255641 1232.21568,179.739679 C1231.37696,183.564814 1227.90111,186.25321 1223.94911,186.13347 C1219.31634,185.993104 1214.7094,185.644496 1210.12829,185.087647 C1205.54718,184.530797 1200.99189,183.765706 1196.46244,182.792373 C1192.59856,181.962065 1189.88293,178.521074 1190.00388,174.608693 C1190.14567,170.022379 1190.49781,165.461634 1191.0603,160.926458 C1191.62279,156.391282 1192.39563,151.881675 1193.37882,147.397637 C1194.21754,143.572502 1197.69338,140.884106 1201.64539,141.003846 Z M1204.82554,150.389249 C1208.64479,151.57962 1212.31675,152.918669 1215.84143,154.406398 C1219.36224,155.892495 1222.82093,157.562757 1226.21751,159.417185 C1227.40754,160.066904 1227.84021,161.548639 1227.18391,162.726734 C1227.05747,162.953691 1226.89526,163.159218 1226.7034,163.335563 C1224.05912,165.765905 1221.1707,168.153412 1218.03814,170.498084 C1214.84596,172.887382 1211.55202,175.118612 1208.1563,177.191775 C1206.99958,177.897982 1205.48357,177.542168 1204.77021,176.397042 C1204.62074,176.157099 1204.51447,175.893291 1204.45614,175.617366 C1203.66103,171.856402 1203.0278,168.07576 1202.55646,164.275441 C1202.08469,160.471767 1201.7751,156.64838 1201.62767,152.805282 C1201.57609,151.460874 1202.63518,150.329625 1203.99321,150.278568 C1204.27501,150.267973 1204.55655,150.305412 1204.82554,150.389249 Z" id="letznav-logo--white"></path>
        </g>
    </g>
</svg>