<?xml version="1.0" encoding="UTF-8"?>
<svg width="150px" height="36px" viewBox="0 0 150 36" version="1.1" xmlns="http://www.w3.org/2000/svg" xmlns:xlink="http://www.w3.org/1999/xlink">
    <!-- Generator: Sketch 51.1 (57501) - http://www.bohemiancoding.com/sketch -->
    <title>letznav-logo__no-tagline--white</title>
    <desc>Created with Sketch.</desc>
    <defs></defs>
    <g id="Symbols" stroke="none" stroke-width="1" fill="none" fill-rule="evenodd">
        <path d="M49.6471451,30.4 L48.9746214,30.4 C45.1874677,30.4 43.5947396,27.7455056 43.5947396,25.1264045 L43.5947396,8.10060735 C43.5947396,6.83001699 44.6247566,5.8 45.8953469,5.8 C47.1659373,5.8 48.1959543,6.83001699 48.1959543,8.10060735 L48.1959543,24.8432584 C48.1959543,25.9404494 48.6560757,26.5067416 49.8240764,26.5067416 C50.8014536,26.5067416 51.5937744,27.2990623 51.5937744,28.2764395 L51.5937744,28.4533708 C51.5937744,29.5284644 50.7222388,30.4 49.6471451,30.4 Z M66.2205094,23.2676 L56.4590873,23.2676 C56.7770489,25.5254 58.6530225,26.5748 60.7833655,26.5748 C63.1362816,26.5748 64.7578859,24.7304 65.9661401,24.7304 C66.9518211,24.7304 67.8421137,25.7162 67.8421137,26.702 C67.8421137,28.6736 63.7722048,30.5816 60.3700154,30.5816 C55.2190369,30.5816 51.7850513,26.8292 51.7850513,21.773 C51.7850513,17.1302 55.1554446,12.9008 59.9884614,12.9008 C64.9486629,12.9008 68.2236677,17.4164 68.2236677,21.2324 C68.2236677,22.5998 67.6195406,23.2676 66.2205094,23.2676 Z M56.3636988,20.2148 L63.6450202,20.2148 C63.3906509,18.2114 62.1188043,16.7168 59.9884614,16.7168 C57.9535069,16.7168 56.5862719,18.275 56.3636988,20.2148 Z M71.1581136,27.8468 L71.1581136,17.2892 L70.1406364,17.2892 C68.900586,17.2892 68.1374781,16.526 68.1374781,15.2858 C68.1374781,14.141 68.9959745,13.2824 70.1406364,13.2824 L71.1581136,13.2824 L71.1581136,10.5476 C71.1581136,9.0212 72.1119985,8.0036 73.4474373,8.0036 C74.7828762,8.0036 75.7367611,9.0212 75.7367611,10.5476 L75.7367611,13.2824 L77.0404038,13.2824 C78.2168618,13.2824 79.2343391,13.823 79.2343391,15.2858 C79.2343391,16.7168 78.2168618,17.2892 77.0404038,17.2892 L75.7367611,17.2892 L75.7367611,27.8468 C75.7367611,29.3732 74.7828762,30.3908 73.4474373,30.3908 C72.1119985,30.3908 71.1581136,29.3732 71.1581136,27.8468 Z M80.9161361,27.4016 L88.102069,17.2892 L82.7921098,17.2892 C81.6474479,17.2892 80.7253591,16.5578 80.7253591,15.2858 C80.7253591,14.0138 81.6474479,13.2824 82.7921098,13.2824 L93.1894551,13.2824 C93.6028053,13.2824 94.6838748,13.4732 94.6838748,14.7134 C94.6838748,15.3176 94.5566902,15.6038 94.2069324,16.0808 L86.9892033,26.1932 L93.0304743,26.1932 C94.1751362,26.1932 95.0972249,26.9246 95.0972249,28.1966 C95.0972249,29.4686 94.1751362,30.2 93.0304743,30.2 L82.3787596,30.2 C81.3612824,30.2 80.502786,29.6912 80.502786,28.6418 C80.502786,28.133 80.7571553,27.656 80.9161361,27.4016 Z M96.6870331,27.9104 L96.6870331,9.848 C96.6870331,8.258 97.7045103,7.3676 99.0717453,7.3676 C99.6758724,7.3676 100.661554,7.8446 101.074904,8.417 L111.154287,21.8684 L111.21788,21.8684 L111.21788,9.848 C111.21788,8.258 112.235357,7.3676 113.602592,7.3676 C114.969827,7.3676 115.987304,8.258 115.987304,9.848 L115.987304,27.9104 C115.987304,29.5004 114.969827,30.3908 113.602592,30.3908 C112.998465,30.3908 112.04458,29.9138 111.599434,29.3414 L101.52005,16.049 L101.456458,16.049 L101.456458,27.9104 C101.456458,29.5004 100.43898,30.3908 99.0717453,30.3908 C97.7045103,30.3908 96.6870331,29.5004 96.6870331,27.9104 Z M133.974734,16.0808 L133.974734,27.4016 C133.974734,28.5782 133.974734,30.3908 131.780798,30.3908 C130.44536,30.3908 129.904825,29.6594 129.586863,28.451 C128.410405,29.8502 126.979578,30.5816 125.230789,30.5816 C120.938307,30.5816 117.663302,26.9246 117.663302,21.773 C117.663302,16.7486 121.033695,12.9008 125.230789,12.9008 C126.915985,12.9008 128.569386,13.5686 129.586863,14.9996 C129.714048,13.8866 130.667933,13.0916 131.780798,13.0916 C133.974734,13.0916 133.974734,14.9042 133.974734,16.0808 Z M122.241949,21.773 C122.241949,23.9672 123.386611,26.384 125.866712,26.384 C128.251424,26.384 129.396086,23.9672 129.396086,21.773 C129.396086,19.5788 128.28322,17.0984 125.866712,17.0984 C123.354815,17.0984 122.241949,19.5788 122.241949,21.773 Z M140.143189,28.4828 L135.532746,16.6532 C135.310173,16.0808 135.24658,15.731 135.24658,15.3176 C135.24658,13.8548 136.391242,13.0916 137.631292,13.0916 C138.903139,13.0916 139.443674,14.0138 139.666247,14.7134 L142.591494,23.7446 L142.655086,23.7446 L145.580333,14.7134 C145.802906,14.0138 146.343441,13.0916 147.615288,13.0916 C148.855338,13.0916 150,13.8548 150,15.3176 C150,15.731 149.936408,16.0808 149.713835,16.6532 L145.103391,28.4828 C144.658245,29.6594 144.181302,30.3908 142.62329,30.3908 C141.065278,30.3908 140.588336,29.6594 140.143189,28.4828 Z M9.19373119,0.00306718175 C12.851179,0.115018405 16.4882363,0.393056239 20.1049032,0.837180686 C23.7215702,1.28130513 27.3178467,1.8915162 30.8937329,2.66781387 C33.944163,3.33003907 36.0880788,6.07445731 35.9925897,9.19484056 C35.880652,12.8527297 35.6026477,16.4902259 35.1585768,20.1073292 C34.714506,23.7244326 34.1043685,27.3211431 33.3281645,30.8974607 C32.6660192,33.9482589 29.9219321,36.0924335 26.8019253,35.9969328 C23.1444776,35.8849816 19.5074202,35.6069438 15.8907533,35.1628193 C12.2740863,34.7186949 8.67780979,34.1084838 5.10192367,33.3321861 C2.05149353,32.6699609 -0.0924222981,29.9255427 0.00306681169,26.8051594 C0.115004527,23.1472703 0.393008816,19.5097741 0.837079679,15.8926708 C1.28115054,12.2755674 1.89128798,8.67885692 2.66749199,5.1025393 C3.32963729,2.05174108 6.07372442,-0.0924334504 9.19373119,0.00306718175 Z M11.7043748,7.48854839 C11.492015,7.42168236 11.2697428,7.39182223 11.0472675,7.40027234 C9.97514212,7.44099405 9.13902026,8.34323975 9.17973698,9.41549451 C9.2961292,12.48062 9.54054752,15.5300239 9.91299194,18.5637063 C10.2851078,21.5947123 10.7850239,24.6100246 11.4127404,27.6096431 C11.4587931,27.8297115 11.5426901,28.0401155 11.6606956,28.2314865 C12.2238745,29.1448 13.4207186,29.4285851 14.333922,28.8653385 C17.0147501,27.2118537 19.6152353,25.4322995 22.1353776,23.526676 C24.6084499,21.6566448 26.8887792,19.7524498 28.9763655,17.8140912 C29.12784,17.6734446 29.2559012,17.5095227 29.3557179,17.3285095 C29.8738491,16.3889011 29.5322664,15.207119 28.5927714,14.6889253 C25.9112638,13.209896 23.1807163,11.877751 20.4011288,10.6924904 C17.6184892,9.50592826 14.7195712,8.43794759 11.7043748,7.48854839 Z" id="letznav-logo__no-tagline--white" fill="#FFFFFF"></path>
    </g>
</svg>