<?xml version="1.0" encoding="UTF-8"?>	
<svg width="24px" height="24px" viewBox="0 0 24 24" version="1.1" xmlns="http://www.w3.org/2000/svg" xmlns:xlink="http://www.w3.org/1999/xlink">	
    <!-- Generator: Sketch 48.1 (47250) - http://www.bohemiancoding.com/sketch -->	
    <title>player/list-icon--video</title>	
    <desc>Created with Sketch.</desc>	
    <defs></defs>	
    <g id="Symbols" stroke="none" stroke-width="1" fill="none" fill-rule="evenodd">	
        <g id="player/list-icon--video" fill="#000000">	
            <path d="M6,5 L18,5 C19.1045695,5 20,5.8954305 20,7 L20,17 C20,18.1045695 19.1045695,19 18,19 L6,19 C4.8954305,19 4,18.1045695 4,17 L4,7 C4,5.8954305 4.8954305,5 6,5 Z M6,7 L6,9 L8,9 L8,7 L6,7 Z M10,7 L10,17 L14,17 L14,7 L10,7 Z M6,11 L6,13 L8,13 L8,11 L6,11 Z M6,15 L6,17 L8,17 L8,15 L6,15 Z M16,7 L16,9 L18,9 L18,7 L16,7 Z M16,11 L16,13 L18,13 L18,11 L16,11 Z M16,15 L16,17 L18,17 L18,15 L16,15 Z" id="Combined-Shape"></path>	
        </g>	
    </g>	
</svg> 