<?xml version="1.0" encoding="UTF-8"?>
<svg width="25px" height="25px" viewBox="0 0 25 25" version="1.1" xmlns="http://www.w3.org/2000/svg" xmlns:xlink="http://www.w3.org/1999/xlink">
    <title>ED0D9696-F643-40FF-B34E-A125255AD9C5</title>
    <g id="Apty-Studio:-Publish" stroke="none" stroke-width="1" fill="none" fill-rule="evenodd">
        <g id="apty-studio--duplicate" transform="translate(-1027.000000, -484.000000)" fill="#32CEB0" fill-rule="nonzero">
            <g id="Group-20" transform="translate(900.000000, 444.000000)">
                <path d="M147,45 C149.761424,45 152,47.2385763 152,50 L152,60 C152,62.7614237 149.761424,65 147,65 L137,65 C134.238576,65 132,62.7614237 132,60 L132,50 C132,47.2385763 134.238576,45 137,45 L147,45 Z M147,48 L137,48 C135.945638,48 135.081835,48.8158778 135.005486,49.8507377 L135,50 L135,60 C135,61.0543618 135.815878,61.9181651 136.850738,61.9945143 L137,62 L147,62 C148.054362,62 148.918165,61.1841222 148.994514,60.1492623 L149,60 L149,50 C149,48.9456382 148.184122,48.0818349 147.149262,48.0054857 L147,48 Z M142,40 C144.050497,40 145.812706,41.23431 146.584158,43.0004611 L132,43 C130.945638,43 130.081835,43.8158778 130.005486,44.8507377 L130,45 L130.000461,59.5841577 C128.23431,58.8127064 127,57.0504975 127,55 L127,45 C127,42.2385763 129.238576,40 132,40 L142,40 Z" id="modal-make-copy-icon"></path>
            </g>
        </g>
    </g>
</svg>