<?xml version="1.0" encoding="UTF-8"?>
<svg width="33px" height="33px" viewBox="0 0 33 33" version="1.1" xmlns="http://www.w3.org/2000/svg" xmlns:xlink="http://www.w3.org/1999/xlink">
    <!-- Generator: Sketch 54.1 (76490) - https://sketchapp.com -->
    <title>modal-upgrade-icon</title>
    <desc>Created with Sketch.</desc>
    <g id="Editor-Electron" stroke="none" stroke-width="1" fill="none" fill-rule="evenodd">
        <path d="M16.5,31 C24.5081289,31 31,24.5081289 31,16.5 C31,8.49187113 24.5081289,2 16.5,2 C8.49187113,2 2,8.49187113 2,16.5 C2,24.5081289 8.49187113,31 16.5,31 Z M16.5,33 C7.38730163,33 0,25.6126984 0,16.5 C0,7.38730163 7.38730163,0 16.5,0 C25.6126984,0 33,7.38730163 33,16.5 C33,25.6126984 25.6126984,33 16.5,33 Z M20.9393398,16.0606602 L18,13.1213203 L18,24.5 C18,25.3284271 17.3284271,26 16.5,26 C15.6715729,26 15,25.3284271 15,24.5 L15,13.1213203 L12.0606602,16.0606602 C11.4748737,16.6464466 10.5251263,16.6464466 9.93933983,16.0606602 C9.35355339,15.4748737 9.35355339,14.5251263 9.93933983,13.9393398 L15.4393398,8.43933983 C16.0251263,7.85355339 16.9748737,7.85355339 17.5606602,8.43933983 L23.0606602,13.9393398 C23.6464466,14.5251263 23.6464466,15.4748737 23.0606602,16.0606602 C22.4748737,16.6464466 21.5251263,16.6464466 20.9393398,16.0606602 Z" id="modal-upgrade-icon" fill="#35D982" fill-rule="nonzero"></path>
    </g>
</svg>