<?xml version="1.0" encoding="UTF-8"?>
<svg width="40px" height="33px" viewBox="0 0 40 33" version="1.1" xmlns="http://www.w3.org/2000/svg" xmlns:xlink="http://www.w3.org/1999/xlink">
    <!-- Generator: Sketch 48.2 (47327) - http://www.bohemiancoding.com/sketch -->
    <title>page-frame-icon-dialog--warning</title>
    <desc>Created with Sketch.</desc>
    <defs></defs>
    <g id="letzNav-pages--not-detected-Copy-2" stroke="none" stroke-width="1" fill="none" fill-rule="evenodd" transform="translate(-1268.000000, -333.000000)">
        <g id="Group-Copy" transform="translate(1140.000000, 300.000000)">
            <g id="page-frame-icon-dialog--warning" transform="translate(128.000000, 33.000000)">
                <path d="M6,6 L27,6 C30.3137085,6 33,8.6862915 33,12 L33,27 C33,30.3137085 30.3137085,33 27,33 L6,33 C2.6862915,33 4.4408921e-16,30.3137085 0,27 L0,12 C-4.4408921e-16,8.6862915 2.6862915,6 6,6 Z" id="Rectangle-6" fill="#000000" fill-rule="nonzero" opacity="0.5"></path>
                <path d="M6,9 C4.34314575,9 3,10.3431458 3,12 L3,27 C3,28.6568542 4.34314575,30 6,30 L27,30 C28.6568542,30 30,28.6568542 30,27 L30,12 C30,10.3431458 28.6568542,9 27,9 L6,9 Z" id="Path" fill="#FFFFFF"></path>
                <polygon id="Combined-Shape" fill="#000000" opacity="0.200000003" points="11 17 11 30 9 30 9 17 3 17 3 15 30 15 30 17"></polygon>
                <rect id="Rectangle-3-Copy" fill="#D93535" x="23" y="0" width="17" height="17" rx="8.5"></rect>
                <path d="M33,3 L32.5,10 L30.5,10 L30,3 L33,3 Z M33,11 L33,14 L30,14 L30,11 L33,11 Z" id="page-frame-icon--warning" fill="#FFFFFF" fill-rule="nonzero"></path>
            </g>
        </g>
    </g>
</svg>