<?xml version="1.0" encoding="UTF-8"?>
<svg width="84px" height="14px" viewBox="0 0 84 14" version="1.1" xmlns="http://www.w3.org/2000/svg" xmlns:xlink="http://www.w3.org/1999/xlink">
    <title>9129118E-FCF2-4590-9925-06581425C79E</title>
    <g id="Page-1" stroke="none" stroke-width="1" fill="none" fill-rule="evenodd" opacity="0.200000003">
        <g id="mav-PER--7" transform="translate(-1106.000000, -755.000000)" fill="#FFFFFF">
            <path d="M1184.2469,757.411483 L1186.12894,763.195584 L1187.97815,757.411483 L1190,757.411483 L1186.91802,765.92602 C1186.46877,767.134852 1185.98098,767.949483 1185.45499,768.369741 C1184.929,768.789828 1184.38369,769 1183.81949,769 C1183.40316,769 1182.97826,768.922943 1182.54557,768.769085 L1182.54557,767.081195 C1182.86894,767.216624 1183.1866,767.284081 1183.49897,767.284081 C1184.07954,767.284081 1184.61948,766.613365 1185.11801,765.27219 L1182.10169,757.411483 L1184.2469,757.411483 Z M1171.80432,757.277512 C1172.08248,757.277512 1172.35935,757.299225 1172.63466,757.342565 C1172.91032,757.386162 1173.23447,757.500133 1173.60825,757.684563 C1173.98177,757.869251 1174.3022,758.108006 1174.56963,758.401087 C1174.83671,758.694253 1175.06837,759.124561 1175.26479,759.69167 C1175.4612,760.259035 1175.55932,760.914454 1175.55932,761.658097 C1175.55932,763.020341 1175.22408,764.06659 1174.55317,764.796845 C1173.88191,765.527186 1172.92218,765.892184 1171.67285,765.892184 C1171.20165,765.892184 1170.74161,765.842923 1170.29249,765.743971 L1170.29249,768.799043 L1168.27119,768.799043 L1168.27119,760.078467 C1168.27119,759.313025 1168.56001,758.654946 1169.13808,758.103887 C1169.71615,757.553085 1170.6047,757.277512 1171.80432,757.277512 Z M1148.86426,760.245117 L1149.86621,763.237793 L1150.02002,763.835449 L1150.04639,763.835449 L1151.21533,760.245117 L1152.17773,760.245117 L1150.17822,765.729492 C1150.0581,766.04883 1149.88599,766.327147 1149.66187,766.564453 C1149.43774,766.801759 1149.13526,766.92041 1148.75439,766.92041 C1148.68408,766.92041 1148.59473,766.912354 1148.48633,766.89624 C1148.37793,766.880127 1148.29443,766.864746 1148.23584,766.850098 L1148.32373,766.168945 C1148.30615,766.166016 1148.35815,766.168945 1148.47974,766.177734 C1148.60132,766.186523 1148.67822,766.190918 1148.71045,766.190918 C1148.89502,766.190918 1149.0459,766.108888 1149.16309,765.944824 C1149.28027,765.780761 1149.37842,765.599122 1149.45752,765.399902 L1149.66406,764.90332 L1147.89746,760.245117 L1148.86426,760.245117 Z M1179.36723,755 L1179.36723,757.459536 L1181.35593,757.459536 L1181.35593,759.172263 L1179.36723,759.172263 L1179.36723,763.263333 C1179.36723,763.620526 1179.44241,763.861363 1179.59329,763.98576 C1179.74409,764.110328 1180.01113,764.172441 1180.39449,764.172441 C1180.75603,764.172441 1181.0766,764.11298 1181.35593,763.993888 L1181.35593,765.641678 C1180.96148,765.803976 1180.53135,765.885167 1180.06578,765.885167 L1180.02464,765.885167 C1179.19183,765.885167 1178.53727,765.641678 1178.06062,765.154613 C1177.58397,764.667548 1177.34561,763.996711 1177.34561,763.141589 L1177.34561,759.172263 L1175.9322,759.172263 L1175.9322,757.459536 L1177.34561,757.459536 L1177.34561,755 L1179.36723,755 Z M1163.44928,757.311005 C1164.64794,757.311005 1165.56499,757.613416 1166.20006,758.218065 C1166.83513,758.822887 1167.15254,759.697366 1167.15254,760.841588 L1167.15254,763.086818 C1167.15254,763.851462 1166.86356,764.509186 1166.28602,765.059476 C1165.70839,765.610023 1164.82012,765.885167 1163.62146,765.885167 C1162.38129,765.885167 1161.46754,765.608565 1160.88047,765.055446 C1160.29349,764.502241 1160,763.829941 1160,763.037945 C1160,762.869977 1160.01646,762.697722 1160.04974,762.521438 C1160.08258,762.345239 1160.16932,762.124197 1160.30996,761.858398 C1160.45051,761.59277 1160.64209,761.359553 1160.88463,761.158832 C1161.12717,760.958282 1161.48557,760.786027 1161.95947,760.642238 C1162.43346,760.498707 1162.99297,760.426684 1163.63792,760.426684 C1164.09701,760.426684 1164.58911,760.464668 1165.11361,760.540549 C1165.11361,759.483012 1164.52048,758.954243 1163.33455,758.954243 C1162.38744,758.954243 1161.56451,759.095374 1160.86566,759.377292 L1160.86566,757.734054 C1161.64145,757.452136 1162.50252,757.311005 1163.44928,757.311005 Z M1113.46631,760.157227 C1114.12549,760.157227 1114.64624,760.384275 1115.02856,760.838379 C1115.41089,761.292483 1115.60205,761.872555 1115.60205,762.578613 L1115.60205,762.675293 C1115.60205,763.384281 1115.41162,763.964353 1115.03076,764.415527 C1114.6499,764.866701 1114.13135,765.092285 1113.4751,765.092285 C1112.81884,765.092285 1112.29956,764.865969 1111.91724,764.41333 C1111.53491,763.960691 1111.34375,763.381351 1111.34375,762.675293 L1111.34375,762.578613 C1111.34375,761.875485 1111.53418,761.296145 1111.91504,760.840576 C1112.2959,760.385007 1112.81299,760.157227 1113.46631,760.157227 Z M1125.31396,760.157227 C1125.95557,760.157227 1126.44043,760.350584 1126.76855,760.737305 C1127.09668,761.124025 1127.26074,761.639645 1127.26074,762.28418 L1127.26074,762.824707 L1124.17578,762.824707 L1124.1626,762.84668 C1124.17139,763.303713 1124.28711,763.679442 1124.50977,763.973877 C1124.73242,764.268312 1125.04443,764.415527 1125.4458,764.415527 C1125.73877,764.415527 1125.99585,764.37378 1126.21704,764.290283 C1126.43823,764.206787 1126.62939,764.091798 1126.79053,763.945312 L1127.12891,764.507812 C1126.95898,764.674806 1126.73486,764.813964 1126.45654,764.925293 C1126.17822,765.036622 1125.84131,765.092285 1125.4458,765.092285 C1124.78369,765.092285 1124.25708,764.871828 1123.86597,764.430908 C1123.47485,763.989988 1123.2793,763.417972 1123.2793,762.714844 L1123.2793,762.521484 C1123.2793,761.844723 1123.48071,761.281496 1123.88354,760.831787 C1124.28638,760.382078 1124.76318,760.157227 1125.31396,760.157227 Z M1133.07471,760.157227 C1133.71631,760.157227 1134.20117,760.350584 1134.5293,760.737305 C1134.85742,761.124025 1135.02148,761.639645 1135.02148,762.28418 L1135.02148,762.824707 L1131.93652,762.824707 L1131.92334,762.84668 C1131.93213,763.303713 1132.04785,763.679442 1132.27051,763.973877 C1132.49317,764.268312 1132.80517,764.415527 1133.20654,764.415527 C1133.49951,764.415527 1133.75659,764.37378 1133.97778,764.290283 C1134.19898,764.206787 1134.39014,764.091798 1134.55127,763.945312 L1134.88965,764.507812 C1134.71973,764.674806 1134.49561,764.813964 1134.21729,764.925293 C1133.93896,765.036622 1133.60205,765.092285 1133.20654,765.092285 C1132.54443,765.092285 1132.01782,764.871828 1131.62671,764.430908 C1131.23559,763.989988 1131.04004,763.417972 1131.04004,762.714844 L1131.04004,762.521484 C1131.04004,761.844723 1131.24145,761.281496 1131.64429,760.831787 C1132.04712,760.382078 1132.52392,760.157227 1133.07471,760.157227 Z M1139.81592,758.144531 L1139.81592,765 L1139.1084,765 L1139.00732,764.415527 C1138.85205,764.638185 1138.66162,764.80664 1138.43604,764.920898 C1138.21045,765.035157 1137.94824,765.092285 1137.64941,765.092285 C1137.06933,765.092285 1136.61524,764.882082 1136.28711,764.46167 C1135.95898,764.041258 1135.79492,763.488285 1135.79492,762.802734 L1135.79492,762.710449 C1135.79492,761.945797 1135.95825,761.329104 1136.28491,760.860352 C1136.61157,760.391599 1137.06933,760.157227 1137.6582,760.157227 C1137.93652,760.157227 1138.18335,760.208496 1138.39868,760.311035 C1138.61401,760.413575 1138.79785,760.562987 1138.9502,760.759277 L1138.9502,758.144531 L1139.81592,758.144531 Z M1144.21045,758.144531 L1144.21045,760.807617 C1144.35986,760.596679 1144.54516,760.435547 1144.76636,760.324219 C1144.98755,760.21289 1145.24609,760.157227 1145.54199,760.157227 C1146.12793,760.157227 1146.58496,760.391599 1146.91309,760.860352 C1147.24121,761.329104 1147.40527,761.945797 1147.40527,762.710449 L1147.40527,762.802734 C1147.40527,763.488285 1147.24048,764.041258 1146.91089,764.46167 C1146.5813,764.882082 1146.12793,765.092285 1145.55078,765.092285 C1145.2373,765.092285 1144.96484,765.031495 1144.7334,764.909912 C1144.50195,764.788329 1144.31006,764.608888 1144.15771,764.371582 L1144.05225,765 L1143.34473,765 L1143.34473,758.144531 L1144.21045,758.144531 Z M1108.44775,758.601562 C1109.13037,758.601562 1109.66064,758.777342 1110.03857,759.128906 C1110.41651,759.480471 1110.60547,759.943357 1110.60547,760.517578 C1110.60547,761.100589 1110.41651,761.565672 1110.03857,761.912842 C1109.66064,762.260012 1109.13037,762.433594 1108.44775,762.433594 L1106.86572,762.433594 L1106.86572,765 L1106,765 L1106,758.601562 L1108.44775,758.601562 Z M1117.0918,760.245117 L1117.87842,763.268555 L1117.97949,763.844238 L1118.00586,763.844238 L1118.12891,763.268555 L1119.07812,760.245117 L1119.77246,760.245117 L1120.72607,763.268555 L1120.8623,763.910156 L1120.88867,763.910156 L1121.01611,763.268555 L1121.76318,760.245117 L1122.62451,760.245117 L1121.24463,765 L1120.5459,765 L1119.62744,762.104004 L1119.42969,761.29541 L1119.40332,761.299805 L1119.21436,762.104004 L1118.30908,765 L1117.61035,765 L1116.23047,760.245117 L1117.0918,760.245117 Z M1130.271,760.157227 C1130.33545,760.157227 1130.39697,760.162353 1130.45557,760.172607 C1130.51416,760.182861 1130.5625,760.193848 1130.60059,760.205566 L1130.48193,761.009766 L1130.03809,760.983398 C1129.80957,760.983398 1129.61694,761.037597 1129.46021,761.145996 C1129.30347,761.254395 1129.18262,761.406737 1129.09766,761.603027 L1129.09766,765 L1128.23193,765 L1128.23193,760.245117 L1129.00537,760.245117 L1129.08887,760.939453 C1129.22363,760.693358 1129.38989,760.501466 1129.58765,760.36377 C1129.7854,760.226074 1130.01318,760.157227 1130.271,760.157227 Z M1153.15771,764.112305 L1153.15771,765 L1152.29199,765 L1152.29199,764.112305 L1153.15771,764.112305 Z M1113.46631,760.838379 C1113.05322,760.838379 1112.74048,761.003905 1112.52808,761.334961 C1112.31567,761.666017 1112.20947,762.080564 1112.20947,762.578613 L1112.20947,762.675293 C1112.20947,763.179202 1112.31567,763.595213 1112.52808,763.92334 C1112.74048,764.251466 1113.05615,764.415527 1113.4751,764.415527 C1113.88819,764.415527 1114.20166,764.251466 1114.41553,763.92334 C1114.6294,763.595213 1114.73633,763.179202 1114.73633,762.675293 L1114.73633,762.578613 C1114.73633,762.080564 1114.62866,761.666017 1114.41333,761.334961 C1114.198,761.003905 1113.88233,760.838379 1113.46631,760.838379 Z M1137.87793,760.860352 C1137.46191,760.860352 1137.15503,761.031737 1136.95728,761.374512 C1136.75952,761.717287 1136.66064,762.162595 1136.66064,762.710449 L1136.66064,762.802734 C1136.66064,763.283206 1136.75879,763.667723 1136.95508,763.956299 C1137.15137,764.244874 1137.45605,764.38916 1137.86914,764.38916 C1138.12695,764.38916 1138.34375,764.330567 1138.51953,764.213379 C1138.69531,764.096191 1138.83887,763.93213 1138.9502,763.721191 L1138.9502,761.501953 C1138.83887,761.305663 1138.69458,761.149659 1138.51733,761.033936 C1138.34009,760.918212 1138.12695,760.860352 1137.87793,760.860352 Z M1145.32227,760.860352 C1145.05566,760.860352 1144.83081,760.925536 1144.64771,761.055908 C1144.4646,761.18628 1144.31885,761.361327 1144.21045,761.581055 L1144.21045,763.64209 C1144.32178,763.876466 1144.46753,764.05957 1144.64771,764.191406 C1144.82788,764.323243 1145.05566,764.38916 1145.33105,764.38916 C1145.73828,764.38916 1146.0415,764.244142 1146.24072,763.954102 C1146.43994,763.664061 1146.53955,763.280276 1146.53955,762.802734 L1146.53955,762.710449 C1146.53955,762.165525 1146.43921,761.720949 1146.23853,761.376709 C1146.03784,761.032469 1145.73242,760.860352 1145.32227,760.860352 Z M1171.80432,758.995486 C1170.79652,758.995486 1170.29249,759.294145 1170.29249,759.891205 L1170.29249,764.23111 C1170.75798,764.296248 1171.17168,764.328861 1171.53316,764.328861 C1172.18511,764.328861 1172.68229,764.140311 1173.02455,763.762868 C1173.36672,763.385683 1173.5381,762.719451 1173.5381,761.763915 C1173.5381,760.786837 1173.40941,760.081299 1173.15194,759.646871 C1172.8943,759.2127 1172.44518,758.995486 1171.80432,758.995486 Z M1163.92483,761.703806 C1162.66205,761.703806 1162.02784,762.064606 1162.02247,762.785779 C1162.02247,763.675349 1162.54983,764.119919 1163.60508,764.119919 L1163.62146,764.119919 C1164.62741,764.119919 1165.13008,763.699785 1165.13008,762.859002 L1165.13008,761.809611 C1164.6599,761.744533 1164.25827,761.709379 1163.92483,761.703806 Z M1133.07471,760.838379 C1132.78467,760.838379 1132.53711,760.960692 1132.33203,761.205322 C1132.12695,761.449952 1132.00098,761.756834 1131.9541,762.125977 L1131.96289,762.147949 L1134.15576,762.147949 L1134.15576,762.033691 C1134.15576,761.693846 1134.06494,761.409669 1133.8833,761.181152 C1133.70166,760.952636 1133.43213,760.838379 1133.07471,760.838379 Z M1125.31396,760.838379 C1125.02392,760.838379 1124.77637,760.960692 1124.57129,761.205322 C1124.36621,761.449952 1124.24023,761.756834 1124.19336,762.125977 L1124.20215,762.147949 L1126.39502,762.147949 L1126.39502,762.033691 C1126.39502,761.693846 1126.3042,761.409669 1126.12256,761.181152 C1125.94092,760.952636 1125.67139,760.838379 1125.31396,760.838379 Z M1108.44775,759.282715 L1106.86572,759.282715 L1106.86572,761.756836 L1108.44775,761.756836 C1108.88135,761.756836 1109.20508,761.640382 1109.41895,761.407471 C1109.63281,761.174559 1109.73975,760.880861 1109.73975,760.526367 C1109.73975,760.171873 1109.63208,759.875978 1109.41675,759.638672 C1109.20141,759.401366 1108.87842,759.282715 1108.44775,759.282715 Z M1153.15771,760.262695 L1153.15771,761.150391 L1152.29199,761.150391 L1152.29199,760.262695 L1153.15771,760.262695 Z" id="poweredby-apty"></path>
        </g>
    </g>
</svg>