<?xml version="1.0" encoding="UTF-8"?>
<svg width="13px" height="19px" viewBox="0 0 13 19" version="1.1" xmlns="http://www.w3.org/2000/svg" xmlns:xlink="http://www.w3.org/1999/xlink">
    <!-- Generator: Sketch 48.1 (47250) - http://www.bohemiancoding.com/sketch -->
    <title>step-row__decision-point--icon</title>
    <desc>Created with Sketch.</desc>
    <defs></defs>
    <g id="letzNav-flows__steps__decision-point--updated" stroke="none" stroke-width="1" fill="none" fill-rule="evenodd" transform="translate(-1277.000000, -211.000000)">
        <g id="Group-Copy-2" transform="translate(1277.000000, 210.000000)" fill="#000000" fill-rule="nonzero">
            <path d="M2,7.66318442 C0.817526333,7.10145245 0,5.89619798 0,4.5 C0,2.56700338 1.56700338,1 3.5,1 C5.43299662,1 7,2.56700338 7,4.5 C7,5.89619798 6.18247367,7.10145245 5,7.66318442 L5,13.1842105 C5,13.5466134 5.57428965,14 6.43333333,14 L8,14 L8,11 L13,15.5 L8,20 L8,17 L6.43333333,17 C4.05230648,17 2,15.379758 2,13.1842105 L2,7.66318442 Z M3.5,6 C4.32842712,6 5,5.32842712 5,4.5 C5,3.67157288 4.32842712,3 3.5,3 C2.67157288,3 2,3.67157288 2,4.5 C2,5.32842712 2.67157288,6 3.5,6 Z" id="step-row__decision-point--icon"></path>
        </g>
    </g>
</svg>