<?xml version="1.0" encoding="UTF-8"?>
<svg width="20px" height="17px" viewBox="0 0 20 17" version="1.1" xmlns="http://www.w3.org/2000/svg" xmlns:xlink="http://www.w3.org/1999/xlink">
    <title>Group 14</title>
    <g id="Page-1" stroke="none" stroke-width="1" fill="none" fill-rule="evenodd">
        <g id="Artboard" transform="translate(-3970.000000, -578.000000)">
            <g id="Group-12" transform="translate(3519.000000, 486.000000)">
                <g id="Group-14" transform="translate(451.000000, 92.000000)">
                    <path d="M18,0 C19.1045695,0 20,0.8954305 20,2 L20,12 C20,13.1045695 19.1045695,14 18,14 L12.667,14 L10,16.5 L7.333,14 L2,14 C0.8954305,14 0,13.1045695 0,12 L0,2 C0,0.8954305 0.8954305,0 2,0 L18,0 Z" id="Path" fill="#000000" fill-rule="nonzero"></path>
                    <rect id="Rectangle" fill="#FFFFFF" x="2" y="2" width="16" height="10"></rect>
                    <rect id="Rectangle" fill="#000000" x="4" y="4" width="12" height="1"></rect>
                    <rect id="Rectangle" fill="#000000" x="4" y="6" width="8" height="1"></rect>
                </g>
            </g>
        </g>
    </g>
</svg>