<?xml version="1.0" encoding="UTF-8"?>
<svg width="24px" height="24px" viewBox="0 0 24 24" version="1.1" xmlns="http://www.w3.org/2000/svg" xmlns:xlink="http://www.w3.org/1999/xlink">
    <!-- Generator: Sketch 47 (45396) - http://www.bohemiancoding.com/sketch -->
    <title>validator--icon__req</title>
    <desc>Created with Sketch.</desc>
    <defs></defs>
    <g id="Symbols" stroke="none" stroke-width="1" fill="none" fill-rule="evenodd">
        <g id="validator--icon__req" fill-rule="nonzero" fill="#32CEB0">
            <path d="M12,22 C17.5228475,22 22,17.5228475 22,12 C22,6.4771525 17.5228475,2 12,2 C6.4771525,2 2,6.4771525 2,12 C2,17.5228475 6.4771525,22 12,22 Z M12,24 C5.372583,24 0,18.627417 0,12 C0,5.372583 5.372583,0 12,0 C18.627417,0 24,5.372583 24,12 C24,18.627417 18.627417,24 12,24 Z M10.2622169,12.7144509 L6,11.4797688 L6.75804529,9.13526012 L10.9916567,10.7583815 L10.8057211,6 L13.2943981,6 L13.079857,10.8554913 L17.2419547,9.26011561 L18,11.6323699 L13.6662694,12.8531792 L16.4553039,16.5433526 L14.4386174,18 L11.9070322,14.0184971 L9.41835518,17.8890173 L7.37306317,16.4739884 L10.2622169,12.7144509 Z" id="Combined-Shape"></path>
        </g>
    </g>
</svg>