<?xml version="1.0" encoding="UTF-8"?>
<svg width="279px" height="288px" viewBox="0 0 279 288" version="1.1" xmlns="http://www.w3.org/2000/svg" xmlns:xlink="http://www.w3.org/1999/xlink">
    <!-- Generator: Sketch 47 (45396) - http://www.bohemiancoding.com/sketch -->
    <title>validations-empty-bg</title>
    <desc>Created with Sketch.</desc>
    <defs></defs>
    <g id="brand" stroke="none" stroke-width="1" fill="none" fill-rule="evenodd" opacity="0.07">
        <path d="M130.213806,262.524272 C130.213806,261.671877 130.33146,260.846859 130.551471,260.064458 L40.4947838,208.216258 C38.8202292,210.264548 36.2686073,211.572816 33.4102834,211.572816 C28.3665938,211.572816 24.2778756,207.49929 24.2778756,202.474341 C24.2778756,197.860372 27.7251299,194.04856 32.1936254,193.455905 L32.1936254,89.5732211 C27.7251299,88.9805658 24.2778756,85.1687543 24.2778756,80.554785 C24.2778756,75.5298364 28.3665938,71.4563107 33.4102834,71.4563107 C35.9424143,71.4563107 38.2338508,72.4830166 39.8880617,74.1413707 L130.76969,21.8182287 C130.410088,20.8414385 130.213806,19.7861359 130.213806,18.6851595 C130.213806,13.6602109 134.302524,9.58668516 139.346214,9.58668516 C144.389867,9.5870645 148.478204,13.6604448 148.478204,18.6851595 C148.478204,19.7861359 148.281922,20.8414385 147.92232,21.8182287 L238.803948,74.1413707 C240.458159,72.4830166 242.749596,71.4563107 245.281726,71.4563107 C250.325416,71.4563107 254.414134,75.5298364 254.414134,80.554785 C254.414134,85.1687543 250.96688,88.9805658 246.498384,89.5732211 L246.498384,193.455905 C250.96688,194.04856 254.414134,197.860372 254.414134,202.474341 C254.414134,207.49929 250.325416,211.572816 245.281726,211.572816 C242.423403,211.572816 239.871781,210.264548 238.197226,208.216258 L148.140539,260.064458 C148.36055,260.846859 148.478204,261.671877 148.478204,262.524272 C148.478204,267.548987 144.389865,271.622368 139.346499,271.622746 C134.303132,271.623124 130.213806,267.54922 130.213806,262.524272 Z M131.713494,107.388573 C133.346353,109.858976 136.155049,111.489527 139.346005,111.489598 C142.536961,111.489527 145.345656,109.858976 146.978516,107.388573 L164.533965,117.495745 C163.620118,118.912588 163.090057,120.598506 163.090057,122.407767 C163.090057,127.221489 166.842256,131.162094 171.591715,131.48488 L171.591715,151.544247 C166.842256,151.867032 163.090057,155.807637 163.090057,160.621359 C163.090057,162.114754 163.451195,163.524114 164.09121,164.767484 L146.45208,174.922833 C144.778027,172.85933 142.216884,171.539704 139.346214,171.539528 C136.475467,171.539528 133.914095,172.859193 132.23993,174.922833 L114.6008,164.767484 C115.240815,163.524114 115.601953,162.114754 115.601953,160.621359 C115.601953,155.807637 111.849754,151.867032 107.100295,151.544247 L107.100295,131.48488 C111.849754,131.162094 115.601953,127.221489 115.601953,122.407767 C115.601953,120.598506 115.071892,118.912588 114.158045,117.495745 L131.713494,107.388573 Z M77.2801244,175.440884 C75.7567167,173.263727 73.302274,171.781348 70.4916864,171.566502 L70.4916864,111.462624 C73.3042556,111.247626 75.7601775,109.763308 77.2833451,107.583636 L97.6416044,119.545177 C97.3423952,120.445279 97.1804382,121.40768 97.1804382,122.407767 C97.1804382,126.96809 100.547997,130.744801 104.940743,131.404229 L104.940743,151.624897 C100.547997,152.284325 97.1804382,156.061036 97.1804382,160.621359 C97.1804382,161.619433 97.3417437,162.579972 97.6397988,163.478511 L77.2801244,175.440884 Z M68.4888343,111.398912 L68.4888343,171.630214 C64.058151,172.256508 60.650807,176.05082 60.650807,180.638003 C60.650807,182.081945 60.9884233,183.447325 61.5892995,184.660064 L40.5604479,197.015614 C39.0420189,195.001392 36.7040668,193.63544 34.0397779,193.409112 L34.0397779,89.6200143 C36.7060524,89.3935178 39.0455035,88.0256981 40.5638414,86.0090082 L61.5917948,98.36403 C60.9893581,99.5780235 60.650807,100.945184 60.650807,102.391123 C60.650807,106.978306 64.058151,110.772618 68.4888343,111.398912 Z M106.312846,169.719834 C109.137055,169.719834 111.661839,168.442609 113.337013,166.4363 L131.000651,176.60576 C130.396615,177.821036 130.057106,179.190019 130.057106,180.638003 C130.057106,185.325785 133.615539,189.185539 138.188088,189.682401 L138.188088,211.626892 C135.203299,211.951225 132.650623,213.708483 131.237742,216.193615 L77.6145395,185.32121 C78.4405577,183.95312 78.9156226,182.350834 78.9156226,180.638003 C78.9156226,179.419733 78.6752909,178.257387 78.2392855,177.195456 L98.4804154,165.302735 C100.077457,167.949239 102.987608,169.719834 106.312846,169.719834 Z M69.7832148,189.736477 C72.3808985,189.736477 74.725264,188.655924 76.3881796,186.921358 L130.443978,218.042821 C130.192347,218.874986 130.057106,219.757403 130.057106,220.67129 C130.057106,225.359072 133.615539,229.218826 138.188088,229.715688 L138.188088,253.479874 C135.143906,253.81066 132.549206,255.631965 131.154759,258.195807 L41.4272073,206.537099 C42.040769,205.314243 42.3859915,203.934458 42.3859915,202.474341 C42.3859915,201.141173 42.0981895,199.874975 41.5811081,198.734052 L62.6692362,186.343674 C64.3432417,188.412763 66.9080667,189.736477 69.7832148,189.736477 Z M42.3859915,80.554785 C42.3859915,78.7789574 41.8753389,77.121956 40.9923494,75.7215824 L131.508542,23.6088323 C132.963302,25.8567896 135.697077,27.4249867 138.5,27.7295575 L138.5,51.4937435 C133.927451,51.9906051 130.057106,55.8503591 130.057106,60.5381415 C130.057106,61.7001429 130.27575,62.811267 130.674286,63.8329063 L75.7160654,95.4739194 C74.1201269,94.113956 72.0479418,93.2926491 69.7832148,93.2926491 C66.910107,93.2926491 64.346882,94.6144852 62.6728013,96.6810484 L41.5834324,84.2899418 C42.0990518,83.1503544 42.3859915,81.8859544 42.3859915,80.554785 Z M78.9156226,102.391123 C78.9156226,100.360758 78.24809,98.4857234 77.1197494,96.9719766 L131.60281,65.6045264 C133.066645,67.7760028 135.756779,69.2844559 138.5,69.5825395 L138.5,93.3467254 C133.927451,93.8435871 130.057106,97.703341 130.057106,102.391123 C130.057106,103.523572 130.26477,104.607697 130.644228,105.607765 L112.721887,115.926167 C111.073225,114.307902 108.810089,113.309293 106.312846,113.309293 C102.989617,113.309293 100.080974,115.077748 98.4833119,117.721595 L78.2414335,105.828434 C78.6760801,104.767919 78.9156226,103.607391 78.9156226,102.391123 Z M201.499474,175.440884 L181.139799,163.478511 C181.437855,162.579972 181.59916,161.619433 181.59916,160.621359 C181.59916,156.061036 178.231601,152.284325 173.838856,151.624897 L173.838856,131.404229 C178.231601,130.744801 181.59916,126.96809 181.59916,122.407767 C181.59916,121.40768 181.437203,120.445279 181.137994,119.545177 L201.496253,107.583636 C203.019421,109.763308 205.475343,111.247626 208.287912,111.462624 L208.287912,171.566502 C205.477324,171.781348 203.022882,173.263727 201.499474,175.440884 Z M210.290764,111.398912 C214.721447,110.772618 218.128791,106.978306 218.128791,102.391123 C218.128791,100.945184 217.79024,99.5780235 217.187803,98.36403 L238.215757,86.0090082 C239.734095,88.0256981 242.073546,89.3935178 244.73982,89.6200143 L244.73982,193.409112 C242.075531,193.63544 239.737579,195.001392 238.21915,197.015614 L217.190299,184.660064 C217.791175,183.447325 218.128791,182.081945 218.128791,180.638003 C218.128791,176.05082 214.721447,172.256508 210.290764,171.630214 L210.290764,111.398912 Z M236.393607,80.554785 C236.393607,81.8859544 236.680546,83.1503544 237.196166,84.2899418 L216.106797,96.6810484 C214.432716,94.6144852 211.869491,93.2926491 208.996383,93.2926491 C206.731656,93.2926491 204.659471,94.113956 203.063533,95.4739194 L148.105312,63.8329063 C148.503848,62.811267 148.722492,61.7001429 148.722492,60.5381415 C148.722492,55.8503591 145.072549,51.9906051 140.5,51.4937435 L140.5,27.7295575 C143.302923,27.4249867 145.816297,25.8567896 147.271057,23.6088323 L237.787249,75.7215824 C236.904259,77.121956 236.393607,78.7789574 236.393607,80.554785 Z M199.863976,102.391123 C199.863976,103.607391 200.103518,104.767919 200.538165,105.828434 L180.296286,117.721595 C178.698624,115.077748 175.789981,113.309293 172.466752,113.309293 C169.969509,113.309293 167.706374,114.307902 166.057711,115.926167 L148.13537,105.607765 C148.514828,104.607697 148.722492,103.523572 148.722492,102.391123 C148.722492,97.703341 145.072549,93.8435871 140.5,93.3467254 L140.5,69.5825395 C143.243221,69.2844559 145.712953,67.7760028 147.176788,65.6045264 L201.659849,96.9719766 C200.531508,98.4857234 199.863976,100.360758 199.863976,102.391123 Z M172.066182,169.719834 C175.39142,169.719834 178.301571,167.949239 179.898612,165.302735 L200.139742,177.195456 C199.703737,178.257387 199.463405,179.419733 199.463405,180.638003 C199.463405,182.350834 199.93847,183.95312 200.764488,185.32121 L147.141285,216.193615 C145.728404,213.708483 143.175729,211.951225 140.19094,211.626892 L140.19094,189.682401 C144.763488,189.185539 148.321922,185.325785 148.321922,180.638003 C148.321922,179.190019 147.982412,177.821036 147.378377,176.60576 L165.042015,166.4363 C166.717189,168.442609 169.241973,169.719834 172.066182,169.719834 Z M208.595813,189.736477 C211.470961,189.736477 214.035786,188.412763 215.709792,186.343674 L236.79792,198.734052 C236.280838,199.874975 235.993036,201.141173 235.993036,202.474341 C235.993036,203.934458 236.338259,205.314243 236.951821,206.537099 L147.224268,258.195807 C145.829822,255.631965 143.235122,253.81066 140.19094,253.479874 L140.19094,229.715688 C144.763488,229.218826 148.321922,225.359072 148.321922,220.67129 C148.321922,219.757403 148.186681,218.874986 147.93505,218.042821 L201.990848,186.921358 C203.653764,188.655924 205.998129,189.736477 208.595813,189.736477 Z M33.2535837,87.6560333 C29.3156312,87.6560333 26.124028,84.4762892 26.124028,80.554785 C26.124028,76.6332808 29.3156312,73.4535368 33.2535837,73.4535368 C37.1915362,73.4535368 40.3831394,76.6332808 40.3831394,80.554785 C40.3831394,84.4762892 37.1915362,87.6560333 33.2535837,87.6560333 Z M69.7832148,109.492372 C65.8452623,109.492372 62.6536592,106.312628 62.6536592,102.391123 C62.6536592,98.4696192 65.8452623,95.2898752 69.7832148,95.2898752 C73.7211673,95.2898752 76.9127705,98.4696192 76.9127705,102.391123 C76.9127705,106.312628 73.7211673,109.492372 69.7832148,109.492372 Z M106.312846,129.509015 C102.374893,129.509015 99.1832903,126.329271 99.1832903,122.407767 C99.1832903,118.486263 102.374893,115.306519 106.312846,115.306519 C110.250798,115.306519 113.442402,118.486263 113.442402,122.407767 C113.442402,126.329271 110.250798,129.509015 106.312846,129.509015 Z M139.590084,25.7864078 C135.652132,25.7864078 132.460529,22.6066637 132.460529,18.6851595 C132.460529,14.7636553 135.652132,11.5839112 139.590084,11.5839112 C143.528037,11.5839112 146.71964,14.7636553 146.71964,18.6851595 C146.71964,22.6066637 143.528037,25.7864078 139.590084,25.7864078 Z M139.590084,67.6393897 C135.652132,67.6393897 132.460529,64.4596457 132.460529,60.5381415 C132.460529,56.6166373 135.652132,53.4368932 139.590084,53.4368932 C143.528037,53.4368932 146.71964,56.6166373 146.71964,60.5381415 C146.71964,64.4596457 143.528037,67.6393897 139.590084,67.6393897 Z M139.590084,109.492372 C135.652132,109.492372 132.460529,106.312628 132.460529,102.391123 C132.460529,98.4696192 135.652132,95.2898752 139.590084,95.2898752 C143.528037,95.2898752 146.71964,98.4696192 146.71964,102.391123 C146.71964,106.312628 143.528037,109.492372 139.590084,109.492372 Z M106.312846,167.722607 C102.374893,167.722607 99.1832903,164.542863 99.1832903,160.621359 C99.1832903,156.699855 102.374893,153.520111 106.312846,153.520111 C110.250798,153.520111 113.442402,156.699855 113.442402,160.621359 C113.442402,164.542863 110.250798,167.722607 106.312846,167.722607 Z M69.7832148,187.739251 C65.8452623,187.739251 62.6536592,184.559507 62.6536592,180.638003 C62.6536592,176.716499 65.8452623,173.536755 69.7832148,173.536755 C73.7211673,173.536755 76.9127705,176.716499 76.9127705,180.638003 C76.9127705,184.559507 73.7211673,187.739251 69.7832148,187.739251 Z M139.189514,227.772538 C135.251561,227.772538 132.059958,224.592794 132.059958,220.67129 C132.059958,216.749786 135.251561,213.570042 139.189514,213.570042 C143.127466,213.570042 146.31907,216.749786 146.31907,220.67129 C146.31907,224.592794 143.127466,227.772538 139.189514,227.772538 Z M139.189514,187.739251 C135.251561,187.739251 132.059958,184.559507 132.059958,180.638003 C132.059958,176.716499 135.251561,173.536755 139.189514,173.536755 C143.127466,173.536755 146.31907,176.716499 146.31907,180.638003 C146.31907,184.559507 143.127466,187.739251 139.189514,187.739251 Z M33.2535837,209.575589 C29.3156312,209.575589 26.124028,206.395845 26.124028,202.474341 C26.124028,198.552837 29.3156312,195.373093 33.2535837,195.373093 C37.1915362,195.373093 40.3831394,198.552837 40.3831394,202.474341 C40.3831394,206.395845 37.1915362,209.575589 33.2535837,209.575589 Z M139.189514,269.62552 C135.251561,269.62552 132.059958,266.445776 132.059958,262.524272 C132.059958,258.602768 135.251561,255.423024 139.189514,255.423024 C143.127466,255.423024 146.31907,258.602768 146.31907,262.524272 C146.31907,266.445776 143.127466,269.62552 139.189514,269.62552 Z M172.290382,129.509015 C168.352429,129.509015 165.160826,126.329271 165.160826,122.407767 C165.160826,118.486263 168.352429,115.306519 172.290382,115.306519 C176.228334,115.306519 179.419937,118.486263 179.419937,122.407767 C179.419937,126.329271 176.228334,129.509015 172.290382,129.509015 Z M172.290382,167.722607 C168.352429,167.722607 165.160826,164.542863 165.160826,160.621359 C165.160826,156.699855 168.352429,153.520111 172.290382,153.520111 C176.228334,153.520111 179.419937,156.699855 179.419937,160.621359 C179.419937,164.542863 176.228334,167.722607 172.290382,167.722607 Z M208.996383,109.492372 C205.058431,109.492372 201.866828,106.312628 201.866828,102.391123 C201.866828,98.4696192 205.058431,95.2898752 208.996383,95.2898752 C212.934336,95.2898752 216.125939,98.4696192 216.125939,102.391123 C216.125939,106.312628 212.934336,109.492372 208.996383,109.492372 Z M245.125444,87.6560333 C241.187492,87.6560333 237.995888,84.4762892 237.995888,80.554785 C237.995888,76.6332808 241.187492,73.4535368 245.125444,73.4535368 C249.063397,73.4535368 252.255,76.6332808 252.255,80.554785 C252.255,84.4762892 249.063397,87.6560333 245.125444,87.6560333 Z M208.996383,187.739251 C205.058431,187.739251 201.866828,184.559507 201.866828,180.638003 C201.866828,176.716499 205.058431,173.536755 208.996383,173.536755 C212.934336,173.536755 216.125939,176.716499 216.125939,180.638003 C216.125939,184.559507 212.934336,187.739251 208.996383,187.739251 Z M245.125444,209.575589 C241.187492,209.575589 237.995888,206.395845 237.995888,202.474341 C237.995888,198.552837 241.187492,195.373093 245.125444,195.373093 C249.063397,195.373093 252.255,198.552837 252.255,202.474341 C252.255,206.395845 249.063397,209.575589 245.125444,209.575589 Z M1.21041932,1.99722607 C0.657346982,1.99722607 0.208993264,1.55013179 0.208993264,0.998613037 C0.208993264,0.447094286 0.657346982,0 1.21041932,0 L19.6208162,0 C20.1738885,0 20.6222422,0.447094286 20.6222422,0.998613037 C20.6222422,1.55013179 20.1738885,1.99722607 19.6208162,1.99722607 L1.21041932,1.99722607 Z M26.5682687,1.99722607 C26.0151964,1.99722607 25.5668426,1.55013179 25.5668426,0.998613037 C25.5668426,0.447094286 26.0151964,0 26.5682687,0 L32.7050676,0 C33.25814,0 33.7064937,0.447094286 33.7064937,0.998613037 C33.7064937,1.55013179 33.25814,1.99722607 32.7050676,1.99722607 L26.5682687,1.99722607 Z M1.00142606,8.99722607 C0.448353718,8.99722607 0,8.55013179 0,7.99861304 C0,7.44709429 0.448353718,7 1.00142606,7 L10.2066245,7 C10.7596968,7 11.2080505,7.44709429 11.2080505,7.99861304 C11.2080505,8.55013179 10.7596968,8.99722607 10.2066245,8.99722607 L1.00142606,8.99722607 Z M17.8079677,8.99722607 C17.2548954,8.99722607 16.8065417,8.55013179 16.8065417,7.99861304 C16.8065417,7.44709429 17.2548954,7 17.8079677,7 L43.8893632,7 C44.4424356,7 44.8907893,7.44709429 44.8907893,7.99861304 C44.8907893,8.55013179 44.4424356,8.99722607 43.8893632,8.99722607 L17.8079677,8.99722607 Z M245.569786,276.997226 C245.016713,276.997226 244.56836,276.550132 244.56836,275.998613 C244.56836,275.447094 245.016713,275 245.569786,275 L263.980183,275 C264.533255,275 264.981609,275.447094 264.981609,275.998613 C264.981609,276.550132 264.533255,276.997226 263.980183,276.997226 L245.569786,276.997226 Z M270.927635,276.997226 C270.374563,276.997226 269.926209,276.550132 269.926209,275.998613 C269.926209,275.447094 270.374563,275 270.927635,275 L277.064434,275 C277.617506,275 278.06586,275.447094 278.06586,275.998613 C278.06586,276.550132 277.617506,276.997226 277.064434,276.997226 L270.927635,276.997226 Z M234.945962,286.002774 C234.392889,286.002774 233.944535,285.55568 233.944535,285.004161 C233.944535,284.452642 234.392889,284.005548 234.945962,284.005548 L244.15116,284.005548 C244.704232,284.005548 245.152586,284.452642 245.152586,285.004161 C245.152586,285.55568 244.704232,286.002774 244.15116,286.002774 L234.945962,286.002774 Z M251.351933,286.002774 C250.79886,286.002774 250.350507,285.55568 250.350507,285.004161 C250.350507,284.452642 250.79886,284.005548 251.351933,284.005548 L277.433328,284.005548 C277.986401,284.005548 278.434754,284.452642 278.434754,285.004161 C278.434754,285.55568 277.986401,286.002774 277.433328,286.002774 L251.351933,286.002774 Z M268.774046,17.1761442 C264.791925,17.1761442 261.563778,13.9570654 261.563778,9.98613037 C261.563778,6.01519536 264.791925,2.7961165 268.774046,2.7961165 C272.756167,2.7961165 275.984313,6.01519536 275.984313,9.98613037 C275.984313,13.9570654 272.756167,17.1761442 268.774046,17.1761442 Z M268.774046,15.1789182 C265.89807,15.1789182 263.56663,12.8540279 263.56663,9.98613037 C263.56663,7.11823287 265.89807,4.79334258 268.774046,4.79334258 C271.650022,4.79334258 273.981461,7.11823287 273.981461,9.98613037 C273.981461,12.8540279 271.650022,15.1789182 268.774046,15.1789182 Z M51.6648765,288 C47.6827557,288 44.4546089,284.780921 44.4546089,280.809986 C44.4546089,276.839051 47.6827557,273.619972 51.6648765,273.619972 C55.6469974,273.619972 58.8751441,276.839051 58.8751441,280.809986 C58.8751441,284.780921 55.6469974,288 51.6648765,288 Z M51.6648765,286.002774 C48.7889003,286.002774 46.457461,283.677884 46.457461,280.809986 C46.457461,277.942089 48.7889003,275.617198 51.6648765,275.617198 C54.5408527,275.617198 56.872292,277.942089 56.872292,280.809986 C56.872292,283.677884 54.5408527,286.002774 51.6648765,286.002774 Z M5,94.283865 C5,93.7323463 5.44835372,93.285252 6.00142606,93.285252 C6.5544984,93.285252 7.00285211,93.7323463 7.00285211,94.283865 L7.00285211,115.840244 C7.00285211,116.391763 6.5544984,116.838858 6.00142606,116.838858 C5.44835372,116.838858 5,116.391763 5,115.840244 L5,94.283865 Z M5,124.404993 C5,123.853474 5.44835372,123.40638 6.00142606,123.40638 C6.5544984,123.40638 7.00285211,123.853474 7.00285211,124.404993 L7.00285211,133.643441 C7.00285211,134.19496 6.5544984,134.642054 6.00142606,134.642054 C5.44835372,134.642054 5,134.19496 5,133.643441 L5,124.404993 Z M269,186.156264 C269,185.604746 269.448354,185.157651 270.001426,185.157651 C270.554498,185.157651 271.002852,185.604746 271.002852,186.156264 L271.002852,207.712644 C271.002852,208.264163 270.554498,208.711257 270.001426,208.711257 C269.448354,208.711257 269,208.264163 269,207.712644 L269,186.156264 Z M269,216.277393 C269,215.725874 269.448354,215.278779 270.001426,215.278779 C270.554498,215.278779 271.002852,215.725874 271.002852,216.277393 L271.002852,225.515841 C271.002852,226.06736 270.554498,226.514454 270.001426,226.514454 C269.448354,226.514454 269,226.06736 269,225.515841 L269,216.277393 Z M6.09287398,235.180467 C5.70179278,234.790485 5.70179278,234.158198 6.09287398,233.768215 C6.48395518,233.378232 7.11802309,233.378232 7.50910429,233.768215 L10.7136677,236.963777 C11.1047489,237.35376 11.1047489,237.986046 10.7136677,238.376029 C10.3225865,238.766012 9.68851857,238.766012 9.29743737,238.376029 L6.09287398,235.180467 Z M17.3088458,246.364933 C16.9177646,245.974951 16.9177646,245.342664 17.3088458,244.952681 C17.699927,244.562699 18.3339949,244.562699 18.7250761,244.952681 L21.9296395,248.148243 C22.3207207,248.538226 22.3207207,249.170512 21.9296395,249.560495 C21.5385583,249.950478 20.9044904,249.950478 20.5134092,249.560495 L17.3088458,246.364933 Z M10.7136677,246.364933 L7.50910429,249.560495 C7.11802309,249.950478 6.48395518,249.950478 6.09287398,249.560495 C5.70179278,249.170512 5.70179278,248.538226 6.09287398,248.148243 L9.29743737,244.952681 C9.68851857,244.562699 10.3225865,244.562699 10.7136677,244.952681 C11.1047489,245.342664 11.1047489,245.974951 10.7136677,246.364933 Z M21.9296395,235.180467 L18.7250761,238.376029 C18.3339949,238.766012 17.699927,238.766012 17.3088458,238.376029 C16.9177646,237.986046 16.9177646,237.35376 17.3088458,236.963777 L20.5134092,233.768215 C20.9044904,233.378232 21.5385583,233.378232 21.9296395,233.768215 C22.3207207,234.158198 22.3207207,234.790485 21.9296395,235.180467 Z M191.156409,265.138858 C190.765328,264.748876 190.765328,264.116589 191.156409,263.726606 C191.547491,263.336624 192.181559,263.336624 192.57264,263.726606 L195.777203,266.922168 C196.168284,267.312151 196.168284,267.944437 195.777203,268.33442 C195.386122,268.724403 194.752054,268.724403 194.360973,268.33442 L191.156409,265.138858 Z M202.372381,276.323324 C201.9813,275.933342 201.9813,275.301055 202.372381,274.911072 C202.763462,274.52109 203.39753,274.52109 203.788612,274.911072 L206.993175,278.106634 C207.384256,278.496617 207.384256,279.128903 206.993175,279.518886 C206.602094,279.908869 205.968026,279.908869 205.576945,279.518886 L202.372381,276.323324 Z M195.777203,276.323324 L192.57264,279.518886 C192.181559,279.908869 191.547491,279.908869 191.156409,279.518886 C190.765328,279.128903 190.765328,278.496617 191.156409,278.106634 L194.360973,274.911072 C194.752054,274.52109 195.386122,274.52109 195.777203,274.911072 C196.168284,275.301055 196.168284,275.933342 195.777203,276.323324 Z M206.993175,265.138858 L203.788612,268.33442 C203.39753,268.724403 202.763462,268.724403 202.372381,268.33442 C201.9813,267.944437 201.9813,267.312151 202.372381,266.922168 L205.576945,263.726606 C205.968026,263.336624 206.602094,263.336624 206.993175,263.726606 C207.384256,264.116589 207.384256,264.748876 206.993175,265.138858 Z M262.869924,114.548012 C262.478842,114.15803 262.478842,113.525743 262.869924,113.13576 C263.261005,112.745778 263.895073,112.745778 264.286154,113.13576 L267.490717,116.331322 C267.881798,116.721305 267.881798,117.353591 267.490717,117.743574 C267.099636,118.133557 266.465568,118.133557 266.074487,117.743574 L262.869924,114.548012 Z M274.085895,125.732478 C273.694814,125.342496 273.694814,124.710209 274.085895,124.320226 C274.476977,123.930244 275.111045,123.930244 275.502126,124.320226 L278.706689,127.515788 C279.09777,127.905771 279.09777,128.538057 278.706689,128.92804 C278.315608,129.318023 277.68154,129.318023 277.290459,128.92804 L274.085895,125.732478 Z M267.490717,125.732478 L264.286154,128.92804 C263.895073,129.318023 263.261005,129.318023 262.869924,128.92804 C262.478842,128.538057 262.478842,127.905771 262.869924,127.515788 L266.074487,124.320226 C266.465568,123.930244 267.099636,123.930244 267.490717,124.320226 C267.881798,124.710209 267.881798,125.342496 267.490717,125.732478 Z M278.706689,114.548012 L275.502126,117.743574 C275.111045,118.133557 274.476977,118.133557 274.085895,117.743574 C273.694814,117.353591 273.694814,116.721305 274.085895,116.331322 L277.290459,113.13576 C277.68154,112.745778 278.315608,112.745778 278.706689,113.13576 C279.09777,113.525743 279.09777,114.15803 278.706689,114.548012 Z M205.576945,17.8822703 C205.185863,17.4922876 205.185863,16.8600008 205.576945,16.4700182 C205.968026,16.0800355 206.602094,16.0800355 206.993175,16.4700182 L210.197738,19.6655799 C210.58882,20.0555626 210.58882,20.6878494 210.197738,21.077832 C209.806657,21.4678147 209.172589,21.4678147 208.781508,21.077832 L205.576945,17.8822703 Z M216.792916,29.0667363 C216.401835,28.6767537 216.401835,28.0444669 216.792916,27.6544842 C217.183998,27.2645016 217.818066,27.2645016 218.209147,27.6544842 L221.41371,30.8500459 C221.804791,31.2400286 221.804791,31.8723154 221.41371,32.262298 C221.022629,32.6522807 220.388561,32.6522807 219.99748,32.262298 L216.792916,29.0667363 Z M210.197738,29.0667363 L206.993175,32.262298 C206.602094,32.6522807 205.968026,32.6522807 205.576945,32.262298 C205.185863,31.8723154 205.185863,31.2400286 205.576945,30.8500459 L208.781508,27.6544842 C209.172589,27.2645016 209.806657,27.2645016 210.197738,27.6544842 C210.58882,28.0444669 210.58882,28.6767537 210.197738,29.0667363 Z M221.41371,17.8822703 L218.209147,21.077832 C217.818066,21.4678147 217.183998,21.4678147 216.792916,21.077832 C216.401835,20.6878494 216.401835,20.0555626 216.792916,19.6655799 L219.99748,16.4700182 C220.388561,16.0800355 221.022629,16.0800355 221.41371,16.4700182 C221.804791,16.8600008 221.804791,17.4922876 221.41371,17.8822703 Z" id="validations-empty-bg" fill="#888888"></path>
    </g>
</svg>