<?xml version="1.0" encoding="UTF-8"?>
<svg width="289px" height="274px" viewBox="0 0 289 274" version="1.1" xmlns="http://www.w3.org/2000/svg" xmlns:xlink="http://www.w3.org/1999/xlink">
    <!-- Generator: Sketch 47 (45396) - http://www.bohemiancoding.com/sketch -->
    <title>workflows-empty-bg</title>
    <desc>Created with Sketch.</desc>
    <defs></defs>
    <g id="brand" stroke="none" stroke-width="1" fill="none" fill-rule="evenodd" opacity="0.07">
        <path d="M11,1.00081169 C11,0.448078655 11.4473853,0 11.9992631,0 C12.5511409,0 12.9985262,0.448078655 12.9985262,1.00081169 L12.9985262,33.4065721 C12.9985262,33.9593051 12.5511409,34.4073838 11.9992631,34.4073838 C11.4473853,34.4073838 11,33.9593051 11,33.4065721 L11,1.00081169 Z M11,43.7910714 C11,43.2383384 11.4473853,42.7902597 11.9992631,42.7902597 C12.5511409,42.7902597 12.9985262,43.2383384 12.9985262,43.7910714 L12.9985262,53.0498601 C12.9985262,53.6025931 12.5511409,54.0506718 11.9992631,54.0506718 C11.4473853,54.0506718 11,53.6025931 11,53.0498601 L11,43.7910714 Z M287.001474,210.770942 C287.001474,210.218209 287.448859,209.77013 288.000737,209.77013 C288.552615,209.77013 289,210.218209 289,210.770942 L289,243.176702 C289,243.729435 288.552615,244.177514 288.000737,244.177514 C287.448859,244.177514 287.001474,243.729435 287.001474,243.176702 L287.001474,210.770942 Z M287.001474,251.959903 C287.001474,251.40717 287.448859,250.959091 288.000737,250.959091 C288.552615,250.959091 289,251.40717 289,251.959903 L289,261.218691 C289,261.771424 288.552615,262.219503 288.000737,262.219503 C287.448859,262.219503 287.001474,261.771424 287.001474,261.218691 L287.001474,251.959903 Z M233.632135,2.00162338 C233.080257,2.00162338 232.632872,1.55354472 232.632872,1.00081169 C232.632872,0.448078655 233.080257,-4.39648318e-14 233.632135,-4.39648318e-14 L259.657198,-4.39648318e-14 C260.209076,-4.39648318e-14 260.656461,0.448078655 260.656461,1.00081169 C260.656461,1.55354472 260.209076,2.00162338 259.657198,2.00162338 L233.632135,2.00162338 Z M266.755534,2.00162338 C266.203657,2.00162338 265.756271,1.55354472 265.756271,1.00081169 C265.756271,0.448078655 266.203657,-4.39648318e-14 266.755534,-4.39648318e-14 L272.879079,-4.39648318e-14 C273.430956,-4.39648318e-14 273.878342,0.448078655 273.878342,1.00081169 C273.878342,1.55354472 273.430956,2.00162338 272.879079,2.00162338 L266.755534,2.00162338 Z M239.645092,11.9875 C239.093214,11.9875 238.645829,11.5394213 238.645829,10.9866883 C238.645829,10.4339553 239.093214,9.98587662 239.645092,9.98587662 L248.830408,9.98587662 C249.382286,9.98587662 249.829671,10.4339553 249.829671,10.9866883 C249.829671,11.5394213 249.382286,11.9875 248.830408,11.9875 L239.645092,11.9875 Z M255.841843,11.9875 C255.289966,11.9875 254.84258,11.5394213 254.84258,10.9866883 C254.84258,10.4339553 255.289966,9.98587662 255.841843,9.98587662 L274.212476,9.98587662 C274.764354,9.98587662 275.211739,10.4339553 275.211739,10.9866883 C275.211739,11.5394213 274.764354,11.9875 274.212476,11.9875 L255.841843,11.9875 Z M0.999263103,263.001623 C0.44738533,263.001623 0,262.553545 0,262.000812 C0,261.448079 0.44738533,261 0.999263103,261 L27.0243261,261 C27.5762038,261 28.0235892,261.448079 28.0235892,262.000812 C28.0235892,262.553545 27.5762038,263.001623 27.0243261,263.001623 L0.999263103,263.001623 Z M34.1226627,263.001623 C33.5707849,263.001623 33.1233996,262.553545 33.1233996,262.000812 C33.1233996,261.448079 33.5707849,261 34.1226627,261 L40.2462069,261 C40.7980847,261 41.24547,261.448079 41.24547,262.000812 C41.24547,262.553545 40.7980847,263.001623 40.2462069,263.001623 L34.1226627,263.001623 Z M2.21575732,272.999188 C1.66387954,272.999188 1.21649421,272.55111 1.21649421,271.998377 C1.21649421,271.445644 1.66387954,270.997565 2.21575732,270.997565 L11.4010737,270.997565 C11.9529514,270.997565 12.4003368,271.445644 12.4003368,271.998377 C12.4003368,272.55111 11.9529514,272.999188 11.4010737,272.999188 L2.21575732,272.999188 Z M18.9338635,272.999188 C18.3819857,272.999188 17.9346004,272.55111 17.9346004,271.998377 C17.9346004,271.445644 18.3819857,270.997565 18.9338635,270.997565 L60.267787,270.997565 C60.8196648,270.997565 61.2670501,271.445644 61.2670501,271.998377 C61.2670501,272.55111 60.8196648,272.999188 60.267787,272.999188 L18.9338635,272.999188 Z M75.157696,14.3894481 C78.4689626,14.3894481 81.1532746,11.7009761 81.1532746,8.38457792 C81.1532746,5.06817972 78.4689626,2.37970779 75.157696,2.37970779 C71.8464293,2.37970779 69.1621174,5.06817972 69.1621174,8.38457792 C69.1621174,11.7009761 71.8464293,14.3894481 75.157696,14.3894481 Z M75.157696,16.3910714 C70.7426738,16.3910714 67.1635911,12.8064422 67.1635911,8.38457792 C67.1635911,3.96271366 70.7426738,0.378084416 75.157696,0.378084416 C79.5727182,0.378084416 83.1518008,3.96271366 83.1518008,8.38457792 C83.1518008,12.8064422 79.5727182,16.3910714 75.157696,16.3910714 Z M120.324388,254.984578 C123.635655,254.984578 126.319967,252.296106 126.319967,248.979708 C126.319967,245.66331 123.635655,242.974838 120.324388,242.974838 C117.013122,242.974838 114.32881,245.66331 114.32881,248.979708 C114.32881,252.296106 117.013122,254.984578 120.324388,254.984578 Z M120.324388,256.986201 C115.909366,256.986201 112.330283,253.401572 112.330283,248.979708 C112.330283,244.557844 115.909366,240.973214 120.324388,240.973214 C124.73941,240.973214 128.318493,244.557844 128.318493,248.979708 C128.318493,253.401572 124.73941,256.986201 120.324388,256.986201 Z M190.765335,259.295181 C190.375099,258.904339 190.375099,258.270661 190.765335,257.879819 C191.155572,257.488978 191.78827,257.488978 192.178507,257.879819 L195.376149,261.082417 C195.766385,261.473258 195.766385,262.106937 195.376149,262.497778 C194.985912,262.888619 194.353214,262.888619 193.962977,262.497778 L190.765335,259.295181 Z M201.957082,270.504272 C201.566846,270.11343 201.566846,269.479751 201.957082,269.08891 C202.347319,268.698069 202.980017,268.698069 203.370254,269.08891 L206.567896,272.291508 C206.958132,272.682349 206.958132,273.316028 206.567896,273.706869 C206.177659,274.09771 205.544961,274.09771 205.154724,273.706869 L201.957082,270.504272 Z M195.376149,270.504272 L192.178507,273.706869 C191.78827,274.09771 191.155572,274.09771 190.765335,273.706869 C190.375099,273.316028 190.375099,272.682349 190.765335,272.291508 L193.962977,269.08891 C194.353214,268.698069 194.985912,268.698069 195.376149,269.08891 C195.766385,269.479751 195.766385,270.11343 195.376149,270.504272 Z M206.567896,259.295181 L203.370254,262.497778 C202.980017,262.888619 202.347319,262.888619 201.957082,262.497778 C201.566846,262.106937 201.566846,261.473258 201.957082,261.082417 L205.154724,257.879819 C205.544961,257.488978 206.177659,257.488978 206.567896,257.879819 C206.958132,258.270661 206.958132,258.904339 206.567896,259.295181 Z M253.119353,87.555895 C252.729117,87.1650537 252.729117,86.5313748 253.119353,86.1405336 C253.50959,85.7496923 254.142288,85.7496923 254.532524,86.1405336 L257.730166,89.343131 C258.120403,89.7339722 258.120403,90.3676511 257.730166,90.7584924 C257.33993,91.1493337 256.707232,91.1493337 256.316995,90.7584924 L253.119353,87.555895 Z M264.3111,98.7649859 C263.920863,98.3741447 263.920863,97.7404657 264.3111,97.3496245 C264.701336,96.9587832 265.334035,96.9587832 265.724271,97.3496245 L268.921913,100.552222 C269.31215,100.943063 269.31215,101.576742 268.921913,101.967583 C268.531677,102.358425 267.898978,102.358425 267.508742,101.967583 L264.3111,98.7649859 Z M257.730166,98.7649859 L254.532524,101.967583 C254.142288,102.358425 253.50959,102.358425 253.119353,101.967583 C252.729117,101.576742 252.729117,100.943063 253.119353,100.552222 L256.316995,97.3496245 C256.707232,96.9587832 257.33993,96.9587832 257.730166,97.3496245 C258.120403,97.7404657 258.120403,98.3741447 257.730166,98.7649859 Z M268.921913,87.555895 L265.724271,90.7584924 C265.334035,91.1493337 264.701336,91.1493337 264.3111,90.7584924 C263.920863,90.3676511 263.920863,89.7339722 264.3111,89.343131 L267.508742,86.1405336 C267.898978,85.7496923 268.531677,85.7496923 268.921913,86.1405336 C269.31215,86.5313748 269.31215,87.1650537 268.921913,87.555895 Z M36.0794071,80.3500509 C35.6891706,79.9592096 35.6891706,79.3255307 36.0794071,78.9346894 C36.4696436,78.5438481 37.102342,78.5438481 37.4925785,78.9346894 L40.6902205,82.1372868 C41.080457,82.5281281 41.080457,83.161807 40.6902205,83.5526483 C40.2999839,83.9434895 39.6672855,83.9434895 39.277049,83.5526483 L36.0794071,80.3500509 Z M47.2711539,91.5591418 C46.8809173,91.1683005 46.8809173,90.5346216 47.2711539,90.1437803 C47.6613904,89.752939 48.2940888,89.752939 48.6843253,90.1437803 L51.8819672,93.3463777 C52.2722037,93.737219 52.2722037,94.3708979 51.8819672,94.7617392 C51.4917307,95.1525804 50.8590323,95.1525804 50.4687958,94.7617392 L47.2711539,91.5591418 Z M40.6902205,91.5591418 L37.4925785,94.7617392 C37.102342,95.1525804 36.4696436,95.1525804 36.0794071,94.7617392 C35.6891706,94.3708979 35.6891706,93.737219 36.0794071,93.3463777 L39.277049,90.1437803 C39.6672855,89.752939 40.2999839,89.752939 40.6902205,90.1437803 C41.080457,90.5346216 41.080457,91.1683005 40.6902205,91.5591418 Z M51.8819672,80.3500509 L48.6843253,83.5526483 C48.2940888,83.9434895 47.6613904,83.9434895 47.2711539,83.5526483 C46.8809173,83.161807 46.8809173,82.5281281 47.2711539,82.1372868 L50.4687958,78.9346894 C50.8590323,78.5438481 51.4917307,78.5438481 51.8819672,78.9346894 C52.2722037,79.3255307 52.2722037,79.9592096 51.8819672,80.3500509 Z M59.9413566,154.77002 C84.0287974,154.77002 103.630157,174.018929 104.265217,198.005084 L184.348188,198.00508 C184.983248,174.018929 204.584608,154.77002 228.672049,154.77002 C253.160212,154.77002 273.01179,174.664712 273.01179,199.206058 C273.01179,223.747405 253.160212,243.642097 228.672049,243.642097 C204.450748,243.642097 184.765527,224.178651 184.33936,200.006708 L104.274045,200.006708 C103.847879,224.178651 84.1626577,243.642097 59.9413566,243.642097 C35.4531935,243.642097 15.601615,223.747405 15.601615,199.206058 C15.601615,174.664712 35.4531935,154.77002 59.9413566,154.77002 Z M59.9413566,207.09263 C64.2644296,207.09263 67.7694758,203.579971 67.7694758,199.246266 C67.7694758,194.912561 64.2644296,191.399902 59.9413566,191.399902 C55.6182836,191.399902 52.1132374,194.912561 52.1132374,199.246266 C52.1132374,203.579971 55.6182836,207.09263 59.9413566,207.09263 Z M228.672049,207.09263 C232.995122,207.09263 236.500168,203.579971 236.500168,199.246266 C236.500168,194.912561 232.995122,191.399902 228.672049,191.399902 C224.348976,191.399902 220.84393,194.912561 220.84393,199.246266 C220.84393,203.579971 224.348976,207.09263 228.672049,207.09263 Z M59.9413566,156.77002 C36.557227,156.77002 17.6001412,175.768276 17.6001412,199.204435 C17.6001412,222.640594 36.557227,241.638851 59.9413566,241.638851 C83.0586117,241.638851 101.849295,223.07176 102.275186,200.005084 L69.7359946,200.005084 C69.329399,205.069525 65.0994976,209.052422 59.9413566,209.052422 C54.5142502,209.052422 50.1147112,204.643328 50.1147112,199.204435 C50.1147112,193.765542 54.5142502,189.356448 59.9413566,189.356448 C64.9627951,189.356448 69.104543,193.131031 69.6956652,198.003461 L102.265941,198.003461 C101.63149,175.122664 82.9247238,156.77002 59.9413566,156.77002 Z M186.338219,200.005084 C186.764111,223.07176 205.554794,241.638851 228.672049,241.638851 C252.056178,241.638851 271.013264,222.640594 271.013264,199.204435 C271.013264,175.768276 252.056178,156.77002 228.672049,156.77002 C205.688682,156.77002 186.981915,175.122664 186.347464,198.003457 L218.91774,198.003461 C219.508862,193.131031 223.65061,189.356448 228.672049,189.356448 C234.099155,189.356448 238.498694,193.765542 238.498694,199.204435 C238.498694,204.643328 234.099155,209.052422 228.672049,209.052422 C223.513908,209.052422 219.284006,205.069525 218.877411,200.005084 L186.338219,200.005084 Z M144.067028,97.5769156 C167.31879,97.5769156 186.168569,78.6861976 186.168569,55.3826948 C186.168569,32.079192 167.31879,13.188474 144.067028,13.188474 C120.815267,13.188474 101.965487,32.079192 101.965487,55.3826948 C101.965487,78.6861976 120.815267,97.5769156 144.067028,97.5769156 Z M144.067028,99.578539 C119.711234,99.578539 99.9669611,79.7913855 99.9669611,55.3826948 C99.9669611,30.9740041 119.711234,11.1868506 144.067028,11.1868506 C168.422823,11.1868506 188.167096,30.9740041 188.167096,55.3826948 C188.167096,79.7913855 168.422823,99.578539 144.067028,99.578539 Z M123.892707,36.0016234 L164.283011,36.0016234 C164.834889,36.0016234 165.282274,35.5535447 165.282274,35.0008117 C165.282274,34.4480787 164.834889,34 164.283011,34 L123.892707,34 C123.340829,34 122.893443,34.4480787 122.893443,35.0008117 C122.893443,35.5535447 123.340829,36.0016234 123.892707,36.0016234 Z M123.892707,75.0016234 L164.283011,75.0016234 C164.834889,75.0016234 165.282274,74.5535447 165.282274,74.0008117 C165.282274,73.4480787 164.834889,73 164.283011,73 L123.892707,73 C123.340829,73 122.893443,73.4480787 122.893443,74.0008117 C122.893443,74.5535447 123.340829,75.0016234 123.892707,75.0016234 Z M118.390619,49.0016234 L169.796461,49.0016234 C170.348339,49.0016234 170.795724,48.5535447 170.795724,48.0008117 C170.795724,47.4480787 170.348339,47 169.796461,47 L118.390619,47 C117.838741,47 117.391356,47.4480787 117.391356,48.0008117 C117.391356,48.5535447 117.838741,49.0016234 118.390619,49.0016234 Z M118.390619,62.0016234 L169.796461,62.0016234 C170.348339,62.0016234 170.795724,61.5535447 170.795724,61.0008117 C170.795724,60.4480787 170.348339,60 169.796461,60 L118.390619,60 C117.838741,60 117.391356,60.4480787 117.391356,61.0008117 C117.391356,61.5535447 117.838741,62.0016234 118.390619,62.0016234 Z M169.96667,101.744913 C169.300495,100.589275 171.031269,99.588463 171.697445,100.744101 L198.211858,146.739581 L202.46653,130.856566 C202.609537,130.322713 203.15757,130.006048 203.690598,130.149276 C204.223625,130.292504 204.5398,130.841387 204.396793,131.375241 L199.476678,149.742404 C199.333735,150.276023 198.786092,150.592688 198.25321,150.449855 L179.911717,145.533601 C179.3786,145.390704 179.062086,144.842018 179.204761,144.308076 C179.347436,143.774133 179.895273,143.457128 180.42839,143.600025 L196.591805,147.932467 L169.96667,101.744913 Z M115.946397,101.744913 C116.612573,100.589275 114.881798,99.588463 114.215623,100.744101 L87.7012098,146.739581 L83.4465373,130.856566 C83.3035309,130.322713 82.7554973,130.006048 82.2224698,130.149276 C81.6894424,130.292504 81.3732678,130.841387 81.5162741,131.375241 L86.4363894,149.742404 C86.579333,150.276023 87.1269755,150.592688 87.6598576,150.449855 L106.001351,145.533601 C106.534467,145.390704 106.850982,144.842018 106.708307,144.308076 C106.565631,143.774133 106.017794,143.457128 105.484678,143.600025 L89.3212621,147.932467 L115.946397,101.744913 Z" id="workflows-empty-bg" fill="#888888" fill-rule="nonzero"></path>
    </g>
</svg>