<?xml version="1.0" encoding="UTF-8"?>
<svg width="30px" height="30px" viewBox="0 0 30 30" version="1.1" xmlns="http://www.w3.org/2000/svg" xmlns:xlink="http://www.w3.org/1999/xlink">
    <!-- Generator: sketchtool 60 (101010) - https://sketch.com -->
    <title>23C9F7C8-2AE9-4FDE-92A7-720F4D50ACB1</title>
    <desc>Created with sketchtool.</desc>
    <g id="Asset-Artboard-Page" stroke="none" stroke-width="1" fill="none" fill-rule="evenodd">
        <g id="tool-icon/md/Workflows" fill="#4A79E2" fill-rule="nonzero">
            <path d="M26,4 C27.6568542,4 29,5.34314575 29,7 L29,22 C29,23.6568542 27.6568542,25 26,25 L18.2,25 L15,29 L11.8,25 L4,25 C2.34314575,25 1,23.6568542 1,22 L1,7 C1,5.34314575 2.34314575,4 4,4 L26,4 Z M26,7 L4,7 L4,22 L26,22 L26,7 Z M24,9 L24,14 L22,14 L22,11 L16,11 L16,9 L24,9 Z" id="Shape"></path>
        </g>
    </g>
</svg>
