<?xml version="1.0" encoding="UTF-8"?>
<svg width="24px" height="24px" viewBox="0 0 24 24" version="1.1" xmlns="http://www.w3.org/2000/svg" xmlns:xlink="http://www.w3.org/1999/xlink">
    <!-- Generator: Sketch 48.1 (47250) - http://www.bohemiancoding.com/sketch -->
    <title>workflow--icon__exist</title>
    <desc>Created with Sketch.</desc>
    <defs></defs>
    <g id="Symbols" stroke="none" stroke-width="1" fill="none" fill-rule="evenodd">
        <g id="workflow--icon__exist" fill="#4A79E2">
            <path d="M12,22 C17.5228475,22 22,17.5228475 22,12 C22,6.4771525 17.5228475,2 12,2 C6.4771525,2 2,6.4771525 2,12 C2,17.5228475 6.4771525,22 12,22 Z M12,24 C5.372583,24 0,18.627417 0,12 C0,5.372583 5.372583,0 12,0 C18.627417,0 24,5.372583 24,12 C24,18.627417 18.627417,24 12,24 Z" id="Combined-Shape" fill-rule="nonzero"></path>
            <path d="M14,17 L9,17 L9,15 L14,15 L14,13 L11,13 L11,11 L14,11 L14,9 L9,9 L9,7 L14,7 C15.1045695,7 16,7.8954305 16,9 L16,15 C16,16.1045695 15.1045695,17 14,17 Z" id="Combined-Shape"></path>
        </g>
    </g>
</svg>